<svg width="102" height="65" viewBox="0 0 102 65" fill="none" xmlns="http://www.w3.org/2000/svg">
<path d="M92.8155 0H9.12964C8.78104 0 8.43182 0 8.08383 0.00183866C7.79005 0.0042902 7.49688 0.00735463 7.20309 0.0153222C6.56317 0.032483 5.9177 0.069869 5.28578 0.183253C4.64401 0.297863 4.04659 0.485406 3.46394 0.780817C2.89053 1.07071 2.3664 1.45009 1.91125 1.9024C1.45671 2.35532 1.07547 2.87628 0.784144 3.44749C0.487278 4.02728 0.298812 4.62178 0.184254 5.26102C0.0696957 5.89045 0.0321255 6.53214 0.0148802 7.16832C0.00687348 7.46067 0.00317806 7.7524 0.00133035 8.04413C-0.000517359 8.39103 9.85446e-05 8.73792 9.85446e-05 9.08543V55.8597C9.85446e-05 56.2072 -0.000517359 56.5535 0.00133035 56.901C0.00317806 57.1927 0.00687348 57.4851 0.0148802 57.7768C0.0321255 58.4124 0.0696957 59.0547 0.184254 59.6835C0.298812 60.3227 0.487278 60.9172 0.784144 61.4976C1.07547 62.0682 1.45671 62.5898 1.91125 63.0421C2.3664 63.495 2.89053 63.8744 3.46394 64.1637C4.04659 64.4597 4.64401 64.6473 5.28578 64.7625C5.9177 64.8746 6.56317 64.9126 7.20309 64.9298C7.49688 64.9365 7.79005 64.9408 8.08383 64.9421C8.43182 64.9445 8.78104 64.9445 9.12964 64.9445H92.8155C93.1635 64.9445 93.5127 64.9445 93.8607 64.9421C94.1539 64.9408 94.4471 64.9365 94.7421 64.9298C95.3808 64.9126 96.0262 64.8746 96.6594 64.7625C97.3006 64.6473 97.898 64.4597 98.4812 64.1637C99.0546 63.8744 99.5775 63.495 100.033 63.0421C100.487 62.5898 100.868 62.0682 101.16 61.4976C101.458 60.9172 101.646 60.3227 101.76 59.6835C101.875 59.0547 101.912 58.4124 101.929 57.7768C101.937 57.4851 101.941 57.1927 101.943 56.901C101.945 56.5535 101.945 56.2072 101.945 55.8597V9.08543C101.945 8.73792 101.945 8.39103 101.943 8.04413C101.941 7.7524 101.937 7.46067 101.929 7.16832C101.912 6.53214 101.875 5.89045 101.76 5.26102C101.646 4.62178 101.458 4.02728 101.16 3.44749C100.868 2.87628 100.487 2.35532 100.033 1.9024C99.5775 1.45009 99.0546 1.07071 98.4812 0.780817C97.898 0.485406 97.3006 0.297863 96.6594 0.183253C96.0262 0.069869 95.3808 0.032483 94.7421 0.0153222C94.4471 0.00735463 94.1539 0.0042902 93.8607 0.00183866C93.5127 0 93.1635 0 92.8155 0" fill="#363636"/>
<path d="M92.8155 2.16479L93.8453 2.16663C94.1237 2.16847 94.4027 2.17154 94.683 2.1795C95.1708 2.19237 95.7417 2.21873 96.2738 2.31373C96.7358 2.39647 97.1238 2.52272 97.4958 2.71088C97.8635 2.89658 98.1998 3.14051 98.4936 3.43224C98.7886 3.72643 99.0337 4.06168 99.2228 4.43125C99.4113 4.79898 99.5369 5.18265 99.6201 5.64599C99.7149 6.17001 99.7414 6.73938 99.7543 7.22785C99.7623 7.50303 99.766 7.77883 99.7672 8.06137C99.7697 8.40275 99.7697 8.74352 99.7697 9.08551V55.8598C99.7697 56.2018 99.7697 56.5425 99.7672 56.8906C99.766 57.1664 99.7623 57.4422 99.7543 57.7186C99.7414 58.2059 99.7149 58.7753 99.6188 59.3048C99.5369 59.762 99.4113 60.1457 99.2216 60.5153C99.0331 60.8842 98.7886 61.2188 98.4948 61.5112C98.1992 61.8054 97.8641 62.0481 97.4921 62.2356C97.1226 62.4232 96.7358 62.5494 96.2782 62.6309C95.7349 62.7272 95.1406 62.7541 94.6928 62.7658C94.4114 62.7725 94.1311 62.7762 93.8435 62.7774C93.5017 62.7799 93.158 62.7799 92.8155 62.7799H9.12964C9.12533 62.7799 9.12102 62.7799 9.11609 62.7799C8.77796 62.7799 8.4386 62.7799 8.09431 62.7774C7.81346 62.7762 7.53322 62.7725 7.26222 62.7664C6.80399 62.7541 6.20903 62.7272 5.67073 62.6315C5.2088 62.5494 4.82201 62.4232 4.44754 62.2332C4.07923 62.0475 3.74418 61.8048 3.44855 61.51C3.15538 61.2188 2.91148 60.8848 2.72301 60.5153C2.53393 60.1463 2.40767 59.7614 2.32452 59.2987C2.22906 58.7698 2.20258 58.2034 2.18903 57.7186C2.18164 57.4416 2.17856 57.164 2.17671 56.8888L2.17548 56.0749V8.871L2.17671 8.05892C2.17856 7.78129 2.18164 7.50426 2.18903 7.22724C2.20258 6.74183 2.22906 6.17491 2.32576 5.6417C2.40767 5.18387 2.53393 4.79837 2.72363 4.42757C2.91086 4.06107 3.15538 3.72643 3.44978 3.43347C3.74357 3.14051 4.08047 2.89781 4.45062 2.71026C4.82078 2.52211 5.2088 2.39647 5.67073 2.31373C6.20287 2.21873 6.77381 2.19237 7.26284 2.1795C7.54123 2.17154 7.82023 2.16847 8.09677 2.16663L9.12964 2.16479H92.8155" fill="#FFFFFE"/>
<path fill-rule="evenodd" clip-rule="evenodd" d="M56.2674 34.6589V41.0219H53.28V23.897H59.8571C61.7779 23.897 63.3031 24.3949 64.4327 25.3907C65.5624 26.3865 66.1272 27.7038 66.1272 29.3426C66.1272 31.0206 65.5742 32.3261 64.4681 33.2592C63.3621 34.1923 61.8133 34.6589 59.8217 34.6589H56.2674ZM56.181 32.15H59.7589C60.8181 32.15 61.6263 31.9007 62.1834 31.402C62.7405 30.9034 63.019 30.183 63.019 29.2407C63.019 28.3141 62.7365 27.5741 62.1716 27.0205C61.6067 26.4669 60.8299 26.1823 59.8412 26.1666H56.181V32.15ZM75.5044 39.8042C75.599 40.3534 75.7093 40.7496 75.8354 40.9928H78.7672V40.7928C78.4441 40.1102 78.2825 39.1961 78.2825 38.0506V32.3074C78.2589 30.95 77.8018 29.8967 76.9112 29.1474C76.0206 28.3981 74.8266 28.0235 73.3292 28.0235C72.3441 28.0235 71.4516 28.1961 70.6516 28.5413C69.8517 28.8865 69.2192 29.3632 68.7543 29.9712C68.2893 30.5793 68.0568 31.2325 68.0568 31.9308H70.9294C70.9294 31.4286 71.1383 31.0147 71.556 30.6891C71.9737 30.3635 72.5096 30.2007 73.1637 30.2007C73.9203 30.2007 74.4838 30.3988 74.8542 30.795C75.2246 31.1913 75.4098 31.7189 75.4098 32.378V33.2136H73.6484C71.7648 33.2136 70.3167 33.5764 69.304 34.3022C68.2912 35.028 67.7849 36.0695 67.7849 37.4269C67.7849 38.5018 68.1908 39.404 69.0025 40.1337C69.8143 40.8634 70.8624 41.2282 72.1471 41.2282C73.4711 41.2282 74.5902 40.7535 75.5044 39.8042ZM72.7132 38.9586C73.2822 38.9586 73.8177 38.8213 74.3196 38.5466C74.8215 38.2719 75.1989 37.9031 75.4518 37.44V35.0385H73.8987C72.8317 35.0385 72.0295 35.2229 71.492 35.5918C70.9546 35.9606 70.6859 36.4825 70.6859 37.1575C70.6859 37.7069 70.8696 38.1444 71.2371 38.4701C71.6047 38.7958 72.0967 38.9586 72.7132 38.9586ZM88.1569 28.2298L85.5721 36.9036L82.8815 28.2298H79.8032L84.2679 40.9568L83.8567 42.0558C83.6452 42.6782 83.3574 43.1214 82.9932 43.3853C82.6289 43.6492 82.0865 43.7811 81.3659 43.7811L80.8254 43.7457V45.9673C81.3267 46.1091 81.7849 46.18 82.2001 46.18C84.0565 46.18 85.3724 45.1047 86.1478 42.9539L91.2 28.2298H88.1569Z" fill="#212121"/>
<path fill-rule="evenodd" clip-rule="evenodd" d="M36.96 33.689V35.4704H35.387V38.2354H33.5816V35.4704H28.5315V33.8174L28.578 33.6697L33.6545 26.3984L33.8691 26.2869H35.387V33.689H36.96ZM27.4769 36.4465V38.2354H19.44L19.4553 37.9618C19.5889 35.5698 20.418 34.5584 23.0011 32.9518C22.9982 32.9536 23.4527 32.6707 23.583 32.588C25.0084 31.6823 25.6226 30.9763 25.6226 29.8978C25.6226 28.7676 24.8297 27.9973 23.6597 27.9973C22.3066 27.9973 21.6106 29.0189 21.5725 30.6139L21.5665 30.8669H19.7872L19.7751 30.6203L19.7597 30.3013C19.7597 27.903 21.3538 26.2869 23.7237 26.2869C26.0409 26.2869 27.5748 27.7045 27.5748 29.8679C27.5748 31.8415 26.6349 32.8126 24.0048 34.3947L23.9524 34.4258L23.7821 34.5263C23.6882 34.5816 23.5848 34.6425 23.5434 34.6671C22.472 35.3035 21.9172 35.7797 21.6571 36.4465H27.4769ZM33.5817 33.6852H30.6532L33.5817 29.3711V33.6852Z" fill="black" fill-opacity="0.87"/>
<path fill-rule="evenodd" clip-rule="evenodd" d="M10.8 32.5C10.8 22.8705 18.6489 15.0552 28.32 15.0552C37.991 15.0552 45.84 22.8705 45.84 32.5C45.84 42.1296 37.991 49.9449 28.32 49.9449C18.6489 49.9449 10.8 42.1296 10.8 32.5ZM13.0248 32.5C13.0248 40.8954 19.8885 47.7297 28.32 47.7297C36.7515 47.7297 43.6152 40.8954 43.6152 32.5C43.6152 24.1047 36.7515 17.2704 28.32 17.2704C19.8885 17.2704 13.0248 24.1047 13.0248 32.5Z" fill="#8DC641"/>
</svg>
