<svg width="194" height="40" viewBox="0 0 194 40" fill="none" xmlns="http://www.w3.org/2000/svg">
<g id="logo_liqpay">
<g id="Group 2">
<g id="Group">
<path id="Path" fill-rule="evenodd" clip-rule="evenodd" d="M163.114 31.1359L162.669 30.7546C161.589 29.8333 161.398 28.1494 162.383 27.0692L173.948 13.8523C174.869 12.7721 176.553 12.5815 177.633 13.5664L178.078 13.9476C179.158 14.869 179.349 16.5529 178.364 17.6331L166.799 30.85C165.878 31.9302 164.257 32.0573 163.114 31.1359Z" fill="url(#paint0_linear)"/>
<path id="Path_2" opacity="0.4" fill-rule="evenodd" clip-rule="evenodd" d="M172.391 16.1399L172.168 15.8857L170.389 17.919L170.58 18.1414C173.63 21.1915 172.327 24.2733 171.628 25.3535L171.883 25.0676C172.296 24.591 172.931 23.8603 173.598 23.066C174.297 21.8587 175.282 18.9993 172.391 16.1399Z" fill="url(#paint1_linear)"/>
<path id="Path_3" opacity="0.4" fill-rule="evenodd" clip-rule="evenodd" d="M176.203 20.1112L176.68 19.5711C176.712 19.5076 176.775 19.444 176.807 19.3805C176.299 19.9524 175.759 20.556 175.25 21.1597C175.631 20.7467 175.949 20.3972 176.203 20.1112Z" fill="url(#paint2_radial)"/>
<path id="Path_4" fill-rule="evenodd" clip-rule="evenodd" d="M178.427 14.2653L166.863 1.0485C165.941 -0.0317219 164.257 -0.222349 163.177 0.762559L162.732 1.14381C161.652 2.06518 161.462 3.74906 162.447 4.82928L172.2 15.8857L172.423 16.1398C175.314 19.031 174.329 21.8904 173.598 23.0977C174.17 22.4305 174.742 21.7634 175.282 21.1597C175.79 20.556 176.331 19.9524 176.839 19.3805C177.347 18.8086 177.824 18.2685 178.142 17.919C179.254 16.8388 179.412 15.3456 178.427 14.2653Z" fill="url(#paint3_linear)"/>
</g>
<g id="Group_2">
<path id="Path_5" fill-rule="evenodd" clip-rule="evenodd" d="M177.792 31.1359L177.347 30.7547C176.267 29.8333 176.076 28.1494 177.061 27.0692L188.626 13.8524C189.547 12.7721 191.231 12.5815 192.311 13.5664L192.756 13.9477C193.836 14.869 194.027 16.5529 193.042 17.6331L181.477 30.85C180.556 31.9302 178.936 32.0573 177.792 31.1359Z" fill="url(#paint4_linear)"/>
<path id="Path_6" opacity="0.4" fill-rule="evenodd" clip-rule="evenodd" d="M187.196 16.0128L186.974 15.7586L185.195 17.792L185.385 18.0144C188.435 21.0644 187.133 24.1462 186.434 25.2264L186.688 24.9405C187.101 24.4639 187.736 23.7332 188.403 22.9389C189.102 21.7316 190.087 18.8722 187.196 16.0128Z" fill="url(#paint5_linear)"/>
<path id="Path_7" opacity="0.4" fill-rule="evenodd" clip-rule="evenodd" d="M190.85 20.1113L191.327 19.5712C191.358 19.5076 191.422 19.4441 191.454 19.3805C190.945 19.9524 190.405 20.5561 189.897 21.1597C190.278 20.7467 190.628 20.3972 190.85 20.1113Z" fill="url(#paint6_radial)"/>
<path id="Path_8" fill-rule="evenodd" clip-rule="evenodd" d="M193.074 14.2654L181.509 1.04853C180.588 -0.0316914 178.904 -0.222319 177.824 0.76259L177.379 1.14384C176.299 2.06521 176.108 3.74909 177.093 4.82931L186.847 15.8857L187.069 16.1399C189.96 19.0311 188.975 21.8905 188.245 23.0978C188.816 22.4306 189.388 21.7634 189.928 21.1597C190.437 20.5561 190.977 19.9524 191.485 19.3805C191.994 18.8087 192.47 18.2685 192.788 17.9191C193.9 16.8388 194.059 15.3456 193.074 14.2654Z" fill="url(#paint7_linear)"/>
</g>
</g>
<g id="Group_3">
<path id="Path_9" fill-rule="evenodd" clip-rule="evenodd" d="M0.698967 31.0088C0.25417 30.564 0 29.8968 0 29.0707V2.92298C0 2.06516 0.25417 1.39796 0.794281 0.857849C1.33439 0.317738 2.00159 0.0635681 2.85941 0.0635681C3.71724 0.0635681 4.47975 0.317738 4.98809 0.857849C5.5282 1.39796 5.78237 2.06516 5.78237 2.92298V27.0374H18.2685C20.0477 27.0374 20.969 27.8316 20.969 29.3884C20.969 30.9452 20.0477 31.7395 18.2685 31.7395H2.70056C1.84273 31.7395 1.17554 31.4853 0.698967 31.0088Z" fill="#4B4C4B"/>
<path id="Path_10" fill-rule="evenodd" clip-rule="evenodd" d="M25.4806 31.1994C24.9404 30.6593 24.6863 29.9603 24.6863 29.0707V2.89118C24.6863 2.03336 24.9404 1.36616 25.4806 0.82605C26.0207 0.285939 26.6879 0.0317688 27.5457 0.0317688C28.4035 0.0317688 29.166 0.285939 29.6744 0.82605C30.2145 1.36616 30.4686 2.03336 30.4686 2.89118V29.0707C30.4686 29.9285 30.2145 30.6593 29.6744 31.1994C29.1343 31.7395 28.4353 31.9936 27.5457 31.9936C26.7196 31.9936 26.0207 31.7395 25.4806 31.1994Z" fill="#4B4C4B"/>
<path id="Shape" fill-rule="evenodd" clip-rule="evenodd" d="M63.5106 37.6807C63.5106 37.1406 63.32 36.6322 63.0023 36.0921L61.4137 33.7093C60.4923 32.216 59.3803 31.1994 58.0142 30.7546C60.6512 29.579 62.6846 27.7363 64.0825 25.1946C65.5122 22.6847 66.2112 19.6029 66.2112 16.0763C66.2112 12.8038 65.6075 9.9444 64.4002 7.52979C63.1929 5.14694 61.4772 3.27244 59.2215 1.93805C56.9975 0.667196 54.3287 0 51.3104 0C48.2286 0 45.5916 0.603654 43.3359 1.93805C41.1119 3.27244 39.3645 5.11517 38.1572 7.52979C36.9816 9.97617 36.3462 12.8038 36.3462 16.0763C36.3462 19.3169 36.9498 22.1763 38.1572 24.6227C39.3645 27.0056 41.0801 28.8801 43.3359 30.2145C45.5916 31.4853 48.2286 32.1525 51.3104 32.1525C52.3907 32.1525 53.2485 32.3431 53.9157 32.6608C54.5829 32.9786 55.123 33.4869 55.536 34.1859L58.1413 38.5067C58.459 38.9833 58.872 39.3646 59.3168 39.6187C59.7934 39.8729 60.3017 40 60.8418 40C61.5408 40 62.1762 39.7458 62.7163 39.3328C63.2564 38.9198 63.5106 38.3479 63.5106 37.6807ZM60.4607 16.0127C60.4607 19.6982 59.6346 22.5576 58.0143 24.5592C56.3939 26.5608 54.1382 27.5457 51.247 27.5457C48.3558 27.5457 46.0683 26.5608 44.448 24.5592C42.8276 22.5576 42.0016 19.7617 42.0016 16.0127C42.0016 12.2637 42.8276 9.46785 44.448 7.46627C46.0683 5.49645 48.324 4.51154 51.247 4.51154C54.17 4.51154 56.3939 5.46468 58.0143 7.46627C59.6346 9.46785 60.4607 12.2637 60.4607 16.0127Z" fill="#4B4C4B"/>
<path id="Shape_2" fill-rule="evenodd" clip-rule="evenodd" d="M72.4067 29.0707C72.4067 29.9603 72.6609 30.6593 73.201 31.1994C73.6776 31.7395 74.4083 31.9937 75.2662 32.0254C76.1557 32.0254 76.8547 31.7713 77.3948 31.2311C77.9349 30.7228 78.1891 30.0238 78.1891 29.1025V19.5076H86.1637C89.5314 19.5076 92.1367 18.6815 94.0112 16.9659C95.8857 15.282 96.8388 12.8991 96.8388 9.88087C96.8388 6.8626 95.8857 4.47975 94.0112 2.82765C92.1367 1.112 89.5314 0.28595 86.1637 0.28595H75.2026C74.3448 0.28595 73.6776 0.54012 73.1692 0.984917C72.6609 1.46149 72.4067 2.12868 72.4067 2.98651V29.0707ZM91.3742 9.94442C91.3742 13.3757 89.3726 15.1231 85.433 15.1231L78.1891 15.0914V4.7657H85.433C89.3726 4.7657 91.3742 6.51312 91.3742 9.94442Z" fill="#4B4C4B"/>
<path id="Shape_3" fill-rule="evenodd" clip-rule="evenodd" d="M126.418 31.1994C126.958 30.691 127.244 30.1191 127.244 29.4519C127.244 29.0389 127.149 28.6894 127.021 28.2764L114.662 1.81096C114.376 1.20731 113.963 0.76251 113.423 0.444797C112.883 0.158856 112.311 0 111.676 0C111.041 0 110.469 0.127085 109.929 0.444797C109.357 0.76251 108.944 1.23908 108.689 1.81096L96.3622 28.2764C96.2033 28.6577 96.108 29.0707 96.108 29.4519C96.108 30.1509 96.3622 30.7546 96.9341 31.1994C97.4742 31.6442 98.1414 31.8983 98.8086 31.8983C99.3169 31.8983 99.7617 31.7712 100.175 31.5171C100.588 31.2629 100.905 30.8817 101.16 30.3415L103.86 24.3685H119.492L122.192 30.3415C122.415 30.8499 122.764 31.2629 123.177 31.5171C123.59 31.7712 124.067 31.8983 124.512 31.8983C125.242 31.8983 125.878 31.6442 126.418 31.1994ZM117.585 19.9206H105.798L111.676 6.70375L117.585 19.9206Z" fill="#4B4C4B"/>
<path id="Path_11" fill-rule="evenodd" clip-rule="evenodd" d="M149.484 0.06354C150.151 0.06354 150.755 0.31771 151.295 0.857821C151.835 1.39793 152.089 1.96982 152.089 2.73233C152.089 3.30421 151.867 3.90786 151.422 4.44797L141.287 16.807V29.166C141.287 30.0874 141.033 30.7863 140.492 31.3265C139.952 31.8666 139.285 32.089 138.459 32.089C137.601 32.089 136.871 31.8348 136.33 31.3265C135.79 30.8181 135.536 30.1191 135.536 29.166V16.807L125.465 4.4162C125.02 3.87609 124.797 3.30421 124.797 2.70055C124.797 2.00159 125.052 1.36616 125.592 0.82605C126.132 0.285939 126.767 0.0317688 127.403 0.0317688C128.165 0.0317688 128.769 0.349481 129.309 1.01668L138.427 12.3272L147.514 1.01668C148.054 0.381252 148.721 0.06354 149.484 0.06354Z" fill="#4B4C4B"/>
</g>
</g>
<defs>
<linearGradient id="paint0_linear" x1="166.726" y1="35.2611" x2="182.776" y2="27.4795" gradientUnits="userSpaceOnUse">
<stop stop-color="#1FADC3"/>
<stop offset="0.7072" stop-color="#36B98F"/>
</linearGradient>
<linearGradient id="paint1_linear" x1="172.361" y1="22.7626" x2="175.362" y2="22.3258" gradientUnits="userSpaceOnUse">
<stop stop-color="#123F06" stop-opacity="0.01"/>
<stop offset="1" stop-color="#123F06"/>
</linearGradient>
<radialGradient id="paint2_radial" cx="0" cy="0" r="1" gradientUnits="userSpaceOnUse" gradientTransform="translate(169.831 21.763) scale(7.74643 8.85307)">
<stop offset="0.4185" stop-color="#123F06" stop-opacity="0.01"/>
<stop offset="1" stop-color="#123F06"/>
</radialGradient>
<linearGradient id="paint3_linear" x1="155.749" y1="17.6345" x2="175.214" y2="24.3609" gradientUnits="userSpaceOnUse">
<stop stop-color="#9FDB57"/>
<stop offset="1" stop-color="#71CA5E"/>
</linearGradient>
<linearGradient id="paint4_linear" x1="181.39" y1="35.2692" x2="197.44" y2="27.4875" gradientUnits="userSpaceOnUse">
<stop stop-color="#1FADC3"/>
<stop offset="0.7072" stop-color="#36B98F"/>
</linearGradient>
<linearGradient id="paint5_linear" x1="187.167" y1="22.6356" x2="190.167" y2="22.1987" gradientUnits="userSpaceOnUse">
<stop stop-color="#123F06" stop-opacity="0.01"/>
<stop offset="1" stop-color="#123F06"/>
</linearGradient>
<radialGradient id="paint6_radial" cx="0" cy="0" r="1" gradientUnits="userSpaceOnUse" gradientTransform="translate(184.49 21.763) scale(7.74643 8.85307)">
<stop offset="0.4185" stop-color="#123F06" stop-opacity="0.01"/>
<stop offset="1" stop-color="#123F06"/>
</radialGradient>
<linearGradient id="paint7_linear" x1="170.405" y1="17.6403" x2="189.87" y2="24.3667" gradientUnits="userSpaceOnUse">
<stop stop-color="#9FDB57"/>
<stop offset="1" stop-color="#71CA5E"/>
</linearGradient>
</defs>
</svg>
