<?xml version="1.0" encoding="UTF-8" standalone="no"?>
<svg
   width="2.11676in"
   height="1.5in"
   viewBox="0 0 152.407 108"
   version="1.1"
   id="svg16"
   sodipodi:docname="mc_symbol.svg"
   inkscape:version="1.1.1 (1:1.1+202109281949+c3084ef5ed)"
   xmlns:inkscape="http://www.inkscape.org/namespaces/inkscape"
   xmlns:sodipodi="http://sodipodi.sourceforge.net/DTD/sodipodi-0.dtd"
   xmlns="http://www.w3.org/2000/svg"
   xmlns:svg="http://www.w3.org/2000/svg">
  <defs
     id="defs20" />
  <sodipodi:namedview
     id="namedview18"
     pagecolor="#ffffff"
     bordercolor="#666666"
     borderopacity="1.0"
     inkscape:pageshadow="2"
     inkscape:pageopacity="0.0"
     inkscape:pagecheckerboard="0"
     inkscape:document-units="in"
     showgrid="false"
     inkscape:zoom="2.4965278"
     inkscape:cx="75.30459"
     inkscape:cy="94.130737"
     inkscape:window-width="1680"
     inkscape:window-height="985"
     inkscape:window-x="0"
     inkscape:window-y="0"
     inkscape:window-maximized="1"
     inkscape:current-layer="svg16" />
  <g
     id="g12">
    <rect
       x="60.411701"
       y="25.6968"
       width="31.5"
       height="56.6064"
       style="fill:#ff5f00"
       id="rect4" />
    <path
       d="m 382.20839,306 a 35.9375,35.9375 0 0 1 13.7499,-28.3032 36,36 0 1 0 0,56.6064 A 35.938,35.938 0 0 1 382.20839,306 Z"
       transform="translate(-319.79649,-252)"
       style="fill:#eb001b"
       id="path6" />
    <path
       d="m 454.20349,306 a 35.99867,35.99867 0 0 1 -58.2452,28.3032 36.00518,36.00518 0 0 0 0,-56.6064 35.99867,35.99867 0 0 1 58.2452,28.3032 z"
       transform="translate(-319.79649,-252)"
       style="fill:#f79e1b"
       id="path8" />
    <path
       d="m 450.76889,328.3077 v -1.1589 h 0.4673 v -0.2361 h -1.1901 v 0.2361 h 0.4675 v 1.1589 z m 2.3105,0 v -1.3973 h -0.3648 l -0.41959,0.9611 -0.41971,-0.9611 h -0.365 v 1.3973 h 0.2576 v -1.054 l 0.3935,0.9087 h 0.2671 l 0.39351,-0.911 v 1.0563 z"
       transform="translate(-319.79649,-252)"
       style="fill:#f79e1b"
       id="path10" />
  </g>
</svg>
