<?xml version="1.0" encoding="UTF-8" standalone="no"?>
<!-- Generator: Adobe Illustrator 16.0.0, SVG Export Plug-In . SVG Version: 6.00 Build 0)  -->

<svg
   version="1.1"
   id="Capa_1"
   x="0px"
   y="0px"
   width="512px"
   height="512px"
   viewBox="0 0 512 512"
   style="enable-background:new 0 0 512 512;"
   xml:space="preserve"
   sodipodi:docname="icon_uah_ok.svg"
   inkscape:version="1.2.2 (b0a8486541, 2022-12-01)"
   xmlns:inkscape="http://www.inkscape.org/namespaces/inkscape"
   xmlns:sodipodi="http://sodipodi.sourceforge.net/DTD/sodipodi-0.dtd"
   xmlns="http://www.w3.org/2000/svg"
   xmlns:svg="http://www.w3.org/2000/svg"><defs
   id="defs39">
	
<filter
   inkscape:collect="always"
   style="color-interpolation-filters:sRGB"
   id="filter2147"
   x="-0.14731419"
   y="-0.18190771"
   width="1.2946286"
   height="1.3638115"><feGaussianBlur
     inkscape:collect="always"
     stdDeviation="15.672411"
     id="feGaussianBlur2149" /></filter></defs><sodipodi:namedview
   id="namedview37"
   pagecolor="#ffffff"
   bordercolor="#666666"
   borderopacity="1.0"
   inkscape:pageshadow="2"
   inkscape:pageopacity="0.0"
   inkscape:pagecheckerboard="0"
   showgrid="false"
   inkscape:zoom="0.31445312"
   inkscape:cx="-28.621118"
   inkscape:cy="71.552796"
   inkscape:window-width="1852"
   inkscape:window-height="1052"
   inkscape:window-x="68"
   inkscape:window-y="0"
   inkscape:window-maximized="1"
   inkscape:current-layer="layer2"
   inkscape:showpageshadow="2"
   inkscape:deskcolor="#d1d1d1" />

<g
   id="g6">
</g>
<g
   id="g8">
</g>
<g
   id="g10">
</g>
<g
   id="g12">
</g>
<g
   id="g14">
</g>
<g
   id="g16">
</g>
<g
   id="g18">
</g>
<g
   id="g20">
</g>
<g
   id="g22">
</g>
<g
   id="g24">
</g>
<g
   id="g26">
</g>
<g
   id="g28">
</g>
<g
   id="g30">
</g>
<g
   id="g32">
</g>
<g
   id="g34">
</g>
<g
   inkscape:groupmode="layer"
   id="layer1"
   inkscape:label="Layer 1"
   style="display:inline"><path
     d="M 256,32 C 379.5,32 480,132.5 480,256 480,379.5 379.5,480 256,480 132.5,480 32,379.5 32,256 32,132.5 132.5,32 256,32 M 256,0 C 114.625,0 0,114.625 0,256 0,397.375 114.625,512 256,512 397.375,512 512,397.375 512,256 512,114.625 397.375,0 256,0 Z"
     id="path2"
     sodipodi:nodetypes="cssscsssss"
     style="display:none" /><path
     id="path1307"
     style="display:inline;fill:#aa8800;stroke:none;stroke-width:0.999998;stroke-linecap:butt;stroke-linejoin:miter;paint-order:stroke fill markers;stop-color:#000000;font-variation-settings:normal;opacity:1;vector-effect:none;fill-opacity:1;stroke-miterlimit:4;stroke-dasharray:none;stroke-dashoffset:0;stroke-opacity:1;-inkscape-stroke:none;stop-opacity:1"
     d="M 256,-3.0000001e-6 A 255.99998,255.99998 0 0 0 -9.9999998e-7,256 255.99998,255.99998 0 0 0 256,512 255.99998,255.99998 0 0 0 512,256 255.99998,255.99998 0 0 0 256,-3.0000001e-6 Z M 255.76172,30.759763 a 225,225 0 0 1 225,224.999997 225,225 0 0 1 -225,225 225,225 0 0 1 -225.000002,-225 A 225,225 0 0 1 255.76172,30.759763 Z" /></g><g
   inkscape:groupmode="layer"
   id="layer2"
   inkscape:label="Layer 2"
   style="display:inline"><g
     id="g4"
     transform="translate(-1263.5216,-581.56085)"
     style="font-size:379.618px;line-height:1.25;stroke-width:0.999998">
	
</g><path
     d="m 197.62193,297.27007 q -3.60882,2.45776 -6.15623,4.91553 -11.8879,11.87924 -11.8879,33.99918 0,27.64992 19.95468,42.19173 19.74241,14.337 57.52894,14.337 40.54622,0 60.5009,-16.79477 19.74241,-16.58996 20.80382,-51.61319 0,0 24.41265,0 v 69.63684 q -28.02147,10.44554 -54.98153,15.56589 -27.17233,5.12036 -53.28325,5.12036 -58.37807,0 -87.88553,-22.52957 -29.50745,-22.52957 -29.50745,-66.97427 0,-15.36107 4.03338,-27.85473 0,0 -36.30054,0 v -21.71032 h 48.40072 q 1.06142,-1.22888 2.12285,-2.45777 18.04413,-19.25254 61.56232,-31.74621 0,0 39.27253,-11.26479 7.64221,-2.25295 14.64758,-4.50591 0,0 -168.12883,0 v -21.71031 h 210.79788 q 11.67562,-12.28886 11.67562,-32.9751 0,-25.19216 -17.40728,-38.30027 -17.61955,-13.31293 -51.16041,-13.31293 -38.42338,0 -57.10437,14.54181 -18.89326,14.74664 -22.50208,46.69766 0,0 -23.98808,0 V 115.395 q 29.71974,-8.80702 56.04294,-13.51774 26.3232,-4.505923 48.40073,-4.505923 51.79726,0 80.45558,21.505493 28.65833,21.5055 28.65833,60.42021 0,13.31293 -2.75969,24.57772 0,0 43.30591,0 v 21.71031 h -52.6464 q -2.75969,4.30109 -6.36852,8.19257 -18.89326,20.0718 -64.10973,33.17991 0,0 -29.71975,8.6022 h 154.96724 v 21.71032 z"
     style="font-size:427.04px;font-family:'DejaVu Serif';-inkscape-font-specification:'DejaVu Serif';vector-effect:none;fill:#aa8800;stroke-width:0.999998;stop-color:#000000"
     id="path713" /><path
     style="font-variation-settings:normal;opacity:1;vector-effect:none;fill:#000000;fill-opacity:1;stroke:#000000;stroke-width:20;stroke-linecap:round;stroke-linejoin:round;stroke-miterlimit:4;stroke-dasharray:none;stroke-dashoffset:0;stroke-opacity:1;-inkscape-stroke:none;filter:url(#filter2147);stop-color:#000000;stop-opacity:1"
     d="M 172.38557,298.90751 C 220.93104,348.51206 275.90003,424.7061 299.43052,496.19726 337.10327,421.72622 428.81785,294.06822 495.58232,234.45348 431.44853,245.46349 335.67379,320.13583 302.57889,365.46503 273.59396,336.87583 227.7231,314.31779 172.38557,298.90751 Z"
     id="path4252"
     sodipodi:nodetypes="ccccc" /><path
     style="font-variation-settings:normal;opacity:1;fill:#008000;fill-opacity:1;stroke:#ffffff;stroke-width:28;stroke-linecap:round;stroke-linejoin:round;stroke-miterlimit:4;stroke-dasharray:none;stroke-dashoffset:0;stroke-opacity:1;stop-color:#000000;stop-opacity:1"
     d="M 172.38557,298.90751 C 220.93104,348.51206 275.90003,424.7061 299.43052,496.19726 337.10327,421.72622 428.81785,294.06822 495.58232,234.45348 431.44853,245.46349 335.67379,320.13583 302.57889,365.46503 273.59396,336.87583 227.7231,314.31779 172.38557,298.90751 Z"
     id="path4270"
     sodipodi:nodetypes="ccccc" /><path
     style="font-variation-settings:normal;opacity:1;fill:#008000;fill-opacity:1;stroke:#008000;stroke-width:15;stroke-linecap:round;stroke-linejoin:round;stroke-miterlimit:4;stroke-dasharray:none;stroke-dashoffset:0;stroke-opacity:1;stop-color:#000000;stop-opacity:1"
     d="M 172.38557,298.90751 C 220.93104,348.51206 275.90003,424.7061 299.43052,496.19726 337.10327,421.72622 428.81785,294.06822 495.58232,234.45348 431.44853,245.46349 335.67379,320.13583 302.57889,365.46503 273.59396,336.87583 227.7231,314.31779 172.38557,298.90751 Z"
     id="path711"
     sodipodi:nodetypes="ccccc" /></g></svg>
