<?xml version="1.0" encoding="UTF-8" standalone="no"?>
<!-- Created with Inkscape (http://www.inkscape.org/) -->

<svg
   width="128"
   height="128"
   viewBox="0 0 33.866667 33.866666"
   version="1.1"
   id="svg5"
   xml:space="preserve"
   inkscape:version="1.2.2 (b0a8486541, 2022-12-01)"
   sodipodi:docname="icon_edit.svg"
   xmlns:inkscape="http://www.inkscape.org/namespaces/inkscape"
   xmlns:sodipodi="http://sodipodi.sourceforge.net/DTD/sodipodi-0.dtd"
   xmlns="http://www.w3.org/2000/svg"
   xmlns:svg="http://www.w3.org/2000/svg"><sodipodi:namedview
     id="namedview7"
     pagecolor="#ffffff"
     bordercolor="#000000"
     borderopacity="0.25"
     inkscape:showpageshadow="2"
     inkscape:pageopacity="0.0"
     inkscape:pagecheckerboard="true"
     inkscape:deskcolor="#d1d1d1"
     inkscape:document-units="mm"
     showgrid="false"
     inkscape:zoom="1.0973349"
     inkscape:cx="-99.787221"
     inkscape:cy="35.996303"
     inkscape:window-width="1852"
     inkscape:window-height="1052"
     inkscape:window-x="68"
     inkscape:window-y="0"
     inkscape:window-maximized="1"
     inkscape:current-layer="layer2" /><defs
     id="defs2" /><g
     inkscape:groupmode="layer"
     id="layer2"
     inkscape:label="Слой 2"><path
       id="path465"
       style="opacity:1;fill:#d4aa00;stroke-width:0.79375;stroke-linecap:round;stroke-linejoin:round;stroke-opacity:0.933333"
       d="M 24.88282,14.063503 19.781742,8.9850295 21.213359,7.5458774 c 0.663677,-0.6132647 2.068961,-0.5244373 2.569376,0 l 2.501563,2.4864926 c 0.564536,0.575657 0.635433,1.820623 0.05274,2.524167 z m -5.868537,-4.3279687 -8.460982,8.4609827 5.104598,5.114416 8.471317,-8.481653 z m 0.138493,2.4830527 0.394291,0.362252 -6.095235,6.116422 -0.394291,-0.383956 z m 2.131136,2.099097 0.362252,0.383439 -6.073531,6.095235 -0.394291,-0.394291 z m -12.8119461,8.554032 2.5015621,2.471424 1.476827,-0.143162 c 0.96737,-0.151883 1.75622,-0.465672 2.426214,-1.130224 L 9.7754913,18.968676 c -0.7025645,0.773652 -0.9696529,1.39408 -1.1226896,2.283052 z m -0.090418,0.715809 1.8761721,1.883707 -1.8008238,0.21851 C 8.304049,25.678142 8.1610758,25.654462 8.1856425,25.426023 Z" /><path
       id="path519"
       style="opacity:1;fill:#d4aa00;stroke-width:0.79375;stroke-linecap:round;stroke-linejoin:round;stroke-opacity:0.933333"
       d="M 16.933333,0.62993561 A 16.303459,16.303459 0 0 0 0.62993557,16.933333 16.303459,16.303459 0 0 0 16.933333,33.236731 16.303459,16.303459 0 0 0 33.236731,16.933333 16.303459,16.303459 0 0 0 16.933333,0.62993561 Z m 0,1.53427329 A 14.769016,14.769016 0 0 1 31.702457,16.933333 14.769016,14.769016 0 0 1 16.933333,31.702458 14.769016,14.769016 0 0 1 2.1647256,16.933333 14.769016,14.769016 0 0 1 16.933333,2.1642089 Z" /></g></svg>
