<?xml version="1.0" encoding="UTF-8" standalone="no"?>
<!-- Created with Inkscape (http://www.inkscape.org/) -->

<svg
   xml:space="preserve"
   id="svg5"
   version="1.1"
   viewBox="0 0 33.866663 33.866663"
   height="128"
   width="128"
   inkscape:version="1.2.2 (b0a8486541, 2022-12-01)"
   sodipodi:docname="icon_pap.svg"
   xmlns:inkscape="http://www.inkscape.org/namespaces/inkscape"
   xmlns:sodipodi="http://sodipodi.sourceforge.net/DTD/sodipodi-0.dtd"
   xmlns:xlink="http://www.w3.org/1999/xlink"
   xmlns="http://www.w3.org/2000/svg"
   xmlns:svg="http://www.w3.org/2000/svg"><sodipodi:namedview
     id="namedview7"
     pagecolor="#ffffff"
     bordercolor="#000000"
     borderopacity="0.25"
     inkscape:showpageshadow="2"
     inkscape:pageopacity="0.0"
     inkscape:pagecheckerboard="true"
     inkscape:deskcolor="#d1d1d1"
     inkscape:document-units="mm"
     showgrid="false"
     inkscape:zoom="4.0000001"
     inkscape:cx="11.25"
     inkscape:cy="65.624998"
     inkscape:window-width="1852"
     inkscape:window-height="1052"
     inkscape:window-x="68"
     inkscape:window-y="0"
     inkscape:window-maximized="1"
     inkscape:current-layer="layer1" /><defs
     id="defs2"><filter
       inkscape:collect="always"
       style="color-interpolation-filters:sRGB"
       id="filter52993"
       x="-0.17593226"
       y="-0.1435676"
       width="1.351863"
       height="1.2871312"><feGaussianBlur
         inkscape:collect="always"
         stdDeviation="0.44906202"
         id="feGaussianBlur52995" /></filter><filter
       inkscape:collect="always"
       style="color-interpolation-filters:sRGB"
       id="filter53016"
       x="-0.095032241"
       y="-0.14486889"
       width="1.1900645"
       height="1.2897378"><feGaussianBlur
         inkscape:collect="always"
         stdDeviation="0.48766115"
         id="feGaussianBlur53018" /></filter></defs><g
     inkscape:groupmode="layer"
     id="layer2"
     inkscape:label="FON"
     sodipodi:insensitive="true"
     style="display:none"><image
       width="75.45192"
       height="45.207481"
       preserveAspectRatio="none"
       xlink:href="PPP.jpeg"
       id="image140"
       x="-20.981527"
       y="-5.6722178"
       style="stroke-width:1.66215" /></g><g
     inkscape:label="Слой 1"
     inkscape:groupmode="layer"
     id="layer1"><g
       id="g43290"
       transform="matrix(-0.3699669,1.3802201,-1.3807353,-0.36982885,49.161072,-18.883066)"
       style="stroke-width:0.699704"><ellipse
         style="fill:#bd8f5b;fill-opacity:1;stroke:#bd8f5b;stroke-width:0.0705036;stroke-linecap:round;stroke-linejoin:round;stroke-dasharray:none;stroke-opacity:1;stop-color:#000000"
         id="ellipse43284"
         cx="26.622126"
         cy="24.955664"
         rx="2.0807362"
         ry="2.0494416"
         transform="matrix(0.98492811,-0.17296419,0,1,0,0)" /><ellipse
         style="fill:#e3c08d;fill-opacity:1;stroke:#bd8f5b;stroke-width:0.0705036;stroke-linecap:round;stroke-linejoin:round;stroke-dasharray:none;stroke-opacity:1;stop-color:#000000"
         id="ellipse43286"
         cx="26.497564"
         cy="24.796108"
         rx="2.0807362"
         ry="2.0494416"
         transform="matrix(0.98492811,-0.17296419,0,1,0,0)" /><path
         id="path43288"
         style="fill:#e3c08d;fill-opacity:1;stroke:#bd8f5b;stroke-width:0.0699703;stroke-linecap:round;stroke-linejoin:round;stroke-dasharray:none;stroke-opacity:1;stop-color:#000000"
         d="m 26.098296,18.16331 a 1.877347,2.2372399 42.485798 0 0 -2.049576,2.40957 1.877347,2.2372399 42.485798 0 0 2.049576,1.689713 1.877347,2.2372399 42.485798 0 0 2.049097,-2.409486 1.877347,2.2372399 42.485798 0 0 -2.049097,-1.689797 z m 0,0.337374 a 1.5683029,1.8689511 42.485798 0 1 1.711734,1.411668 1.5683029,1.8689511 42.485798 0 1 -1.711734,2.012868 1.5683029,1.8689511 42.485798 0 1 -1.712212,-1.411585 1.5683029,1.8689511 42.485798 0 1 1.712212,-2.012951 z" /></g><g
       id="g52989"
       transform="matrix(0.95042456,-0.26493832,-0.1078152,1.4321592,-10.973442,3.6969339)"
       style="stroke-width:0.866265"><ellipse
         style="fill:#bd8f5b;fill-opacity:1;stroke:#bd8f5b;stroke-width:0.0872868;stroke-linecap:round;stroke-linejoin:round;stroke-dasharray:none;stroke-opacity:1;stop-color:#000000"
         id="ellipse52983"
         cx="26.891798"
         cy="25.042782"
         rx="2.0807362"
         ry="2.0494416"
         transform="matrix(0.98492811,-0.17296419,0,1,0,0)" /><ellipse
         style="fill:#e3c08d;fill-opacity:1;stroke:#bd8f5b;stroke-width:0.0872868;stroke-linecap:round;stroke-linejoin:round;stroke-dasharray:none;stroke-opacity:1;stop-color:#000000"
         id="ellipse52985"
         cx="26.497564"
         cy="24.796108"
         rx="2.0807362"
         ry="2.0494416"
         transform="matrix(0.98492811,-0.17296419,0,1,0,0)" /><path
         id="path52987"
         style="fill:#e3c08d;fill-opacity:1;stroke:#bd8f5b;stroke-width:0.0866265;stroke-linecap:round;stroke-linejoin:round;stroke-dasharray:none;stroke-opacity:1;stop-color:#000000"
         d="m 26.098296,18.16331 a 1.877347,2.2372399 42.485798 0 0 -2.049576,2.40957 1.877347,2.2372399 42.485798 0 0 2.049576,1.689713 1.877347,2.2372399 42.485798 0 0 2.049097,-2.409486 1.877347,2.2372399 42.485798 0 0 -2.049097,-1.689797 z m 0,0.337374 a 1.5683029,1.8689511 42.485798 0 1 1.711734,1.411668 1.5683029,1.8689511 42.485798 0 1 -1.711734,2.012868 1.5683029,1.8689511 42.485798 0 1 -1.712212,-1.411585 1.5683029,1.8689511 42.485798 0 1 1.712212,-2.012951 z" /></g><g
       id="g52965"
       transform="matrix(1.5356855,-0.69174224,0.69174224,1.5356855,-26.8215,13.561756)"
       style="stroke-width:0.593722"><path
         id="path48611"
         style="fill:#cda373;fill-opacity:1;stroke:none;stroke-width:0.059372;stroke-linecap:round;stroke-linejoin:round;stroke-dasharray:none;stroke-opacity:1;stop-color:#000000"
         d="m 28.223021,7.9519413 c -1.152203,-0.04971 -2.086277,0.288965 -2.086163,0.756395 -1.11e-4,0.46742 0.933961,0.886614 2.086163,0.936231 1.152012,0.04959 2.085788,-0.289063 2.085676,-0.756415 1.13e-4,-0.467343 -0.933664,-0.886493 -2.085676,-0.936211 z"
         sodipodi:nodetypes="ccccc" /><path
         id="path48613"
         style="fill:#c28140;fill-opacity:1;stroke:none;stroke-width:0.059372;stroke-linecap:round;stroke-linejoin:round;stroke-dasharray:none;stroke-opacity:1;stop-color:#000000"
         d="m 28.223021,8.2661343 c -1.152203,-0.04971 -2.086277,0.288965 -2.086163,0.756395 -1.1e-4,0.467419 0.933962,0.886613 2.086163,0.93623 1.152011,0.04959 2.085787,-0.289062 2.085676,-0.756414 1.13e-4,-0.467343 -0.933664,-0.886493 -2.085676,-0.936211 z"
         sodipodi:nodetypes="ccccc" /><path
         id="path40829"
         style="fill:#b37035;fill-opacity:1;stroke:none;stroke-width:0.059372;stroke-linecap:round;stroke-linejoin:round;stroke-dasharray:none;stroke-opacity:1;stop-color:#000000"
         d="m 28.223021,8.2661342 a 2.0882762,0.84529143 2.952188 0 0 -2.086163,0.7563947 2.0882762,0.84529143 2.952188 0 0 2.086163,0.9362308 2.0882762,0.84529143 2.952188 0 0 2.085676,-0.7564142 2.0882762,0.84529143 2.952188 0 0 -2.085676,-0.9362113 z m 0,0.1393043 a 1.7445096,0.70614172 2.952188 0 1 1.742292,0.7821063 1.7445096,0.70614172 2.952188 0 1 -1.742292,0.6319107 1.7445096,0.70614172 2.952188 0 1 -1.742776,-0.7821259 1.7445096,0.70614172 2.952188 0 1 1.742776,-0.6318911 z" /></g><g
       id="g52973"
       transform="matrix(1.5356855,-0.69174224,0.69174224,1.5356855,-27.090053,15.842753)"
       style="stroke-width:0.593722"><path
         id="path52967"
         style="fill:#c2915b;fill-opacity:1;stroke:none;stroke-width:0.059372;stroke-linecap:round;stroke-linejoin:round;stroke-dasharray:none;stroke-opacity:1;stop-color:#000000"
         d="m 28.223021,7.9519413 c -1.152203,-0.04971 -2.086277,0.288965 -2.086163,0.756395 -1.11e-4,0.46742 0.933961,0.886614 2.086163,0.936231 1.152012,0.04959 2.085788,-0.289063 2.085676,-0.756415 1.13e-4,-0.467343 -0.933664,-0.886493 -2.085676,-0.936211 z"
         sodipodi:nodetypes="ccccc" /><path
         id="path52969"
         style="fill:#c28140;fill-opacity:1;stroke:none;stroke-width:0.059372;stroke-linecap:round;stroke-linejoin:round;stroke-dasharray:none;stroke-opacity:1;stop-color:#000000"
         d="m 28.223021,8.2661343 c -1.152203,-0.04971 -2.086277,0.288965 -2.086163,0.756395 -1.1e-4,0.467419 0.933962,0.886613 2.086163,0.93623 1.152011,0.04959 2.085787,-0.289062 2.085676,-0.756414 1.13e-4,-0.467343 -0.933664,-0.886493 -2.085676,-0.936211 z"
         sodipodi:nodetypes="ccccc" /><path
         id="path52971"
         style="fill:#b37035;fill-opacity:1;stroke:none;stroke-width:0.059372;stroke-linecap:round;stroke-linejoin:round;stroke-dasharray:none;stroke-opacity:1;stop-color:#000000"
         d="m 28.223021,8.2661342 a 2.0882762,0.84529143 2.952188 0 0 -2.086163,0.7563947 2.0882762,0.84529143 2.952188 0 0 2.086163,0.9362308 2.0882762,0.84529143 2.952188 0 0 2.085676,-0.7564142 2.0882762,0.84529143 2.952188 0 0 -2.085676,-0.9362113 z m 0,0.1393043 a 1.7445096,0.70614172 2.952188 0 1 1.742292,0.7821063 1.7445096,0.70614172 2.952188 0 1 -1.742292,0.6319107 1.7445096,0.70614172 2.952188 0 1 -1.742776,-0.7821259 1.7445096,0.70614172 2.952188 0 1 1.742776,-0.6318911 z" /></g><path
       id="path43242"
       style="fill:#d45d5d;fill-opacity:1;stroke:#d45d5d;stroke-width:0.6;stroke-linecap:round;stroke-linejoin:round;stroke-opacity:1;stop-color:#000000"
       d="M 14.937754,3.376761 25.540253,2.815495 c 0.619548,-0.032797 1.132725,0.4996005 1.119883,1.1198825 L 26.09887,31.04499 c -0.01284,0.620281 -0.500291,1.151835 -1.119883,1.119882 L 14.095855,31.603606 c -0.619592,-0.03195 -1.139971,-0.499794 -1.119882,-1.119882 L 13.817872,4.4966435 c 0.02009,-0.6200897 0.500334,-1.0870854 1.119882,-1.1198825 z"
       sodipodi:nodetypes="sssssssss" /><path
       id="rect360"
       style="fill:#e6e6e6;stroke:#de8787;stroke-width:0.6;stroke-linecap:round;stroke-linejoin:round;stop-color:#000000"
       d="m 14.435985,2.9491637 10.602499,-0.561266 c 0.619548,-0.032797 1.132725,0.4996005 1.119883,1.1198825 L 25.597101,30.617391 c -0.01284,0.620281 -0.500291,1.151835 -1.119883,1.119882 L 13.594086,31.176007 c -0.619592,-0.03195 -1.139971,-0.499794 -1.119882,-1.119882 L 13.316103,4.0690462 c 0.02009,-0.6200897 0.500334,-1.0870854 1.119882,-1.1198825 z"
       sodipodi:nodetypes="sssssssss" /><path
       id="path52991"
       style="opacity:0.5;fill:#000000;fill-opacity:1;stroke:#000000;stroke-width:1;stroke-linecap:round;stroke-linejoin:round;stroke-opacity:1;filter:url(#filter52993);stop-color:#000000"
       d="m 24.554651,11.759034 c -0.234655,0.354285 -3.543545,4.255691 -4.535788,4.268985 -0.992243,0.01329 -3.838428,-3.79761 -4.067797,-4.175848 -0.22937,-0.378237 -0.08124,-4.1246038 0.150715,-4.4748125 0.231952,-0.350208 3.800059,-2.3328451 4.283605,-2.339324 0.483546,-0.00648 4.126906,1.8835211 4.31998,2.2019075 0.193075,0.3183872 0.08394,4.164805 -0.150715,4.519092 z"
       sodipodi:nodetypes="zzzzzzz" /><g
       id="g43266"
       transform="translate(1.5875,1.5875)"><rect
         style="fill:#ffffff;fill-opacity:1;stroke:#398c5a;stroke-width:0.200053;stroke-linecap:round;stroke-linejoin:round;stroke-dasharray:none;stroke-opacity:1;stop-color:#000000"
         id="rect16796"
         width="9.943696"
         height="2.7285175"
         x="12.644427"
         y="22.938622"
         rx="1.3108284"
         ry="1.314649"
         transform="matrix(0.99946835,0.03260384,0,1,0,0)" /><path
         id="path43244"
         style="font-weight:bold;font-size:2.66098px;font-family:'DejaVu Serif';-inkscape-font-specification:'DejaVu Serif Bold';fill:#398c5a;stroke:#398c5a;stroke-width:0.05;stroke-linecap:round;stroke-linejoin:round;stroke-dasharray:none;stroke-opacity:1"
         d="m 13.986743,24.150464 0.03514,0.510046 -0.42633,-0.328145 -0.127124,0.201021 0.469222,0.233578 -0.469222,0.205672 0.127124,0.205672 0.42633,-0.296623 -0.03514,0.504362 0.237712,0.0078 -0.03514,-0.506429 0.42633,0.324011 0.127641,-0.196887 -0.468188,-0.236161 0.468188,-0.203089 -0.127641,-0.209289 -0.42633,0.30024 0.03514,-0.50798 z m 1.391646,0.04496 0.03514,0.510564 -0.42633,-0.328146 -0.127124,0.201021 0.469222,0.233578 -0.469222,0.205672 0.127124,0.205672 0.42633,-0.296622 -0.03514,0.504362 0.237712,0.0078 -0.03514,-0.506946 0.426331,0.324528 0.127124,-0.196887 -0.467672,-0.236161 0.467672,-0.203089 -0.127124,-0.209806 -0.426331,0.300757 0.03514,-0.507979 z m 1.391647,0.04548 0.03514,0.510563 -0.426331,-0.328146 -0.127124,0.201022 0.468705,0.233577 -0.468705,0.205672 0.127124,0.205673 0.426331,-0.296623 -0.03514,0.503845 0.237711,0.0078 -0.03514,-0.506429 0.426331,0.324528 0.127124,-0.197404 -0.467672,-0.236162 0.467672,-0.202571 -0.127124,-0.209807 -0.426331,0.300757 0.03514,-0.508496 z m 1.391646,0.04547 0.03514,0.510563 -0.42633,-0.328145 -0.127124,0.201021 0.468705,0.233577 -0.468705,0.205673 0.127124,0.205155 0.42633,-0.296623 -0.03514,0.504362 0.237712,0.0078 -0.03514,-0.506429 0.42633,0.324528 0.127124,-0.197404 -0.467671,-0.236161 0.467671,-0.203089 -0.127124,-0.209289 -0.42633,0.300756 0.03514,-0.508496 z m 1.391646,0.04547 0.03462,0.510563 -0.425814,-0.328662 -0.127641,0.201538 0.469222,0.233578 -0.469222,0.205155 0.127641,0.205672 0.425814,-0.296622 -0.03462,0.504362 0.237712,0.0078 -0.03514,-0.506429 0.425814,0.324528 0.127641,-0.197404 -0.467672,-0.236161 0.467672,-0.203089 -0.127641,-0.209289 -0.425814,0.30024 0.03514,-0.507979 z m 1.39113,0.04547 0.03514,0.510564 -0.425814,-0.328663 -0.127641,0.201022 0.469222,0.234094 -0.469222,0.205155 0.127641,0.205673 0.425814,-0.296623 -0.03514,0.504362 0.238228,0.0078 -0.03514,-0.506429 0.425814,0.324528 0.127641,-0.197404 -0.467672,-0.236161 0.467672,-0.203088 -0.127641,-0.20929 -0.425814,0.30024 0.03514,-0.507979 z" /></g><path
       id="path16904"
       style="fill:#ffffff;fill-opacity:1;stroke:#3e9962;stroke-width:1;stroke-linecap:round;stroke-linejoin:round;stroke-opacity:1;stop-color:#000000"
       d="m 24.025484,11.229867 c -0.234655,0.354285 -3.543545,4.255691 -4.535788,4.268985 -0.992243,0.01329 -3.838428,-3.79761 -4.067797,-4.175848 -0.22937,-0.378237 -0.08124,-4.1246035 0.150715,-4.4748122 0.231952,-0.350208 3.800059,-2.3328451 4.283605,-2.339324 0.483546,-0.00648 4.126906,1.8835211 4.31998,2.2019075 0.193075,0.3183872 0.08394,4.1648047 -0.150715,4.5190917 z"
       sodipodi:nodetypes="zzzzzzz" /><path
       style="fill:#3e9962;fill-opacity:1;stroke:#72c794;stroke-width:0.1;stroke-linecap:round;stroke-linejoin:round;stroke-dasharray:none;stroke-opacity:1;stop-color:#000000"
       d="m 21.368018,7.8164588 0.77174,0.7249671 -2.829716,3.0635761 -1.61364,-1.8007287 0.678197,-0.6548097 0.865285,0.9822144 z"
       id="path17010" /><g
       id="g43282"
       transform="matrix(1.6206713,0,0,1.6203966,-15.707158,-13.112041)"
       style="stroke-width:0.617081"><ellipse
         style="fill:#bd8f5b;fill-opacity:1;stroke:#bd8f5b;stroke-width:0.0621783;stroke-linecap:round;stroke-linejoin:round;stroke-dasharray:none;stroke-opacity:1;stop-color:#000000"
         id="ellipse43277"
         cx="26.622126"
         cy="24.955664"
         rx="2.0807362"
         ry="2.0494416"
         transform="matrix(0.98492811,-0.17296419,0,1,0,0)" /><ellipse
         style="fill:#e3c08d;fill-opacity:1;stroke:#bd8f5b;stroke-width:0.0621783;stroke-linecap:round;stroke-linejoin:round;stroke-dasharray:none;stroke-opacity:1;stop-color:#000000"
         id="circle40821"
         cx="26.497564"
         cy="24.796108"
         rx="2.0807362"
         ry="2.0494416"
         transform="matrix(0.98492811,-0.17296419,0,1,0,0)" /><path
         id="path40823"
         style="fill:#e3c08d;fill-opacity:1;stroke:#bd8f5b;stroke-width:0.0617079;stroke-linecap:round;stroke-linejoin:round;stroke-dasharray:none;stroke-opacity:1;stop-color:#000000"
         d="m 26.098296,18.16331 a 1.877347,2.2372399 42.485798 0 0 -2.049576,2.40957 1.877347,2.2372399 42.485798 0 0 2.049576,1.689713 1.877347,2.2372399 42.485798 0 0 2.049097,-2.409486 1.877347,2.2372399 42.485798 0 0 -2.049097,-1.689797 z m 0,0.337374 a 1.5683029,1.8689511 42.485798 0 1 1.711734,1.411668 1.5683029,1.8689511 42.485798 0 1 -1.711734,2.012868 1.5683029,1.8689511 42.485798 0 1 -1.712212,-1.411585 1.5683029,1.8689511 42.485798 0 1 1.712212,-2.012951 z" /></g><path
       id="path53003"
       style="opacity:0.5;fill:#000000;stroke:#000000;stroke-width:0.146826;stroke-linecap:round;stroke-linejoin:round;filter:url(#filter53016);stop-color:#000000"
       d="m 4.9175097,12.219338 11.4603413,-0.01887 c 0.387188,-6.14e-4 0.68833,0.318844 0.675988,0.705723 l -0.229329,7.188981 c -0.01234,0.386878 -0.334582,0.696593 -0.72173,0.690911 L 4.6424418,20.617864 c -0.387148,-0.0057 -0.688659,-0.318855 -0.675988,-0.705722 l 0.229325,-7.001893 c 0.01267,-0.386868 0.334542,-0.690273 0.7217309,-0.690911 z"
       sodipodi:nodetypes="sssssssss"
       transform="matrix(1.3608656,0,0,1.3634457,-2.1187406,-3.9364684)" /><g
       id="g53014"
       transform="matrix(1.3608656,0,0,1.3634457,-2.1187406,-3.9364684)"
       style="stroke-width:0.734131"><path
         id="rect461"
         style="fill:#4c6fdc;stroke:#b1b1e4;stroke-width:0.146826;stroke-linecap:round;stroke-linejoin:round;stop-color:#000000"
         d="m 4.3883427,11.690171 11.4603413,-0.01887 c 0.387188,-6.14e-4 0.68833,0.318844 0.675988,0.705723 l -0.229329,7.188981 c -0.01234,0.386878 -0.334582,0.696593 -0.72173,0.690911 L 4.113275,20.088697 C 3.726127,20.083015 3.4246165,19.769842 3.4372872,19.382975 l 0.2293253,-7.001893 c 0.012671,-0.386868 0.3345411,-0.690273 0.7217302,-0.690911 z"
         sodipodi:nodetypes="sssssssss" /><rect
         style="fill:#eaa8c2;fill-opacity:1;stroke:#cbb4e7;stroke-width:0.0734219;stroke-linecap:round;stroke-linejoin:round;stroke-dasharray:none;stroke-opacity:1;stop-color:#000000"
         id="rect19274"
         width="1.6928631"
         height="1.693137"
         x="5.2805514"
         y="12.684469"
         rx="0.10044064"
         ry="0.10022105"
         transform="matrix(0.99994385,0.01059658,-0.03273436,0.99946409,0,0)" /><rect
         style="fill:#e5ab79;fill-opacity:1;stroke:#b696a9;stroke-width:0.0734219;stroke-linecap:round;stroke-linejoin:round;stroke-dasharray:none;stroke-opacity:1;stop-color:#000000"
         id="rect24520"
         width="9.7200394"
         height="0.88324732"
         x="5.3509655"
         y="16.244158"
         rx="0.10044064"
         ry="0.10022105"
         transform="matrix(0.99994385,0.01059658,-0.03273436,0.99946409,0,0)" /><rect
         style="fill:#e5ab79;fill-opacity:1;stroke:#b696a9;stroke-width:0.0734219;stroke-linecap:round;stroke-linejoin:round;stroke-dasharray:none;stroke-opacity:1;stop-color:#000000"
         id="rect33293"
         width="3.0307252"
         height="0.88324821"
         x="5.3509655"
         y="18.051943"
         rx="0.10044064"
         ry="0.10022105"
         transform="matrix(0.99994385,0.01059658,-0.03273436,0.99946409,0,0)" /></g><g
       id="g52981"
       transform="matrix(0.95042456,-0.26493832,-0.1078152,1.4321592,-13.354995,2.1112641)"
       style="stroke-width:0.866265"><ellipse
         style="fill:#bd8f5b;fill-opacity:1;stroke:#bd8f5b;stroke-width:0.0872868;stroke-linecap:round;stroke-linejoin:round;stroke-dasharray:none;stroke-opacity:1;stop-color:#000000"
         id="ellipse52975"
         cx="26.891798"
         cy="25.042782"
         rx="2.0807362"
         ry="2.0494416"
         transform="matrix(0.98492811,-0.17296419,0,1,0,0)" /><ellipse
         style="fill:#e3c08d;fill-opacity:1;stroke:#bd8f5b;stroke-width:0.0872868;stroke-linecap:round;stroke-linejoin:round;stroke-dasharray:none;stroke-opacity:1;stop-color:#000000"
         id="ellipse52977"
         cx="26.497564"
         cy="24.796108"
         rx="2.0807362"
         ry="2.0494416"
         transform="matrix(0.98492811,-0.17296419,0,1,0,0)" /><path
         id="path52979"
         style="fill:#e3c08d;fill-opacity:1;stroke:#bd8f5b;stroke-width:0.0866265;stroke-linecap:round;stroke-linejoin:round;stroke-dasharray:none;stroke-opacity:1;stop-color:#000000"
         d="m 26.098296,18.16331 a 1.877347,2.2372399 42.485798 0 0 -2.049576,2.40957 1.877347,2.2372399 42.485798 0 0 2.049576,1.689713 1.877347,2.2372399 42.485798 0 0 2.049097,-2.409486 1.877347,2.2372399 42.485798 0 0 -2.049097,-1.689797 z m 0,0.337374 a 1.5683029,1.8689511 42.485798 0 1 1.711734,1.411668 1.5683029,1.8689511 42.485798 0 1 -1.711734,2.012868 1.5683029,1.8689511 42.485798 0 1 -1.712212,-1.411585 1.5683029,1.8689511 42.485798 0 1 1.712212,-2.012951 z" /></g></g></svg>
