<?xml version="1.0" encoding="UTF-8" standalone="no"?>
<!-- Generator: Adobe Illustrator 16.0.0, SVG Export Plug-In . SVG Version: 6.00 Build 0)  -->

<svg
   version="1.1"
   id="Capa_1"
   x="0px"
   y="0px"
   width="512px"
   height="512px"
   viewBox="0 0 512 512"
   style="enable-background:new 0 0 512 512;"
   xml:space="preserve"
   sodipodi:docname="icon_uah.svg"
   inkscape:version="1.2.2 (b0a8486541, 2022-12-01)"
   xmlns:inkscape="http://www.inkscape.org/namespaces/inkscape"
   xmlns:sodipodi="http://sodipodi.sourceforge.net/DTD/sodipodi-0.dtd"
   xmlns="http://www.w3.org/2000/svg"
   xmlns:svg="http://www.w3.org/2000/svg"><defs
   id="defs39">
	
</defs><sodipodi:namedview
   id="namedview37"
   pagecolor="#ffffff"
   bordercolor="#666666"
   borderopacity="1.0"
   inkscape:pageshadow="2"
   inkscape:pageopacity="0.0"
   inkscape:pagecheckerboard="0"
   showgrid="false"
   inkscape:zoom="0.039306641"
   inkscape:cx="-2963.8758"
   inkscape:cy="38.161491"
   inkscape:window-width="1852"
   inkscape:window-height="1052"
   inkscape:window-x="68"
   inkscape:window-y="0"
   inkscape:window-maximized="1"
   inkscape:current-layer="layer2"
   inkscape:showpageshadow="2"
   inkscape:deskcolor="#d1d1d1" />

<g
   id="g6">
</g>
<g
   id="g8">
</g>
<g
   id="g10">
</g>
<g
   id="g12">
</g>
<g
   id="g14">
</g>
<g
   id="g16">
</g>
<g
   id="g18">
</g>
<g
   id="g20">
</g>
<g
   id="g22">
</g>
<g
   id="g24">
</g>
<g
   id="g26">
</g>
<g
   id="g28">
</g>
<g
   id="g30">
</g>
<g
   id="g32">
</g>
<g
   id="g34">
</g>
<g
   inkscape:groupmode="layer"
   id="layer1"
   inkscape:label="Layer 1"
   style="display:inline"><path
     d="M 256,32 C 379.5,32 480,132.5 480,256 480,379.5 379.5,480 256,480 132.5,480 32,379.5 32,256 32,132.5 132.5,32 256,32 M 256,0 C 114.625,0 0,114.625 0,256 0,397.375 114.625,512 256,512 397.375,512 512,397.375 512,256 512,114.625 397.375,0 256,0 Z"
     id="path2"
     sodipodi:nodetypes="cssscsssss"
     style="display:none" /><path
     id="path1307"
     style="display:inline;fill:#aa8800;stroke:none;stroke-width:0.999998;stroke-linecap:butt;stroke-linejoin:miter;paint-order:stroke fill markers;stop-color:#000000;font-variation-settings:normal;opacity:1;vector-effect:none;fill-opacity:1;stroke-miterlimit:4;stroke-dasharray:none;stroke-dashoffset:0;stroke-opacity:1;-inkscape-stroke:none;stop-opacity:1"
     d="M 256,-3.0000001e-6 A 255.99998,255.99998 0 0 0 -9.9999998e-7,256 255.99998,255.99998 0 0 0 256,512 255.99998,255.99998 0 0 0 512,256 255.99998,255.99998 0 0 0 256,-3.0000001e-6 Z M 255.76172,30.759763 a 225,225 0 0 1 225,224.999997 225,225 0 0 1 -225,225 225,225 0 0 1 -225.000002,-225 A 225,225 0 0 1 255.76172,30.759763 Z" /></g><g
   inkscape:groupmode="layer"
   id="layer2"
   inkscape:label="Layer 2"
   style="display:inline"><g
     aria-label="₴"
     transform="scale(0.94026356,1.0635316)"
     id="text5007"
     style="font-size:379.618px;line-height:1.25;display:inline;stroke-width:0.999998"><path
       d="m 221.24954,280.26907 q -3.15113,2.22432 -5.37545,4.44865 -10.38018,10.7509 -10.38018,30.76982 0,25.02364 17.42387,38.18423 17.23851,12.97522 50.23266,12.97522 35.40383,0 52.8277,-15.19954 17.23851,-15.01419 18.16531,-46.71081 h 21.31645 v 63.02252 q -24.46757,9.45338 -48.00834,14.08738 -23.72612,4.63401 -46.52545,4.63401 -50.97409,0 -76.73918,-20.38964 -25.76509,-20.38964 -25.76509,-60.61283 0,-13.90203 3.52184,-25.20901 h -31.69662 v -19.6482 h 42.26216 q 0.9268,-1.11216 1.85361,-2.22432 15.75563,-17.42388 53.7545,-28.73086 L 272.409,219.47087 q 6.67297,-2.03896 12.78986,-4.07793 h -146.8054 v -19.64819 h 184.06283 q 10.19482,-11.12163 10.19482,-29.84302 0,-22.79933 -15.19955,-34.66239 -15.38491,-12.04842 -44.67184,-12.04842 -33.55023,0 -49.86194,13.16058 -16.49707,13.34595 -19.6482,42.26216 h -20.94572 v -58.94459 q 25.95045,-7.97049 48.93514,-12.23378 22.98468,-4.07793 42.26216,-4.07793 45.22793,0 70.25157,19.46284 25.02365,19.46283 25.02365,54.6813 0,12.04843 -2.40968,22.24325 h 37.81351 v 19.64819 h -45.96937 q -2.40968,3.89257 -5.56081,7.41442 -16.49707,18.16531 -55.97883,30.02838 l -25.95045,7.78513 h 135.31306 v 19.6482 z"
       style="font-family:'DejaVu Serif';-inkscape-font-specification:'DejaVu Serif';font-variation-settings:normal;opacity:1;vector-effect:none;fill:#aa8800;fill-opacity:1;stroke-width:0.999998;stroke-linecap:butt;stroke-linejoin:miter;stroke-miterlimit:4;stroke-dasharray:none;stroke-dashoffset:0;stroke-opacity:1;-inkscape-stroke:none;stop-color:#000000;stop-opacity:1"
       id="path18909" /><g
       id="g4"
       transform="matrix(1.0635316,0,0,0.94026355,-664.59495,-257.15332)">
	
</g></g></g></svg>
