<?xml version="1.0" encoding="UTF-8" standalone="no"?>
<!-- Generator: Adobe Illustrator 16.0.0, SVG Export Plug-In . SVG Version: 6.00 Build 0)  -->

<svg
   version="1.1"
   id="Capa_1"
   x="0px"
   y="0px"
   width="512px"
   height="512px"
   viewBox="0 0 512 512"
   style="enable-background:new 0 0 512 512;"
   xml:space="preserve"
   sodipodi:docname="icon_ok.svg"
   inkscape:version="1.2.2 (b0a8486541, 2022-12-01)"
   xmlns:inkscape="http://www.inkscape.org/namespaces/inkscape"
   xmlns:sodipodi="http://sodipodi.sourceforge.net/DTD/sodipodi-0.dtd"
   xmlns="http://www.w3.org/2000/svg"
   xmlns:svg="http://www.w3.org/2000/svg"><defs
   id="defs39">
	
</defs><sodipodi:namedview
   id="namedview37"
   pagecolor="#ffffff"
   bordercolor="#000000"
   borderopacity="0.25"
   inkscape:showpageshadow="2"
   inkscape:pageopacity="0.0"
   inkscape:pagecheckerboard="0"
   inkscape:deskcolor="#d1d1d1"
   showgrid="false"
   inkscape:zoom="0.42529297"
   inkscape:cx="-500.83123"
   inkscape:cy="-5.8783008"
   inkscape:window-width="1852"
   inkscape:window-height="1052"
   inkscape:window-x="68"
   inkscape:window-y="0"
   inkscape:window-maximized="1"
   inkscape:current-layer="layer1" />
















<g
   inkscape:groupmode="layer"
   id="layer1"
   inkscape:label="Layer 1"><path
     d="M 256,32 C 379.5,32 480,132.5 480,256 480,379.5 379.5,480 256,480 132.5,480 32,379.5 32,256 32,132.5 132.5,32 256,32 M 256,0 C 114.625,0 0,114.625 0,256 0,397.375 114.625,512 256,512 397.375,512 512,397.375 512,256 512,114.625 397.375,0 256,0 Z"
     id="path2"
     sodipodi:nodetypes="cssscsssss"
     style="enable-background:new 0 0 512 512;fill:#008000" /><path
     style="fill:#008000;stroke:#008000;stroke-width:6.839;stroke-linecap:round;stroke-linejoin:round;stroke-dasharray:none;paint-order:stroke fill markers;stop-color:#000000"
     d="M 86.243912,199.25391 C 146.95327,266.37102 201.34857,343.91816 251.82796,419.5615 309.0314,326.83926 364.77846,224.45929 425.36997,143.59701 365.19551,183.16049 297.43933,233.75365 246.67016,288.66279 198.99539,250.43949 143.56129,214.93769 86.243912,199.25391 Z"
     id="path519"
     sodipodi:nodetypes="ccccc" /></g></svg>
