<?xml version="1.0" encoding="UTF-8" standalone="no"?>
<!-- Generator: Adobe Illustrator 16.0.0, SVG Export Plug-In . SVG Version: 6.00 Build 0)  -->

<svg
   version="1.1"
   id="Capa_1"
   x="0px"
   y="0px"
   width="512px"
   height="512px"
   viewBox="0 0 512 512"
   style="enable-background:new 0 0 512 512;"
   xml:space="preserve"
   sodipodi:docname="icon_mik_abon_net_off.svg"
   inkscape:version="1.2.2 (b0a8486541, 2022-12-01)"
   xmlns:inkscape="http://www.inkscape.org/namespaces/inkscape"
   xmlns:sodipodi="http://sodipodi.sourceforge.net/DTD/sodipodi-0.dtd"
   xmlns="http://www.w3.org/2000/svg"
   xmlns:svg="http://www.w3.org/2000/svg"><defs
   id="defs304" /><sodipodi:namedview
   id="namedview302"
   pagecolor="#ffffff"
   bordercolor="#000000"
   borderopacity="0.25"
   inkscape:showpageshadow="2"
   inkscape:pageopacity="0.0"
   inkscape:pagecheckerboard="0"
   inkscape:deskcolor="#d1d1d1"
   showgrid="false"
   inkscape:zoom="0.60145509"
   inkscape:cx="169.58872"
   inkscape:cy="115.5531"
   inkscape:window-width="1852"
   inkscape:window-height="1052"
   inkscape:window-x="68"
   inkscape:window-y="0"
   inkscape:window-maximized="1"
   inkscape:current-layer="layer1" />
















<g
   inkscape:groupmode="layer"
   id="layer1"
   inkscape:label="Layer 1"><circle
     style="font-variation-settings:normal;opacity:1;vector-effect:none;fill:#a3ffa3;fill-opacity:1;stroke:#000000;stroke-width:15;stroke-linecap:round;stroke-linejoin:round;stroke-miterlimit:4;stroke-dasharray:none;stroke-dashoffset:0;stroke-opacity:1;-inkscape-stroke:none;paint-order:markers fill stroke;stop-color:#000000;stop-opacity:1"
     id="path648"
     cx="256"
     cy="256"
     r="245.71298" /><path
     id="path587"
     style="font-weight:bold;font-size:196.335px;-inkscape-font-specification:'sans-serif Bold';font-variation-settings:normal;opacity:0.99;vector-effect:none;fill:#000000;fill-opacity:1;stroke:none;stroke-width:20;stroke-linecap:round;stroke-linejoin:round;stroke-miterlimit:4;stroke-dasharray:none;stroke-dashoffset:0;stroke-opacity:1;-inkscape-stroke:none;paint-order:stroke fill markers;stop-color:#000000;stop-opacity:1"
     d="M 362.53342,453.07287 H 334.63217 V 306.09349 h 76.58798 v 25.52583 h -48.68673 v 37.87704 h 45.31611 v 25.52583 h -45.31611 z m -100.80389,0 H 233.82828 V 306.09349 h 76.58799 v 25.52583 h -48.68674 v 37.87704 h 45.31612 v 25.52583 h -45.31612 z m -51.61515,-73.69555 q 0,22.84974 -6.92849,39.93558 -6.74124,16.87998 -20.78549,26.34925 -14.04426,9.46926 -35.95328,9.46926 -21.72178,0 -35.95328,-9.46926 -14.04426,-9.46927 -20.97275,-26.5551 -6.741243,-17.08585 -6.741243,-39.93557 0,-22.84974 6.741243,-39.72973 6.92849,-16.87998 20.97275,-26.14338 14.2315,-9.46926 36.14053,-9.46926 21.72177,0 35.76603,9.46926 14.04425,9.2634 20.78549,26.34924 6.92849,16.87999 6.92849,39.72971 z m -97.56072,0 q 0,23.05559 8.05204,36.43607 8.05203,13.17462 25.84142,13.17462 18.16389,0 26.02867,-13.17462 7.86478,-13.38048 7.86478,-36.43607 0,-23.26143 -7.86478,-36.43605 -7.86478,-13.17462 -25.84142,-13.17462 -17.97664,0 -26.02867,13.17462 -8.05204,13.17462 -8.05204,36.43605 z M 390.3395,259.20723 H 361.19056 V 134.42751 h -37.44962 v -26.7385 h 104.04819 v 26.7385 H 390.3395 Z m -87.84855,0 H 223.15178 V 107.68901 h 79.33917 v 26.31409 h -50.19023 v 33.31702 h 46.71551 v 26.3141 h -46.71551 v 39.04671 h 50.19023 z m -108.08619,0 H 157.34121 L 97.30599,144.61362 h -0.77216 q 0.38608,10.82273 0.77216,21.64545 0.57912,10.82273 0.9652,21.64546 v 71.3027 H 72.210878 V 107.68901 h 36.870502 l 59.84219,113.53255 h 0.57912 q -0.19304,-10.61051 -0.57912,-21.00883 -0.38607,-10.3983 -0.77215,-20.79661 v -71.72711 h 26.25334 z" /><path
     id="path585"
     style="font-weight:bold;font-size:196.335px;-inkscape-font-specification:'sans-serif Bold';font-variation-settings:normal;opacity:1;vector-effect:none;fill:#ffffff;fill-opacity:1;stroke:none;stroke-width:20;stroke-linecap:round;stroke-linejoin:round;stroke-miterlimit:4;stroke-dasharray:none;stroke-dashoffset:0;stroke-opacity:1;-inkscape-stroke:none;paint-order:stroke fill markers;stop-color:#000000;stop-opacity:1"
     d="M 374.53342,441.07287 H 346.63217 V 294.09349 h 76.58798 v 25.52583 h -48.68673 v 37.87704 h 45.31611 v 25.52583 h -45.31611 z m -100.80389,0 H 245.82828 V 294.09349 h 76.58799 v 25.52583 h -48.68674 v 37.87704 h 45.31612 v 25.52583 h -45.31612 z m -51.61515,-73.69555 q 0,22.84974 -6.92849,39.93558 -6.74124,16.87998 -20.78549,26.34925 -14.04426,9.46926 -35.95328,9.46926 -21.72178,0 -35.95328,-9.46926 -14.04426,-9.46927 -20.97275,-26.5551 -6.741243,-17.08585 -6.741243,-39.93557 0,-22.84974 6.741243,-39.72973 6.92849,-16.87998 20.97275,-26.14338 14.2315,-9.46926 36.14053,-9.46926 21.72177,0 35.76603,9.46926 14.04425,9.2634 20.78549,26.34924 6.92849,16.87999 6.92849,39.72971 z m -97.56072,0 q 0,23.05559 8.05204,36.43607 8.05203,13.17462 25.84142,13.17462 18.16389,0 26.02867,-13.17462 7.86478,-13.38048 7.86478,-36.43607 0,-23.26143 -7.86478,-36.43605 -7.86478,-13.17462 -25.84142,-13.17462 -17.97664,0 -26.02867,13.17462 -8.05204,13.17462 -8.05204,36.43605 z M 402.3395,247.20723 H 373.19056 V 122.42751 h -37.44962 v -26.7385 h 104.04819 v 26.7385 H 402.3395 Z m -87.84855,0 H 235.15178 V 95.68901 h 79.33917 v 26.31409 h -50.19023 v 33.31702 h 46.71551 v 26.3141 h -46.71551 v 39.04671 h 50.19023 z m -108.08619,0 H 169.34121 L 109.30599,132.61362 h -0.77216 q 0.38608,10.82273 0.77216,21.64545 0.57912,10.82273 0.9652,21.64546 v 71.3027 H 84.210878 V 95.68901 h 36.870502 l 59.84219,113.53255 h 0.57912 q -0.19304,-10.61051 -0.57912,-21.00883 -0.38607,-10.3983 -0.77215,-20.79661 V 95.68901 h 26.25334 z" /><path
     id="path772"
     style="font-weight:bold;font-size:196.335px;-inkscape-font-specification:'sans-serif Bold';vector-effect:none;fill:#008000;stroke-width:20.00004224;stroke-linecap:round;stroke-linejoin:round;paint-order:stroke fill markers;stop-color:#000000;font-variation-settings:normal;opacity:1;fill-opacity:1;stroke-miterlimit:4;stroke-dasharray:none;stroke-dashoffset:0;stroke-opacity:1;-inkscape-stroke:none;stop-opacity:1;stroke:none"
     d="M 368.53342,447.07287 H 340.63217 V 300.09349 h 76.58798 v 25.52583 h -48.68673 v 37.87704 h 45.31611 v 25.52583 h -45.31611 z m -100.80389,0 H 239.82828 V 300.09349 h 76.58799 v 25.52583 h -48.68674 v 37.87704 h 45.31612 v 25.52583 h -45.31612 z m -51.61515,-73.69555 q 0,22.84974 -6.92849,39.93558 -6.74124,16.87998 -20.78549,26.34925 -14.04426,9.46926 -35.95328,9.46926 -21.72178,0 -35.95328,-9.46926 -14.04426,-9.46927 -20.972749,-26.5551 -6.741244,-17.08585 -6.741244,-39.93557 0,-22.84974 6.741244,-39.72973 6.928489,-16.87998 20.972749,-26.14338 14.2315,-9.46926 36.14053,-9.46926 21.72177,0 35.76603,9.46926 14.04425,9.2634 20.78549,26.34924 6.92849,16.87999 6.92849,39.72971 z m -97.56072,0 q 0,23.05559 8.05204,36.43607 8.05203,13.17462 25.84142,13.17462 18.16389,0 26.02867,-13.17462 7.86478,-13.38048 7.86478,-36.43607 0,-23.26143 -7.86478,-36.43605 -7.86478,-13.17462 -25.84142,-13.17462 -17.97664,0 -26.02867,13.17462 -8.05204,13.17462 -8.05204,36.43605 z M 396.3395,253.20723 H 367.19056 V 128.42751 h -37.44962 v -26.7385 h 104.04819 v 26.7385 H 396.3395 Z m -87.84855,0 H 229.15178 V 101.68901 h 79.33917 v 26.31409 h -50.19023 v 33.31702 h 46.71551 v 26.3141 h -46.71551 v 39.04671 h 50.19023 z m -108.08619,0 H 163.34121 L 103.30599,138.61362 h -0.77216 q 0.38608,10.82273 0.77216,21.64545 0.57912,10.82273 0.9652,21.64546 v 71.3027 H 78.210878 V 101.68901 h 36.870502 l 59.84219,113.53255 h 0.57912 q -0.19304,-10.61051 -0.57912,-21.00883 -0.38607,-10.3983 -0.77215,-20.79661 v -71.72711 h 26.25334 z" /></g></svg>
