<?xml version="1.0" encoding="UTF-8" standalone="no"?>
<!-- Generator: Adobe Illustrator 16.0.0, SVG Export Plug-In . SVG Version: 6.00 Build 0)  -->

<svg
   version="1.1"
   id="Capa_1"
   x="0px"
   y="0px"
   width="512px"
   height="512px"
   viewBox="0 0 512 512"
   style="enable-background:new 0 0 512 512;"
   xml:space="preserve"
   sodipodi:docname="icon_ppp_privat24.svg"
   inkscape:version="1.2.2 (b0a8486541, 2022-12-01)"
   xmlns:inkscape="http://www.inkscape.org/namespaces/inkscape"
   xmlns:sodipodi="http://sodipodi.sourceforge.net/DTD/sodipodi-0.dtd"
   xmlns="http://www.w3.org/2000/svg"
   xmlns:svg="http://www.w3.org/2000/svg"><defs
   id="defs39" /><sodipodi:namedview
   id="namedview37"
   pagecolor="#ffffff"
   bordercolor="#000000"
   borderopacity="0.25"
   inkscape:showpageshadow="2"
   inkscape:pageopacity="0.0"
   inkscape:pagecheckerboard="0"
   inkscape:deskcolor="#d1d1d1"
   showgrid="false"
   inkscape:zoom="0.60145512"
   inkscape:cx="71.493281"
   inkscape:cy="132.17944"
   inkscape:window-width="1852"
   inkscape:window-height="1052"
   inkscape:window-x="68"
   inkscape:window-y="0"
   inkscape:window-maximized="1"
   inkscape:current-layer="g4" />
<g
   id="g4">
	
<path
   style="color:#000000;fill:#f2f2f2;stroke-linecap:round;stroke-linejoin:round;-inkscape-stroke:none"
   d="m 66.13477,120.75 h 379.73046 c 5.85631,0 10.04102,4.18471 10.04102,10.04102 v 250.41796 c 0,5.85631 -4.18471,10.04102 -10.04102,10.04102 H 66.13477 c -5.85631,0 -10.04102,-4.18471 -10.04102,-10.04102 V 130.79102 c 0,-5.85631 4.18471,-10.04102 10.04102,-10.04102 z"
   id="path300" /><path
   style="color:#000000;fill:#aa8800;stroke-linecap:round;stroke-linejoin:round;-inkscape-stroke:none"
   d="m 66.134766,86.75 c -24.104179,0 -44.041016,19.93684 -44.041016,44.04102 v 250.41796 c 0,24.10418 19.936837,44.04102 44.041016,44.04102 H 445.86523 c 24.10418,0 44.04102,-19.93684 44.04102,-44.04102 V 130.79102 c 0,-24.10418 -19.93684,-44.04102 -44.04102,-44.04102 z m 0,34 H 445.86523 c 5.85631,0 10.04102,4.18471 10.04102,10.04102 v 250.41796 c 0,5.85631 -4.18471,10.04102 -10.04102,10.04102 H 66.134766 c -5.856301,0 -10.041016,-4.18471 -10.041016,-10.04102 V 130.79102 c 0,-5.85631 4.184715,-10.04102 10.041016,-10.04102 z"
   id="rect374" /><rect
   style="fill:#aa8800;fill-opacity:1;stroke:none;stroke-width:34;stroke-linecap:round;stroke-linejoin:round;stroke-opacity:1;stop-color:#000000"
   id="rect1139"
   width="44.03167"
   height="25.349768"
   x="322.05777"
   y="291.21295"
   rx="0"
   ry="0" /><rect
   style="fill:#aa8800;fill-opacity:1;stroke:none;stroke-width:34;stroke-linecap:round;stroke-linejoin:round;stroke-opacity:1;stop-color:#000000"
   id="rect1141"
   width="44.03167"
   height="25.349768"
   x="385.01749"
   y="291.21295"
   rx="0"
   ry="0" /><rect
   style="fill:#aa8800;fill-opacity:1;stroke:none;stroke-width:34;stroke-linecap:round;stroke-linejoin:round;stroke-opacity:1;stop-color:#000000"
   id="rect1143"
   width="107.43983"
   height="25.349768"
   x="322.01773"
   y="337.06369"
   rx="0"
   ry="0" /><g
   id="g5856"
   transform="matrix(1.6546145,0,0,1.6546145,-422.15934,-100.02118)"
   style="stroke-width:0.604371"><path
     id="path415"
     style="fill:#28701e;fill-opacity:1;stroke-width:20.5485;stroke-linecap:round;stroke-linejoin:round;stop-color:#000000"
     d="m 329.40603,192.60652 c -8.14724,0.0552 -16.21388,1.60205 -23.79275,4.56237 v 21.98216 c 4.03787,-1.02836 8.18539,-1.57533 12.35437,-1.62928 32.57192,-1.63039 53.03732,18.69423 52.33262,51.80972 -0.006,3.52364 -0.37557,7.03745 -1.10222,10.48687 h 22.48148 c 2.50486,-7.00453 3.78568,-14.38042 3.78746,-21.81096 8e-5,-36.11994 -29.57647,-65.40097 -66.06096,-65.40088 z"
     sodipodi:nodetypes="ccccccccc" /><path
     id="path420"
     style="fill:#28701e;fill-opacity:1;stroke:none;stroke-width:20.5486;stroke-linecap:round;stroke-linejoin:round;stroke-opacity:1;stop-color:#000000"
     d="m 305.61328,149.81836 v 49.21289 c 7.58954,-2.44363 15.82905,-3.75002 24.45313,-3.75 0.66036,0.43353 1.21698,0.81444 1.86328,1.24023 v -20.70312 h 77.68359 v 77.68359 h -21.43359 c 0.59517,1.20848 1.1914,2.40101 1.78125,3.67383 2e-5,7.94198 -1.01492,15.55895 -2.95508,22.64258 h 48.60742 v -130 z"
     sodipodi:nodetypes="ccccccccccccc" /><rect
     style="fill:#000000;fill-opacity:1;stroke:none;stroke-width:20.5485;stroke-linecap:round;stroke-linejoin:round;stroke-opacity:1;stop-color:#000000"
     id="rect5851"
     width="50"
     height="50"
     x="305.61328"
     y="229.81836"
     rx="0"
     ry="0" /></g></g>















</svg>
