<?xml version="1.0" encoding="UTF-8" standalone="no"?>
<!-- Created with Inkscape (http://www.inkscape.org/) -->

<svg
   width="63.882999mm"
   height="63.882999mm"
   viewBox="0 0 63.882999 63.882999"
   version="1.1"
   id="svg5"
   inkscape:version="1.2.2 (b0a8486541, 2022-12-01)"
   sodipodi:docname="icon_email.svg"
   xmlns:inkscape="http://www.inkscape.org/namespaces/inkscape"
   xmlns:sodipodi="http://sodipodi.sourceforge.net/DTD/sodipodi-0.dtd"
   xmlns="http://www.w3.org/2000/svg"
   xmlns:svg="http://www.w3.org/2000/svg">
  <sodipodi:namedview
     id="namedview7"
     pagecolor="#ffffff"
     bordercolor="#666666"
     borderopacity="1.0"
     inkscape:pageshadow="2"
     inkscape:pageopacity="0.0"
     inkscape:pagecheckerboard="true"
     inkscape:document-units="mm"
     showgrid="false"
     inkscape:zoom="1.1224747"
     inkscape:cx="172.38696"
     inkscape:cy="124.27897"
     inkscape:window-width="1852"
     inkscape:window-height="1052"
     inkscape:window-x="68"
     inkscape:window-y="0"
     inkscape:window-maximized="1"
     inkscape:current-layer="layer2"
     inkscape:snap-global="false"
     width="63.883mm"
     inkscape:showpageshadow="2"
     inkscape:deskcolor="#d1d1d1" />
  <defs
     id="defs2" />
  <g
     inkscape:groupmode="layer"
     id="layer2"
     inkscape:label="Слой 2">
    <g
       aria-label=""
       transform="matrix(2.1598973,0,0,2.1577885,-36.549083,-36.876496)"
       id="text2414"
       style="font-size:29.7909px;opacity:1;fill:#ffffff;stroke:#ffffff;stroke-width:0.324247;stroke-linecap:round;stroke-linejoin:round">
      <path
         d="m 35.192501,29.140484 c 0,3.424623 -2.327414,7.248232 -5.668916,7.248232 -2.16117,0 -3.391374,-1.413073 -3.391374,-3.890106 0,-4.438711 2.95914,-7.181735 5.718788,-7.181735 2.094673,0 3.341502,1.429697 3.341502,3.823609 z m 9.376153,2.01155 c 0,-7.630593 -5.136935,-12.767528 -12.767528,-12.767528 -7.032115,0 -12.767528,5.735413 -12.767528,12.767528 0,7.032116 5.735413,12.767529 12.767528,12.767529 2.942516,0 5.818535,-1.030712 8.079452,-2.876019 0.11637,-0.09975 0.182868,-0.232742 0.199492,-0.365737 0.01662,-0.149619 -0.03325,-0.282614 -0.11637,-0.398985 l -0.6816,-0.814595 c -0.182868,-0.232741 -0.515356,-0.26599 -0.748098,-0.0665 -1.89518,1.546068 -4.289091,2.393911 -6.732876,2.393911 -5.868408,0 -10.639607,-4.771198 -10.639607,-10.639607 0,-5.868408 4.771199,-10.639607 10.639607,-10.639607 6.466886,0 10.639607,4.172721 10.639607,10.639607 0,4.588331 -3.657365,5.053814 -4.787823,5.087062 -0.6816,0 -0.94759,-0.182868 -0.94759,-1.080585 0,-0.232741 0.01662,-0.482107 0.08312,-0.79797 l 1.994926,-10.207373 c 0.01662,-0.08312 0,-0.216117 -0.04987,-0.26599 -0.04987,-0.0665 -0.132995,-0.182868 -0.216117,-0.182868 h -1.961677 c -0.116371,0 -0.232742,0.166243 -0.249366,0.299238 l -0.182868,0.930966 -0.03325,0.315863 c -0.83122,-1.413072 -2.393912,-2.244292 -4.338965,-2.244292 -4.488584,0 -8.162573,4.305716 -8.162573,9.608895 0,3.856858 2.044799,6.067901 5.619042,6.067901 2.244292,0 4.039726,-1.263453 5.070438,-2.560155 0.04987,0.548604 0.232741,1.014087 0.548604,1.379824 0.515356,0.581853 1.329951,0.881092 2.360663,0.881092 0.232742,0 0.315864,-0.01662 0.531981,-0.01662 3.158633,-0.09975 6.849246,-2.0448 6.849246,-7.214984 z"
         style="font-family:wasy10;-inkscape-font-specification:wasy10;stroke-width:0.324247"
         id="path2419" />
    </g>
    <g
       aria-label=""
       transform="matrix(2.1598973,0,0,2.1577885,-37.215783,-36.876496)"
       id="text296"
       style="font-size:29.7909px;opacity:1;stroke:#000000;stroke-width:0.463211;stroke-linecap:round;stroke-linejoin:round">
      <path
         d="m 35.192501,30.373157 c 0,3.424624 -2.327414,7.248233 -5.668916,7.248233 -2.16117,0 -3.391374,-1.413073 -3.391374,-3.890107 0,-4.438711 2.95914,-7.181734 5.718788,-7.181734 2.094673,0 3.341502,1.429697 3.341502,3.823608 z m 9.376153,2.011551 c 0,-7.630593 -5.136935,-12.767528 -12.767528,-12.767528 -7.032115,0 -12.767528,5.735413 -12.767528,12.767528 0,7.032115 5.735413,12.767528 12.767528,12.767528 2.942516,0 5.818535,-1.030712 8.079452,-2.876018 0.11637,-0.09975 0.182868,-0.232742 0.199492,-0.365737 0.01662,-0.149619 -0.03325,-0.282615 -0.11637,-0.398985 l -0.6816,-0.814595 c -0.182868,-0.232742 -0.515356,-0.26599 -0.748098,-0.0665 -1.89518,1.546068 -4.289091,2.393912 -6.732876,2.393912 -5.868408,0 -10.639607,-4.771199 -10.639607,-10.639607 0,-5.868408 4.771199,-10.639607 10.639607,-10.639607 6.466886,0 10.639607,4.172721 10.639607,10.639607 0,4.58833 -3.657365,5.053813 -4.787823,5.087062 -0.6816,0 -0.94759,-0.182868 -0.94759,-1.080585 0,-0.232741 0.01662,-0.482107 0.08312,-0.797971 L 38.783366,25.38584 c 0.01662,-0.08312 0,-0.216117 -0.04987,-0.265991 -0.04987,-0.0665 -0.132995,-0.182868 -0.216117,-0.182868 h -1.961677 c -0.116371,0 -0.232742,0.166244 -0.249366,0.299239 l -0.182868,0.930966 -0.03325,0.315863 c -0.83122,-1.413073 -2.393912,-2.244292 -4.338965,-2.244292 -4.488584,0 -8.162573,4.305716 -8.162573,9.608895 0,3.856857 2.044799,6.067901 5.619042,6.067901 2.244292,0 4.039726,-1.263454 5.070438,-2.560156 0.04987,0.548605 0.232741,1.014088 0.548604,1.379824 0.515356,0.581854 1.329951,0.881093 2.360663,0.881093 0.232742,0 0.315864,-0.01662 0.531981,-0.01662 3.158633,-0.09975 6.849246,-2.044799 6.849246,-7.214983 z"
         style="font-family:wasy10;-inkscape-font-specification:wasy10;stroke-width:0.463211"
         id="path2416" />
    </g>
    <g
       aria-label=""
       transform="matrix(2.1598973,0,0,2.1577885,-36.882433,-36.876496)"
       id="text2410"
       style="font-size:29.7909px;opacity:1;fill:#d4aa00;stroke-width:0.367674;stroke-linecap:round;stroke-linejoin:round;stroke-opacity:0.933333">
      <path
         d="m 35.192501,29.756824 c 0,3.424624 -2.327414,7.248233 -5.668916,7.248233 -2.16117,0 -3.391374,-1.413073 -3.391374,-3.890107 0,-4.438711 2.95914,-7.181734 5.718788,-7.181734 2.094673,0 3.341502,1.429697 3.341502,3.823608 z m 9.376153,2.011551 c 0,-7.630593 -5.136935,-12.767528 -12.767528,-12.767528 -7.032115,0 -12.767528,5.735413 -12.767528,12.767528 0,7.032115 5.735413,12.767528 12.767528,12.767528 2.942516,0 5.818535,-1.030712 8.079452,-2.876018 0.11637,-0.09975 0.182868,-0.232742 0.199492,-0.365737 0.01662,-0.149619 -0.03325,-0.282615 -0.11637,-0.398985 l -0.6816,-0.814595 c -0.182868,-0.232742 -0.515356,-0.26599 -0.748098,-0.0665 -1.89518,1.546068 -4.289091,2.393912 -6.732876,2.393912 -5.868408,0 -10.639607,-4.771199 -10.639607,-10.639607 0,-5.868408 4.771199,-10.639607 10.639607,-10.639607 6.466886,0 10.639607,4.172721 10.639607,10.639607 0,4.58833 -3.657365,5.053813 -4.787823,5.087062 -0.6816,0 -0.94759,-0.182868 -0.94759,-1.080585 0,-0.232741 0.01662,-0.482107 0.08312,-0.797971 l 1.994926,-10.207372 c 0.01662,-0.08312 0,-0.216117 -0.04987,-0.265991 -0.04987,-0.0665 -0.132995,-0.182868 -0.216117,-0.182868 h -1.961677 c -0.116371,0 -0.232742,0.166244 -0.249366,0.299239 l -0.182868,0.930966 -0.03325,0.315863 c -0.83122,-1.413073 -2.393912,-2.244292 -4.338965,-2.244292 -4.488584,0 -8.162573,4.305716 -8.162573,9.608895 0,3.856857 2.044799,6.067901 5.619042,6.067901 2.244292,0 4.039726,-1.263454 5.070438,-2.560156 0.04987,0.548605 0.232741,1.014088 0.548604,1.379824 0.515356,0.581854 1.329951,0.881093 2.360663,0.881093 0.232742,0 0.315864,-0.01662 0.531981,-0.01662 3.158633,-0.09975 6.849246,-2.044799 6.849246,-7.214983 z"
         style="font-family:wasy10;-inkscape-font-specification:wasy10;stroke-width:0.367674"
         id="path2422" />
    </g>
  </g>
</svg>
