<?xml version="1.0" encoding="UTF-8" standalone="no"?>
<!-- Generator: Adobe Illustrator 16.0.0, SVG Export Plug-In . SVG Version: 6.00 Build 0)  -->

<svg
   version="1.1"
   id="Capa_1"
   x="0px"
   y="0px"
   width="512px"
   height="512px"
   viewBox="0 0 512 512"
   style="enable-background:new 0 0 512 512;"
   xml:space="preserve"
   sodipodi:docname="icon_mik_abon_net_on.svg"
   inkscape:version="1.2.2 (b0a8486541, 2022-12-01)"
   xmlns:inkscape="http://www.inkscape.org/namespaces/inkscape"
   xmlns:sodipodi="http://sodipodi.sourceforge.net/DTD/sodipodi-0.dtd"
   xmlns="http://www.w3.org/2000/svg"
   xmlns:svg="http://www.w3.org/2000/svg"><defs
   id="defs304" /><sodipodi:namedview
   id="namedview302"
   pagecolor="#ffffff"
   bordercolor="#000000"
   borderopacity="0.25"
   inkscape:showpageshadow="2"
   inkscape:pageopacity="0.0"
   inkscape:pagecheckerboard="0"
   inkscape:deskcolor="#d1d1d1"
   showgrid="false"
   inkscape:zoom="0.6014551"
   inkscape:cx="247.73254"
   inkscape:cy="448.08"
   inkscape:window-width="1852"
   inkscape:window-height="1052"
   inkscape:window-x="68"
   inkscape:window-y="0"
   inkscape:window-maximized="1"
   inkscape:current-layer="layer1" />
















<g
   inkscape:groupmode="layer"
   id="layer1"
   inkscape:label="Layer 1"><circle
     style="font-variation-settings:normal;opacity:1;vector-effect:none;fill:#ff0000;fill-opacity:1;stroke:#808080;stroke-width:15;stroke-linecap:round;stroke-linejoin:round;stroke-miterlimit:4;stroke-dasharray:none;stroke-dashoffset:0;stroke-opacity:1;-inkscape-stroke:none;paint-order:markers fill stroke;stop-color:#000000;stop-opacity:1"
     id="path648"
     cx="256"
     cy="256"
     r="245.71298" /><path
     id="path1032"
     style="font-weight:bold;font-size:203.928px;-inkscape-font-specification:'sans-serif Bold';vector-effect:none;fill:#000000;stroke-width:8;stroke-linecap:round;stroke-linejoin:round;paint-order:markers fill stroke;stop-color:#000000"
     d="M 377.62187,452.99326 H 340.27815 L 279.7891,337.53339 h -0.778 l 0.778,21.80909 c 0.389,7.26969 0.71316,14.53939 0.97249,21.80908 v 71.8417 h -26.25731 v -152.6636 h 37.14923 l 60.29456,114.3908 h 0.58349 c -0.12966,-7.12715 -0.32416,-14.18304 -0.58349,-21.16765 l -0.77799,-20.95383 v -72.26932 h 26.45179 z M 225.71859,376.44765 c 0,15.82227 -2.39882,29.64895 -7.19645,41.48002 -4.66796,11.68853 -11.8644,20.81128 -21.58933,27.36827 -9.72493,6.55698 -22.17284,9.83547 -37.34373,9.83547 -15.04122,0 -27.48913,-3.27849 -37.34372,-9.83547 -9.72493,-6.55699 -16.98622,-15.75101 -21.78385,-27.58208 -4.667965,-11.83107 -7.001948,-25.65775 -7.001948,-41.48003 0,-15.82228 2.333983,-29.57769 7.001948,-41.26622 4.79763,-11.68852 12.05892,-20.74 21.78385,-27.15444 9.85459,-6.55698 22.36733,-9.83547 37.53822,-9.83547 15.04122,0 27.4243,3.27849 37.14923,9.83547 9.72493,6.41444 16.92137,15.53719 21.58933,27.36826 4.79763,11.68853 7.19645,25.44394 7.19645,41.26622 z m -101.33375,0 c 0,15.96481 2.78781,28.57987 8.36344,37.84517 5.57562,9.12275 14.52255,13.68413 26.8408,13.68413 12.57757,0 21.58934,-4.56138 27.0353,-13.68413 5.44596,-9.2653 8.16894,-21.88036 8.16894,-37.84517 0,-16.10737 -2.72298,-28.72243 -8.16894,-37.84518 -5.44596,-9.12275 -14.39289,-13.68413 -26.8408,-13.68413 -12.44791,0 -21.45968,4.56138 -27.0353,13.68413 -5.57563,9.12275 -8.36344,21.73781 -8.36344,37.84518 z M 392.3395,259.20723 H 363.19056 V 134.42751 h -37.44962 v -26.7385 h 104.04819 v 26.7385 H 392.3395 Z m -87.84855,0 H 225.15178 V 107.68901 h 79.33917 v 26.31409 h -50.19023 v 33.31702 h 46.71551 v 26.3141 h -46.71551 v 39.04671 h 50.19023 z m -108.08619,0 H 159.34121 L 99.30599,144.61362 h -0.77216 l 0.77216,21.64545 c 0.38608,7.21515 0.70781,14.43031 0.9652,21.64546 v 71.3027 H 74.210878 V 107.68901 h 36.870502 l 59.84219,113.53255 h 0.57912 c -0.12869,-7.07367 -0.32173,-14.07662 -0.57912,-21.00883 -0.25738,-6.9322 -0.51476,-13.8644 -0.77215,-20.79661 v -71.72711 h 26.25334 z"
     sodipodi:nodetypes="ccccccccccccsccccscssccsccsccsscscsssssccccccccccccccccccccccccccccccccccscccc" /><path
     id="path974"
     style="font-weight:bold;font-size:203.928px;-inkscape-font-specification:'sans-serif Bold';vector-effect:none;fill:#ececec;stroke-width:8;stroke-linecap:round;stroke-linejoin:round;paint-order:markers fill stroke;stop-color:#000000"
     d="M 381.62187,446.99326 H 344.27815 L 283.7891,331.53339 h -0.778 l 0.778,21.80909 c 0.389,7.26969 0.71316,14.53939 0.97249,21.80908 v 71.8417 h -26.25731 v -152.6636 h 37.14923 l 60.29456,114.3908 h 0.58349 c -0.12966,-7.12715 -0.32416,-14.18304 -0.58349,-21.16765 l -0.77799,-20.95383 v -72.26932 h 26.45179 z M 229.71859,370.44765 c 0,15.82227 -2.39882,29.64895 -7.19645,41.48002 -4.66796,11.68853 -11.8644,20.81128 -21.58933,27.36827 -9.72493,6.55698 -22.17284,9.83547 -37.34373,9.83547 -15.04122,0 -27.48913,-3.27849 -37.34372,-9.83547 -9.72493,-6.55699 -16.98622,-15.75101 -21.78385,-27.58208 -4.667965,-11.83107 -7.001948,-25.65775 -7.001948,-41.48003 0,-15.82228 2.333983,-29.57769 7.001948,-41.26622 4.79763,-11.68852 12.05892,-20.74 21.78385,-27.15444 9.85459,-6.55698 22.36733,-9.83547 37.53822,-9.83547 15.04122,0 27.4243,3.27849 37.14923,9.83547 9.72493,6.41444 16.92137,15.53719 21.58933,27.36826 4.79763,11.68853 7.19645,25.44394 7.19645,41.26622 z m -101.33375,0 c 0,15.96481 2.78781,28.57987 8.36344,37.84517 5.57562,9.12275 14.52255,13.68413 26.8408,13.68413 12.57757,0 21.58934,-4.56138 27.0353,-13.68413 5.44596,-9.2653 8.16894,-21.88036 8.16894,-37.84517 0,-16.10737 -2.72298,-28.72243 -8.16894,-37.84518 -5.44596,-9.12275 -14.39289,-13.68413 -26.8408,-13.68413 -12.44791,0 -21.45968,4.56138 -27.0353,13.68413 -5.57563,9.12275 -8.36344,21.73781 -8.36344,37.84518 z M 396.3395,253.20723 H 367.19056 V 128.42751 h -37.44962 v -26.7385 h 104.04819 v 26.7385 H 396.3395 Z m -87.84855,0 H 229.15178 V 101.68901 h 79.33917 v 26.31409 h -50.19023 v 33.31702 h 46.71551 v 26.3141 h -46.71551 v 39.04671 h 50.19023 z m -108.08619,0 H 163.34121 L 103.30599,138.61362 h -0.77216 l 0.77216,21.64545 c 0.38608,7.21515 0.70781,14.43031 0.9652,21.64546 v 71.3027 H 78.210878 V 101.68901 h 36.870502 l 59.84219,113.53255 h 0.57912 c -0.12869,-7.07367 -0.32173,-14.07662 -0.57912,-21.00883 -0.25738,-6.9322 -0.51476,-13.8644 -0.77215,-20.79661 v -71.72711 h 26.25334 z"
     sodipodi:nodetypes="ccccccccccccsccccscssccsccsccsscscsssssccccccccccccccccccccccccccccccccccscccc" /></g></svg>
