<?xml version="1.0" encoding="UTF-8" standalone="no"?>
<!-- Created with Inkscape (http://www.inkscape.org/) -->

<svg
   width="32"
   height="32"
   viewBox="0 0 8.4666665 8.4666666"
   version="1.1"
   id="svg5"
   xml:space="preserve"
   inkscape:version="1.2.2 (b0a8486541, 2022-12-01)"
   sodipodi:docname="icon_copy-clipboard.svg"
   xmlns:inkscape="http://www.inkscape.org/namespaces/inkscape"
   xmlns:sodipodi="http://sodipodi.sourceforge.net/DTD/sodipodi-0.dtd"
   xmlns="http://www.w3.org/2000/svg"
   xmlns:svg="http://www.w3.org/2000/svg"><sodipodi:namedview
     id="namedview7"
     pagecolor="#ffffff"
     bordercolor="#000000"
     borderopacity="0.25"
     inkscape:showpageshadow="2"
     inkscape:pageopacity="0.0"
     inkscape:pagecheckerboard="true"
     inkscape:deskcolor="#d1d1d1"
     inkscape:document-units="mm"
     showgrid="false"
     inkscape:zoom="1.5518659"
     inkscape:cx="71.848993"
     inkscape:cy="44.140412"
     inkscape:window-width="1852"
     inkscape:window-height="1052"
     inkscape:window-x="68"
     inkscape:window-y="0"
     inkscape:window-maximized="1"
     inkscape:current-layer="layer2" /><defs
     id="defs2" /><g
     inkscape:groupmode="layer"
     id="layer2"
     inkscape:label="Слой 2"><g
       id="g1362"
       transform="translate(-0.26458336)"><path
         style="color:#000000;font-variation-settings:normal;vector-effect:none;fill:#d4aa00;fill-opacity:1;stroke:#333333;stroke-width:0.2;stroke-linecap:butt;stroke-linejoin:miter;stroke-miterlimit:4;stroke-dasharray:none;stroke-dashoffset:0;stroke-opacity:1;-inkscape-stroke:none;stop-color:#000000"
         d="m 1.2929037,0.76067709 c -0.2751495,0 -0.53710942,0.2080803 -0.53710942,0.50000001 v 5.9589844 c 0,0.2919197 0.26195992,0.4980469 0.53710942,0.4980468 h 4.8945312 c 0.2751495,0 0.5351563,-0.2061271 0.5351563,-0.4980468 V 1.2606771 c 0,-0.29191971 -0.2600068,-0.50000001 -0.5351563,-0.50000001 z M 1.2557947,1.2606771 c 0,0.016196 -0.00432,0 0.037109,0 h 4.8945312 c 0.041431,0 0.035156,0.016196 0.035156,0 v 5.9589844 c 0,-0.016196 0.00627,-0.00195 -0.035156,-0.00195 H 1.2929037 c -0.041431,0 -0.037109,-0.014243 -0.037109,0.00195 z"
         id="path1278" /><path
         style="color:#000000;fill:#d4aa00;stroke:#333333;stroke-width:0.2;stroke-dasharray:none"
         d="m 2.7811849,0.25872397 c -0.2751494,0 -0.5351562,0.20808022 -0.5351562,0.5 V 1.7606771 H 2.7811849 4.6854818 5.220638 V 0.75872397 c 0,-0.29191978 -0.2600068,-0.50000001 -0.5351562,-0.5 z m -0.035156,0.5 c 0,0.0161964 -0.00628,0 0.035156,0 h 1.9042969 c 0.041431,0 0.035156,0.0161964 0.035156,0 V 1.2606771 c 0,-0.016196 0.00628,0 -0.035156,0 H 2.7811849 c -0.041431,0 -0.035156,-0.016196 -0.035156,0 z"
         id="path1226"
         sodipodi:nodetypes="ssccccssscssccsscc" /><path
         style="color:#000000;fill:#d4aa00;-inkscape-stroke:none"
         d="m 1.2929037,0.76067709 c -0.2751495,0 -0.53710942,0.2080803 -0.53710942,0.50000001 v 5.9589844 c 0,0.2919197 0.26195992,0.4980469 0.53710942,0.4980468 h 4.8945312 c 0.2751495,0 0.5351563,-0.2061271 0.5351563,-0.4980468 V 1.2606771 c 0,-0.29191971 -0.2600068,-0.50000001 -0.5351563,-0.50000001 z M 1.2557947,1.2606771 c 0,0.016196 -0.00432,0 0.037109,0 h 4.8945312 c 0.041431,0 0.035156,0.016196 0.035156,0 v 5.9589844 c 0,-0.016196 0.00627,-0.00195 -0.035156,-0.00195 H 1.2929037 c -0.041431,0 -0.037109,-0.014243 -0.037109,0.00195 z"
         id="rect355" /><rect
         style="fill:#ffffff;stroke:none;stroke-width:0.499999;stroke-dasharray:none"
         id="rect1145"
         width="3.8276923"
         height="4.9353118"
         x="4.0849819"
         y="2.9971228"
         rx="0.28572294"
         ry="0.24884804" /><path
         id="path1290"
         style="color:#000000;font-variation-settings:normal;vector-effect:none;fill:#d4aa00;fill-opacity:1;stroke:#333333;stroke-width:0.2;stroke-linecap:butt;stroke-linejoin:miter;stroke-miterlimit:4;stroke-dasharray:none;stroke-dashoffset:0;stroke-opacity:1;-inkscape-stroke:none;stop-color:#000000"
         d="m 4.7562194,6.7154217 v 0.5 h 2.4785155 v -0.5 z m 0,-0.9905202 v 0.5 h 2.4785155 v -0.5 z m 0,-0.9905202 v 0.5 h 2.4785155 v -0.5 z m 0,-0.9905202 v 0.5 h 2.4785155 v -0.5 z M 4.2927735,2.7216146 c -0.2751495,0 -0.5351562,0.2061272 -0.5351562,0.4980469 v 4.4882812 c 0,0.2919197 0.2600067,0.5 0.5351562,0.5 h 3.4101562 c 0.2751495,0 0.5371094,-0.2080803 0.5371094,-0.5 V 3.2196615 c 0,-0.2919197 -0.2619599,-0.4980469 -0.5371094,-0.4980469 z m -0.035156,0.4980469 c 0,0.016196 -0.00628,0.00195 0.035156,0.00195 h 3.4101562 c 0.041431,0 0.037109,0.014243 0.037109,-0.00195 v 4.4882812 c 0,-0.016196 0.00432,0 -0.037109,0 H 4.2927735 c -0.041431,0 -0.035156,-0.016196 -0.035156,0 z" /><path
         id="path1085"
         style="color:#000000;fill:#d4aa00;stroke-width:1;-inkscape-stroke:none"
         d="m 4.7562194,6.7154217 v 0.5 h 2.4785155 v -0.5 z m 0,-0.9905202 v 0.5 h 2.4785155 v -0.5 z m 0,-0.9905202 v 0.5 h 2.4785155 v -0.5 z m 0,-0.9905202 v 0.5 h 2.4785155 v -0.5 z M 4.2927735,2.7216146 c -0.2751495,0 -0.5351562,0.2061272 -0.5351562,0.4980469 v 4.4882812 c 0,0.2919197 0.2600067,0.5 0.5351562,0.5 h 3.4101562 c 0.2751495,0 0.5371094,-0.2080803 0.5371094,-0.5 V 3.2196615 c 0,-0.2919197 -0.2619599,-0.4980469 -0.5371094,-0.4980469 z m -0.035156,0.4980469 c 0,0.016196 -0.00628,0.00195 0.035156,0.00195 h 3.4101562 c 0.041431,0 0.037109,0.014243 0.037109,-0.00195 v 4.4882812 c 0,-0.016196 0.00432,0 -0.037109,0 H 4.2927735 c -0.041431,0 -0.035156,-0.016196 -0.035156,0 z" /><rect
         style="fill:#ffffff;stroke:none;stroke-width:0.499999;stroke-dasharray:none"
         id="rect355-6"
         width="2.261332"
         height="0.79749942"
         x="2.6026673"
         y="0.61095083"
         rx="0.28572297"
         ry="0.24884808" /><path
         style="color:#000000;fill:#d4aa00;-inkscape-stroke:none"
         d="m 2.7811849,0.25872397 c -0.2751494,0 -0.5351562,0.20808022 -0.5351562,0.5 V 1.7606771 H 2.7811849 4.6854818 5.220638 V 0.75872397 c 0,-0.29191978 -0.2600068,-0.50000001 -0.5351562,-0.5 z m -0.035156,0.5 c 0,0.0161964 -0.00628,0 0.035156,0 h 1.9042969 c 0.041431,0 0.035156,0.0161964 0.035156,0 V 1.2606771 c 0,-0.016196 0.00628,0 -0.035156,0 H 2.7811849 c -0.041431,0 -0.035156,-0.016196 -0.035156,0 z"
         id="rect355-3"
         sodipodi:nodetypes="ssccccssscssccsscc" /></g><path
       style="font-variation-settings:normal;opacity:1;vector-effect:none;fill:#d4aa00;fill-opacity:1;stroke:#333333;stroke-width:0.2;stroke-linecap:square;stroke-linejoin:round;stroke-miterlimit:4;stroke-dasharray:none;stroke-dashoffset:0;stroke-opacity:1;-inkscape-stroke:none;stop-color:#000000;stop-opacity:1"
       d="M 1.6270954,3.6939742 H 2.7445676 V 2.6190813 l 1.042045,1.9107784 -1.042045,1.9225998 V 5.4438425 H 1.6270954 Z"
       id="path1483"
       sodipodi:nodetypes="cccccccc" /></g></svg>
