<?xml version="1.0" encoding="UTF-8" standalone="no"?>
<!-- Generator: Adobe Illustrator 16.0.0, SVG Export Plug-In . SVG Version: 6.00 Build 0)  -->

<svg
   version="1.1"
   id="Capa_1"
   x="0px"
   y="0px"
   width="512px"
   height="512px"
   viewBox="0 0 512 512"
   style="enable-background:new 0 0 512 512;"
   xml:space="preserve"
   sodipodi:docname="icon_pdf.svg"
   inkscape:version="1.2.2 (b0a8486541, 2022-12-01)"
   xmlns:inkscape="http://www.inkscape.org/namespaces/inkscape"
   xmlns:sodipodi="http://sodipodi.sourceforge.net/DTD/sodipodi-0.dtd"
   xmlns="http://www.w3.org/2000/svg"
   xmlns:svg="http://www.w3.org/2000/svg"><defs
   id="defs39" /><sodipodi:namedview
   id="namedview37"
   pagecolor="#ffffff"
   bordercolor="#000000"
   borderopacity="0.25"
   inkscape:showpageshadow="2"
   inkscape:pageopacity="0.0"
   inkscape:pagecheckerboard="0"
   inkscape:deskcolor="#d1d1d1"
   showgrid="false"
   inkscape:zoom="0.42529298"
   inkscape:cx="-460.85878"
   inkscape:cy="544.33065"
   inkscape:window-width="1852"
   inkscape:window-height="1052"
   inkscape:window-x="68"
   inkscape:window-y="0"
   inkscape:window-maximized="1"
   inkscape:current-layer="Capa_1" />
















<path
   id="path2246"
   style="fill:#ffffff;stroke:#000000;stroke-width:34;stroke-linecap:round;stroke-linejoin:round;stroke-dasharray:none;stop-color:#000000"
   d="m 126.97125,35.563713 h 194.21206 l 95.00036,96.455167 v 318.55288 c 0,14.98025 -12.05992,27.04017 -27.04017,27.04017 H 126.97125 c -14.98026,0 -27.040174,-12.05992 -27.040174,-27.04017 V 62.603888 c 0,-14.980257 12.059914,-27.040175 27.040174,-27.040175 z"
   sodipodi:nodetypes="sccssssss" /><path
   id="rect373"
   style="fill:#ffffff;stroke:#aa8800;stroke-width:24;stop-color:#000000;stroke-linecap:round;stroke-linejoin:round;stroke-dasharray:none"
   d="m 126.97125,35.563713 h 194.21206 l 95.00036,96.455167 0,318.55288 c 0,14.98025 -12.05992,27.04017 -27.04017,27.04017 H 126.97125 c -14.98026,0 -27.040174,-12.05992 -27.040174,-27.04017 V 62.603888 c 0,-14.980257 12.059914,-27.040175 27.040174,-27.040175 z"
   sodipodi:nodetypes="sccssssss" /><rect
   style="fill:#ffffff;stroke:#000000;stroke-width:34;stroke-linecap:round;stroke-linejoin:round;stroke-dasharray:none;stroke-opacity:1;stop-color:#000000"
   id="rect2248"
   width="378.56259"
   height="159.88977"
   x="67.012589"
   y="190.75085"
   ry="27.040173"
   rx="27.040171" /><rect
   style="fill:#ffffff;stroke:#aa8800;stroke-width:24;stroke-dasharray:none;stroke-opacity:1;stop-color:#000000;stroke-linecap:round;stroke-linejoin:round"
   id="rect1766"
   width="378.56259"
   height="159.88977"
   x="67.012589"
   y="190.75085"
   ry="27.040173"
   rx="27.040171" /><g
   aria-label="PDF"
   transform="scale(0.8951456,1.1171367)"
   id="text1822"
   style="font-size:122.398px;font-family:'DejaVu Sans';-inkscape-font-specification:'DejaVu Sans';text-align:center;text-anchor:middle;opacity:1;vector-effect:none;fill:#cc0000;stop-color:#000000;stop-opacity:1"><path
     d="m 159.61425,200.17769 h 38.18961 q 17.03292,0 26.11715,7.59011 9.14399,7.53035 9.14399,21.51527 0,14.0447 -9.14399,21.63481 -9.08423,7.53034 -26.11715,7.53034 h -15.18022 v 30.95809 h -23.00939 z m 23.00939,16.67434 v 24.92186 h 12.72987 q 6.69364,0 10.33928,-3.2273 3.64565,-3.28705 3.64565,-9.26352 0,-5.97646 -3.64565,-9.20375 -3.64564,-3.22729 -10.33928,-3.22729 z"
     style="font-weight:bold;-inkscape-font-specification:'DejaVu Sans Bold';vector-effect:none;stop-color:#000000;stop-opacity:1"
     id="path2239" /><path
     d="m 272.33038,217.5692 v 54.4456 h 8.24752 q 14.10446,0 21.51528,-6.99247 7.47058,-6.99246 7.47058,-20.31998 0,-13.26775 -7.41082,-20.20045 -7.41082,-6.9327 -21.57504,-6.9327 z m -23.00939,-17.39151 h 24.26445 q 20.31998,0 30.24091,2.92847 9.9807,2.8687 17.09269,9.8014 6.27529,6.03623 9.32329,13.92516 3.04799,7.88894 3.04799,17.86963 0,10.10023 -3.04799,18.04893 -3.048,7.88893 -9.32329,13.92516 -7.17176,6.9327 -17.21222,9.86117 -10.04046,2.8687 -30.12138,2.8687 h -24.26445 z"
     style="font-weight:bold;-inkscape-font-specification:'DejaVu Sans Bold';vector-effect:none;stop-color:#000000;stop-opacity:1"
     id="path2241" /><path
     d="m 350.92089,200.17769 h 62.09547 v 17.39151 h -39.08608 v 16.61457 h 36.75526 v 17.39152 h -36.75526 v 37.83102 h -23.00939 z"
     style="font-weight:bold;-inkscape-font-specification:'DejaVu Sans Bold';vector-effect:none;stop-color:#000000;stop-opacity:1"
     id="path2243" /></g><path
   id="rect2028"
   style="opacity:1;fill:#ffffff;stroke:#aa8800;stroke-width:24;stroke-linecap:round;stroke-linejoin:round;stop-color:#000000;stop-opacity:1;stroke-dasharray:none"
   d="m 320.23074,35.563717 96,96.000003 h -96 z"
   sodipodi:nodetypes="cccc" /><path
   style="font-variation-settings:normal;opacity:1;fill:none;fill-opacity:1;stroke:#aa8800;stroke-width:24;stroke-linecap:round;stroke-linejoin:round;stroke-miterlimit:4;stroke-dasharray:none;stroke-dashoffset:0;stroke-opacity:1;stop-color:#000000;stop-opacity:1"
   d="M 164.60082,413.16468 H 272.67206"
   id="path2178" /></svg>
