<?xml version="1.0" encoding="UTF-8" standalone="no"?>
<!-- Created with Inkscape (http://www.inkscape.org/) -->

<svg
   version="1.1"
   id="svg2"
   width="20.48"
   height="20.48"
   viewBox="0 0 20.48 20.48"
   sodipodi:docname="icon_pa_edit.svg"
   inkscape:version="1.2.2 (b0a8486541, 2022-12-01)"
   xml:space="preserve"
   xmlns:inkscape="http://www.inkscape.org/namespaces/inkscape"
   xmlns:sodipodi="http://sodipodi.sourceforge.net/DTD/sodipodi-0.dtd"
   xmlns="http://www.w3.org/2000/svg"
   xmlns:svg="http://www.w3.org/2000/svg"><defs
     id="defs6" /><sodipodi:namedview
     id="namedview4"
     pagecolor="#ffffff"
     bordercolor="#000000"
     borderopacity="0.25"
     inkscape:showpageshadow="2"
     inkscape:pageopacity="0.0"
     inkscape:pagecheckerboard="true"
     inkscape:deskcolor="#d1d1d1"
     showgrid="false"
     inkscape:zoom="7.5181888"
     inkscape:cx="29.594894"
     inkscape:cy="21.747259"
     inkscape:window-width="1852"
     inkscape:window-height="1052"
     inkscape:window-x="68"
     inkscape:window-y="0"
     inkscape:window-maximized="1"
     inkscape:current-layer="g8" /><g
     inkscape:groupmode="layer"
     inkscape:label="Image"
     id="g8"><path
       id="path1758"
       style="color:#000000;fill:#d4aa00;fill-opacity:1;stroke:#333333;stroke-width:0.3;stroke-dasharray:none"
       d="m 3.4093678,13.552859 v 1.644253 h 9.7834632 v -1.644253 z m 0,-3.509022 v 1.644252 h 9.7834632 v -1.644252 z m 0,-3.4619221 V 8.2261672 H 13.192831 V 6.5819149 Z M 2.0432375,2.1030402 c -0.8904459,0 -1.67019062,0.7203243 -1.67019062,1.6314065 V 17.093997 c -1e-8,0.911082 0.77974472,1.631406 1.67019062,1.631406 H 14.683154 c 0.890446,0 1.672333,-0.720324 1.672333,-1.631406 V 3.7344467 c 0,-0.9110822 -0.781887,-1.6314065 -1.672333,-1.6314065 z m -0.025694,1.6314065 c 0,0.015694 -0.024338,0.012846 0.025694,0.012846 H 14.683154 c 0.05004,0 0.02784,0.00285 0.02784,-0.012846 V 17.093997 c 0,-0.0157 0.0222,-0.01284 -0.02784,-0.01284 H 2.0432375 c -0.050032,0 -0.025694,-0.0029 -0.025694,0.01284 z" /><path
       style="color:#000000;fill:#d4aa00;fill-opacity:1;stroke:#333333;stroke-width:0.3;stroke-linecap:round;stroke-linejoin:round;stroke-dasharray:none"
       d="m 6.7604554,1.2900587 c -0.912126,0 -1.7322875,0.668975 -1.7322875,1.5778827 v 0.079215 c 0,0.9089077 0.8201615,1.5778827 1.7322875,1.5778827 h 3.2825666 c 0.912126,0 1.732288,-0.668975 1.732288,-1.5778827 v -0.079215 c 0,-0.9089077 -0.820162,-1.5778827 -1.732288,-1.5778827 z m 0,1.0961682 h 3.2825666 c 0.399661,0 0.635958,0.2483009 0.635958,0.4817145 v 0.079215 c 0,0.2334138 -0.236297,0.4817145 -0.635958,0.4817145 H 6.7604554 c -0.3996613,0 -0.6359572,-0.2483007 -0.6359572,-0.4817145 v -0.079215 c 0,-0.2334136 0.2362959,-0.4817145 0.6359572,-0.4817145 z"
       id="path1760" /><path
       id="path1069"
       style="color:#000000;fill:#d4aa00;fill-opacity:1;stroke-width:1;-inkscape-stroke:none"
       d="m 3.4093678,13.552859 v 1.644253 h 9.7834632 v -1.644253 z m 0,-3.509022 v 1.644252 h 9.7834632 v -1.644252 z m 0,-3.4619221 V 8.2261672 H 13.192831 V 6.5819149 Z M 2.0432375,2.1030402 c -0.8904459,0 -1.67019062,0.7203243 -1.67019062,1.6314065 V 17.093997 c -1e-8,0.911082 0.77974472,1.631406 1.67019062,1.631406 H 14.683154 c 0.890446,0 1.672333,-0.720324 1.672333,-1.631406 V 3.7344467 c 0,-0.9110822 -0.781887,-1.6314065 -1.672333,-1.6314065 z m -0.025694,1.6314065 c 0,0.015694 -0.024338,0.012846 0.025694,0.012846 H 14.683154 c 0.05004,0 0.02784,0.00285 0.02784,-0.012846 V 17.093997 c 0,-0.0157 0.0222,-0.01284 -0.02784,-0.01284 H 2.0432375 c -0.050032,0 -0.025694,-0.0029 -0.025694,0.01284 z" /><path
       style="color:#000000;font-size:8.73607px;font-family:wasy10;-inkscape-font-specification:'Noto Serif Semi-Bold';fill:#ffffff;stroke:none;stroke-linecap:butt;stroke-linejoin:miter;-inkscape-stroke:none"
       d="M 2.7512389,4.632135 A 0.49885807,0.50124477 0 0 0 2.2524307,5.133329 v 0.428757 a 0.49885807,0.50124477 0 0 0 0.4988082,0.501195 h 0.2708373 c 0.072096,0 0.1042,0.01291 0.1324959,0.02937 -0.1221658,-0.07107 -0.083784,-0.140401 -0.083784,0.02154 v 4.256238 c 0,0.179376 -0.042718,0.137741 0.066248,0.0646 -0.014583,0.0084 -0.039433,0.01958 -0.1149597,0.01958 h -0.270837 a 0.49885807,0.50124477 0 0 0 -0.4988082,0.501194 v 0.428756 a 0.49885807,0.50124477 0 0 0 0.4988082,0.501195 H 5.7499335 A 0.49885807,0.50124477 0 0 0 6.2487417,11.384553 V 10.955797 A 0.49885807,0.50124477 0 0 0 5.7499335,10.454603 H 5.3134763 c -0.069075,0 -0.098216,-0.01226 -0.1266506,-0.0235 0.056368,0.05087 0.068196,0.11423 0.068196,-0.01762 V 9.456133 C 5.8618228,9.444463 6.3985581,9.367323 6.8313336,9.142887 7.2622218,8.919429 7.6117051,8.600981 7.8270019,8.199231 8.0276541,7.824809 8.1309632,7.409726 8.1309632,6.981485 8.1309632,6.300143 7.8769491,5.677921 7.3924932,5.25667 6.891705,4.810336 6.1863976,4.632135 5.3388064,4.632135 Z m 1.0950399,1.002389 h 0.411127 V 8.504647 A 0.49885807,0.50124477 0 0 0 4.4931706,8.739582 0.49885807,0.50124477 0 0 0 4.2574058,8.976474 v 1.43702 c 0,0.16744 0.1487402,0.304983 0.2182286,0.46987 H 3.8443303 c 0.076263,-0.175885 0.224074,-0.327882 0.224074,-0.512942 V 6.114183 c 0,-0.170839 -0.1491634,-0.312193 -0.2221255,-0.479659 z m 2.7298058,0.330867 c 0.032629,0.02281 0.1304075,0.01658 0.157826,0.04111 a 0.49885807,0.50124477 0 0 0 0.00585,0.0059 c 0.268652,0.232562 0.3935908,0.507795 0.3935908,0.969107 0,0.272314 -0.060388,0.509278 -0.1851046,0.742003 -0.077875,0.145311 -0.2450483,0.257891 -0.4052863,0.373941 0.158494,-0.323496 0.3156521,-0.643913 0.3156521,-1.082659 0,-0.41522 -0.1324152,-0.735929 -0.282528,-1.049376 z m -1.3210624,0.16837 c 0.2519928,0.01554 0.4013831,0.06617 0.448148,0.127257 0.071296,0.09313 0.157826,0.336158 0.157826,0.753749 0,0.473535 -0.1041774,0.730603 -0.1773107,0.812484 a 0.49885807,0.50124477 0 0 0 -0.00585,0.0059 C 5.6297575,7.888571 5.431449,7.918881 5.2550216,7.950622 Z"
       id="path2640" /><path
       style="color:#000000;font-size:8.73607px;font-family:wasy10;-inkscape-font-specification:'Noto Serif Semi-Bold';fill:#ffffff;stroke:none;stroke-linecap:butt;stroke-linejoin:miter;-inkscape-stroke:none"
       d="M 10.229465,4.6321349 A 0.49885807,0.50124477 0 0 0 9.7618322,4.9590861 L 7.852332,10.125699 c -0.083074,0.225865 -0.1712194,0.335703 -0.1519806,0.321077 0.00337,-0.0016 0.00514,0.0078 -0.068196,0.0078 H 7.5016075 A 0.49885807,0.50124477 0 0 0 7.0027993,10.95577 v 0.428756 A 0.49885807,0.50124477 0 0 0 7.5016075,11.88574 H 9.7150689 A 0.49885807,0.50124477 0 0 0 10.213877,11.384545 V 10.955789 A 0.49885807,0.50124477 0 0 0 9.7150689,10.454595 H 9.4754072 c 0.011297,-0.05223 0.024097,-0.09805 0.037021,-0.129215 a 0.49885807,0.50124477 0 0 0 0.011691,-0.03132 L 9.6877903,9.8104937 h 1.4749917 l 0.198744,0.5814643 a 0.49885807,0.50124477 0 0 0 0.01559,0.04111 c 0.0018,0.0041 0.0038,0.01534 0.0059,0.02154 h -0.187053 a 0.49885807,0.50124477 0 0 0 -0.498808,0.501194 v 0.428756 a 0.49885807,0.50124477 0 0 0 0.498808,0.501195 h 2.692785 a 0.49885807,0.50124477 0 0 0 0.498809,-0.501195 v -0.428756 a 0.49885807,0.50124477 0 0 0 -0.498809,-0.501194 h -0.138341 c -0.05345,0 -0.06074,-0.0067 -0.07209,-0.0137 0.01246,0.0082 -0.0448,-0.04937 -0.101321,-0.215357 a 0.49885807,0.50124477 0 0 0 -0.002,-0.0078 L 11.690817,4.9630017 A 0.49885807,0.50124477 0 0 0 11.223184,4.6321349 Z m 0.409179,1.0023893 h 0.233816 l 1.761417,4.9140578 c 0.04476,0.131466 0.141169,0.222633 0.204589,0.334782 h -0.578695 c 0.04318,-0.108223 0.150031,-0.193002 0.150031,-0.295627 0,-0.09994 -0.01653,-0.199647 -0.04287,-0.297584 -0.01791,-0.08953 -0.04022,-0.179059 -0.07794,-0.264302 l 0.01559,0.04112 L 11.99088,9.1468044 A 0.49885807,0.50124477 0 0 0 11.796035,9.0058414 0.49885807,0.50124477 0 0 0 11.817463,8.66127 L 11.33035,7.1811796 a 0.49885807,0.50124477 0 0 0 -0.0039,-0.00783 C 11.253822,6.965641 11.181294,6.7467668 11.108225,6.5155304 l -0.002,-0.00979 C 11.040237,6.2785307 10.98573,6.0690277 10.942558,5.8792438 A 0.49885807,0.50124477 0 0 0 10.638644,5.6345242 Z m -0.194848,2.0458923 0.210436,0.63824 H 10.215825 Z M 8.5752142,10.834419 c 0.00553,0.01763 0.014849,0.0315 0.021433,0.04895 h -0.05066 c 0.0093,-0.01578 0.020466,-0.03272 0.029227,-0.04895 z m 3.4955538,0.442461 -0.01364,0.0098 c 0.002,-0.0014 0.0019,-0.0045 0.0039,-0.0059 0.003,-0.0021 0.0068,-0.0018 0.0098,-0.0039 z"
       id="path2646" /><path
       style="color:#000000;fill:#ffffff;stroke-width:1;stroke-linecap:round;stroke-linejoin:round;-inkscape-stroke:none"
       d="m 6.7599019,1.8377638 h 3.2825421 c 0.655894,0 1.183924,0.4598157 1.183924,1.030977 v 0.077546 c 0,0.5711613 -0.52803,1.0309771 -1.183924,1.0309771 H 6.7599019 c -0.6558943,0 -1.1839248,-0.4598158 -1.1839248,-1.0309771 v -0.077546 c 0,-0.5711613 0.5280305,-1.030977 1.1839248,-1.030977 z"
       id="path2792" /><path
       style="color:#000000;fill:#d4aa00;fill-opacity:1;stroke-width:1;stroke-linecap:round;stroke-linejoin:round;-inkscape-stroke:none"
       d="m 6.7604554,1.2900587 c -0.912126,0 -1.7322875,0.668975 -1.7322875,1.5778827 v 0.079215 c 0,0.9089077 0.8201615,1.5778827 1.7322875,1.5778827 h 3.2825666 c 0.912126,0 1.732288,-0.668975 1.732288,-1.5778827 v -0.079215 c 0,-0.9089077 -0.820162,-1.5778827 -1.732288,-1.5778827 z m 0,1.0961682 h 3.2825666 c 0.399661,0 0.635958,0.2483009 0.635958,0.4817145 v 0.079215 c 0,0.2334138 -0.236297,0.4817145 -0.635958,0.4817145 H 6.7604554 c -0.3996613,0 -0.6359572,-0.2483007 -0.6359572,-0.4817145 v -0.079215 c 0,-0.2334136 0.2362959,-0.4817145 0.6359572,-0.4817145 z"
       id="path2794" /><g
       aria-label="PA"
       transform="scale(0.99761638,1.0023893)"
       id="text2624"
       style="font-size:8.73607px;font-family:wasy10;-inkscape-font-specification:wasy10;fill:#000bff;stroke-width:0.944881;stop-color:#000000"><path
         d="m 2.7578105,11.358233 v -0.428067 h 0.2708181 q 0.2271378,0 0.3843871,-0.0961 0.1659853,-0.104833 0.1659853,-0.48922 V 6.0991195 q 0,-0.3581789 -0.1659853,-0.4542756 Q 3.2470304,5.5487471 3.0286286,5.5487471 H 2.7578105 V 5.1206797 h 2.5946127 q 1.1706333,0 1.7297417,0.497956 0.5678446,0.4892199 0.5678446,1.3453547 0,0.5241642 -0.24461,0.9784398 Q 7.1607896,8.3967058 6.6191533,8.6762601 6.0775169,8.9558143 5.1602296,8.9558143 H 4.7671065 V 10.38853 q 0,0.358179 0.1659853,0.454275 0.1659853,0.08736 0.3931231,0.08736 h 0.4368035 v 0.428067 z M 5.0728689,8.4840665 q 0.6988856,0 0.995912,-0.3407067 0.3057624,-0.3407067 0.3057624,-1.1444251 0,-0.7163577 -0.2620821,-1.0570644 Q 5.8503791,5.6011635 5.20391,5.6011635 H 4.7671065 v 2.882903 z"
         style="font-weight:600;font-family:'Noto Serif';-inkscape-font-specification:'Noto Serif Semi-Bold'"
         id="path2631" /><path
         d="m 7.5189751,11.358233 v -0.428067 h 0.1310411 q 0.2446099,0 0.3931231,-0.122305 0.1485132,-0.131041 0.2970264,-0.5329 L 10.253365,5.1206797 h 0.995912 l 1.886991,5.2416423 q 0.113569,0.33197 0.262082,0.454275 0.157249,0.113569 0.384387,0.113569 h 0.139777 v 0.428067 h -2.699445 v -0.428067 h 0.28829 q 0.174721,0 0.297026,-0.08736 0.131041,-0.08736 0.131041,-0.279554 0,-0.0961 -0.02621,-0.183457 -0.01747,-0.0961 -0.05242,-0.174722 L 11.546303,9.2877849 H 9.3535498 L 9.0739955,10.108975 q -0.04368,0.104833 -0.069889,0.235874 -0.026208,0.122305 -0.026208,0.209666 0,0.192194 0.1223049,0.28829 0.1310411,0.08736 0.3407068,0.08736 h 0.2970263 v 0.428067 z M 9.5282712,8.798565 H 11.371582 L 10.882362,7.3221693 Q 10.768793,6.9989347 10.655224,6.6407558 10.550391,6.282577 10.480503,5.9768145 q -0.06989,0.2882903 -0.174722,0.620261 -0.104832,0.3319706 -0.227137,0.6726773 z"
         style="font-weight:600;font-family:'Noto Serif';-inkscape-font-specification:'Noto Serif Semi-Bold'"
         id="path2633" /></g><path
       id="path2800"
       style="fill:#008000;stroke:#ffffff;stroke-width:1.7;stroke-linecap:butt;stroke-linejoin:miter;stroke-dasharray:none"
       d="m 15.655065,7.1930689 3.367383,3.4834001 C 19.760053,10.029016 19.554417,9.4248088 19.441208,8.7922308 19.328,8.1596528 17.990668,6.8543856 17.369023,6.7480698 16.747377,6.641754 16.34765,6.5746386 15.655065,7.1930689 Z m -1.326263,1.2615382 0.703838,-0.7262508 3.475397,3.4513047 -0.681134,0.658164 z m 0.800165,1.8211339 0.703838,0.68086 -4.904163,4.947584 -0.840066,-0.771641 z m 2.117024,2.116173 -5.403662,5.288014 c -1.9849919,0.05082 -3.6378119,1.219743 -4.0923119,0.675354 -0.4545,-0.54439 0.731294,-2.113482 0.721034,-4.204145 l 5.3809579,-5.2880138 0.663938,0.6863669 -5.4036619,5.3560999 2.0888099,1.974495 5.358254,-5.174538 z" /><path
       id="path1239"
       style="fill:#008000;stroke:none;stroke-width:1.5;stroke-linecap:butt;stroke-linejoin:miter;stroke-dasharray:none"
       d="m 15.655065,7.1930689 3.367383,3.4834001 C 19.760053,10.029016 19.554417,9.4248088 19.441208,8.7922308 19.328,8.1596528 17.990668,6.8543856 17.369023,6.7480698 16.747377,6.641754 16.34765,6.5746386 15.655065,7.1930689 Z m -1.326263,1.2615382 0.703838,-0.7262508 3.475397,3.4513047 -0.681134,0.658164 z m 0.800165,1.8211339 0.703838,0.68086 -4.904163,4.947584 -0.840066,-0.771641 z m 2.117024,2.116173 -5.403662,5.288014 c -1.9849919,0.05082 -3.6378129,1.219743 -4.0923129,0.675354 -0.4544996,-0.54439 0.731295,-2.113482 0.721034,-4.204145 l 5.3809589,-5.2880138 0.663938,0.6863669 -5.4036629,5.3560999 2.0888109,1.974495 5.358254,-5.174538 z" /></g></svg>
