<?xml version="1.0" encoding="UTF-8" standalone="no"?>
<!-- Generator: Adobe Illustrator 16.0.0, SVG Export Plug-In . SVG Version: 6.00 Build 0)  -->

<svg
   version="1.1"
   id="Capa_1"
   x="0px"
   y="0px"
   width="512px"
   height="512px"
   viewBox="0 0 512 512"
   style="enable-background:new 0 0 512 512;"
   xml:space="preserve"
   sodipodi:docname="icon_sms.svg"
   inkscape:version="1.2.2 (b0a8486541, 2022-12-01)"
   xmlns:inkscape="http://www.inkscape.org/namespaces/inkscape"
   xmlns:sodipodi="http://sodipodi.sourceforge.net/DTD/sodipodi-0.dtd"
   xmlns="http://www.w3.org/2000/svg"
   xmlns:svg="http://www.w3.org/2000/svg"><defs
   id="defs39">
	
</defs><sodipodi:namedview
   id="namedview37"
   pagecolor="#ffffff"
   bordercolor="#666666"
   borderopacity="1.0"
   inkscape:pageshadow="2"
   inkscape:pageopacity="0.0"
   inkscape:pagecheckerboard="0"
   showgrid="false"
   inkscape:zoom="0.62890625"
   inkscape:cx="132.77019"
   inkscape:cy="48.496894"
   inkscape:window-width="1852"
   inkscape:window-height="1052"
   inkscape:window-x="68"
   inkscape:window-y="0"
   inkscape:window-maximized="1"
   inkscape:current-layer="Capa_1"
   inkscape:showpageshadow="2"
   inkscape:deskcolor="#d1d1d1" />

<g
   id="g6">
</g>
<g
   id="g8">
</g>
<g
   id="g10">
</g>
<g
   id="g12">
</g>
<g
   id="g14">
</g>
<g
   id="g16">
</g>
<g
   id="g18">
</g>
<g
   id="g20">
</g>
<g
   id="g22">
</g>
<g
   id="g24">
</g>
<g
   id="g26">
</g>
<g
   id="g28">
</g>
<g
   id="g30">
</g>
<g
   id="g32">
</g>
<g
   id="g34">
</g>
<g
   aria-label="SMS"
   id="text4422"
   style="font-size:206.229px;line-height:1.25;fill:#aa8800"><path
     d="m 157.36663,298.27455 q 0,10.37187 -5.63908,20.03885 -5.53837,9.66698 -17.6221,15.91025 -11.98304,6.14256 -31.4177,6.14256 -11.076756,0 -19.333972,-1.91326 -8.257216,-1.91326 -12.788615,-3.82651 -4.531399,-1.91326 -4.531399,-1.91326 v -36.55329 h 12.99001 l 2.71884,23.36188 q 0.201395,1.20838 1.309071,2.61814 1.107675,1.40977 2.114652,1.91326 0.503489,0.1007 5.84047,2.41675 5.437679,2.31605 15.003963,2.31605 13.19141,0 21.75072,-6.44466 8.55931,-6.44466 8.55931,-17.9242 0,-6.24326 -3.52442,-10.87536 -3.42373,-4.73279 -8.9621,-8.35791 -5.53838,-3.62512 -11.88234,-6.54536 -6.24326,-3.02093 -11.88233,-5.73977 -8.458616,-4.02791 -15.708855,-8.55931 -7.250238,-4.63209 -11.680939,-11.37884 -4.430701,-6.74675 -4.430701,-17.21932 0,-12.28513 6.24326,-21.34792 6.243261,-9.0628 17.017921,-13.99699 10.774664,-5.03489 24.368854,-5.03489 11.07676,0 19.53537,2.21535 8.45861,2.11465 15.00396,4.22931 l 1.81256,0.60418 v 32.12259 h -11.78163 l -3.12163,-19.73676 q -0.2014,-1.40977 -1.30908,-2.01396 -1.00697,-0.70488 -1.91325,-1.61116 -0.80559,-0.60419 -5.03489,-2.61814 -4.12861,-2.01396 -12.88931,-2.01396 -12.38583,0 -19.535368,6.94815 -7.149541,6.84744 -7.149541,17.32001 0,9.46559 7.350936,15.70885 7.451633,6.24326 21.347923,11.58024 18.72978,7.04884 28.90026,15.91025 10.27117,8.7607 10.27117,24.26816 z"
     style="font-family:'Abyssinica SIL';-inkscape-font-specification:'Abyssinica SIL';fill:#aa8800"
     id="path10950" /><path
     d="m 339.73026,337.04318 h -52.06074 v -8.8614 l 10.97606,-0.80558 q 2.21535,-0.2014 3.32302,-1.61117 1.20838,-1.40976 1.20838,-2.92023 V 209.15703 L 255.74833,337.04318 H 245.47716 L 199.65968,211.07029 V 322.8448 q 0,1.51047 1.10768,2.92023 1.20837,1.40977 3.42372,1.61117 l 11.78164,0.80558 v 8.8614 h -44.60911 v -8.8614 l 11.78164,-0.80558 q 2.21535,-0.2014 3.22233,-1.61117 1.10768,-1.40976 1.10768,-2.92023 V 212.88285 q 0,-1.51047 -1.10768,-2.92024 -1.00698,-1.51046 -3.22233,-1.61116 l -11.78164,-0.80558 v -8.8614 h 46.22027 v 5.53837 l 37.35887,101.30194 37.35887,-100.69775 v -6.14256 h 47.42864 v 8.8614 l -11.17745,0.80558 q -2.21535,0.1007 -3.42372,1.61116 -1.10768,1.40977 -1.10768,2.92024 V 322.8448 q 0,1.51047 1.10768,2.92023 1.20837,1.40977 3.42372,1.61117 l 11.17745,0.80558 z"
     style="font-family:'Abyssinica SIL';-inkscape-font-specification:'Abyssinica SIL';fill:#aa8800"
     id="path10952" /><path
     d="m 445.46291,298.27455 q 0,10.37187 -5.63907,20.03885 -5.53838,9.66698 -17.62211,15.91025 -11.98303,6.14256 -31.4177,6.14256 -11.07675,0 -19.33397,-1.91326 -8.25722,-1.91326 -12.78861,-3.82651 -4.5314,-1.91326 -4.5314,-1.91326 v -36.55329 h 12.99001 l 2.71884,23.36188 q 0.20139,1.20838 1.30907,2.61814 1.10767,1.40977 2.11465,1.91326 0.50349,0.1007 5.84047,2.41675 5.43768,2.31605 15.00397,2.31605 13.1914,0 21.75071,-6.44466 8.55931,-6.44466 8.55931,-17.9242 0,-6.24326 -3.52442,-10.87536 -3.42372,-4.73279 -8.9621,-8.35791 -5.53838,-3.62512 -11.88234,-6.54536 -6.24326,-3.02093 -11.88233,-5.73977 -8.45861,-4.02791 -15.70885,-8.55931 -7.25024,-4.63209 -11.68094,-11.37884 -4.4307,-6.74675 -4.4307,-17.21932 0,-12.28513 6.24326,-21.34792 6.24326,-9.0628 17.01792,-13.99699 10.77466,-5.03489 24.36886,-5.03489 11.07675,0 19.53536,2.21535 8.45861,2.11465 15.00397,4.22931 l 1.81256,0.60418 v 32.12259 h -11.78164 l -3.12163,-19.73676 q -0.2014,-1.40977 -1.30907,-2.01396 -1.00698,-0.70488 -1.91326,-1.61116 -0.80558,-0.60419 -5.03489,-2.61814 -4.12861,-2.01396 -12.88931,-2.01396 -12.38582,0 -19.53537,6.94815 -7.14954,6.84744 -7.14954,17.32001 0,9.46559 7.35094,15.70885 7.45163,6.24326 21.34792,11.58024 18.72979,7.04884 28.90026,15.91025 10.27117,8.7607 10.27117,24.26816 z"
     style="font-family:'Abyssinica SIL';-inkscape-font-specification:'Abyssinica SIL';fill:#aa8800"
     id="path10954" /></g><g
   inkscape:groupmode="layer"
   id="layer1"
   inkscape:label="Layer 1"
   style="display:inline"><path
     d="M 256,32 C 379.5,32 480,132.5 480,256 480,379.5 379.5,480 256,480 132.5,480 32,379.5 32,256 32,132.5 132.5,32 256,32 M 256,0 C 114.625,0 0,114.625 0,256 0,397.375 114.625,512 256,512 397.375,512 512,397.375 512,256 512,114.625 397.375,0 256,0 Z"
     id="path2"
     sodipodi:nodetypes="cssscsssss"
     style="display:none" /></g><g
   inkscape:groupmode="layer"
   id="layer2"
   inkscape:label="Layer 2"
   style="display:inline"><path
     d="m 256,32 c 123.5,0 224,100.5 224,224 0,56.92997 -30.62646,134.74792 -20.12526,203.59419 C 412.70261,425.23394 322.57003,480 256,480 132.5,480 32,379.5 32,256 32,132.5 132.5,32 256,32 M 256,0 C 114.625,0 0,114.625 0,256 c 0,141.375 114.625,256 256,256 74.4666,0 165.98059,-56.24982 211.20107,-6.27621 7.01995,-6.00302 19.05366,-4.33301 27.23304,0.0212 C 470.20203,409.23202 512,314.30177 512,256 512,114.625 397.375,0 256,0 Z"
     id="path8712"
     sodipodi:nodetypes="cscsscsssccss"
     style="display:inline;fill:#aa8800" /></g></svg>
