<?xml version="1.0" encoding="UTF-8" standalone="no"?>
<!-- Generator: Adobe Illustrator 16.0.0, SVG Export Plug-In . SVG Version: 6.00 Build 0)  -->

<svg
   version="1.1"
   id="Capa_1"
   x="0px"
   y="0px"
   width="512px"
   height="512px"
   viewBox="0 0 512 512"
   style="enable-background:new 0 0 512 512;"
   xml:space="preserve"
   sodipodi:docname="icon_ppp_card.svg"
   inkscape:version="1.2.2 (b0a8486541, 2022-12-01)"
   xmlns:inkscape="http://www.inkscape.org/namespaces/inkscape"
   xmlns:sodipodi="http://sodipodi.sourceforge.net/DTD/sodipodi-0.dtd"
   xmlns="http://www.w3.org/2000/svg"
   xmlns:svg="http://www.w3.org/2000/svg"><defs
   id="defs39" /><sodipodi:namedview
   id="namedview37"
   pagecolor="#ffffff"
   bordercolor="#000000"
   borderopacity="0.25"
   inkscape:showpageshadow="2"
   inkscape:pageopacity="0.0"
   inkscape:pagecheckerboard="0"
   inkscape:deskcolor="#d1d1d1"
   showgrid="false"
   inkscape:zoom="0.21264649"
   inkscape:cx="-206.91618"
   inkscape:cy="176.34902"
   inkscape:window-width="1852"
   inkscape:window-height="1052"
   inkscape:window-x="68"
   inkscape:window-y="0"
   inkscape:window-maximized="1"
   inkscape:current-layer="g4" />
<g
   id="g4">
	
<path
   style="color:#000000;fill:#aa8800;stroke-linecap:round;stroke-linejoin:round;-inkscape-stroke:none"
   d="m 66.134766,86.75 c -24.104179,0 -44.041016,19.93684 -44.041016,44.04102 v 250.41796 c 0,24.10418 19.936837,44.04102 44.041016,44.04102 H 445.86523 c 24.10418,0 44.04102,-19.93684 44.04102,-44.04102 V 130.79102 c 0,-24.10418 -19.93684,-44.04102 -44.04102,-44.04102 z m 0,34 H 445.86523 c 5.85631,0 10.04102,4.18471 10.04102,10.04102 v 250.41796 c 0,5.85631 -4.18471,10.04102 -10.04102,10.04102 H 66.134766 c -5.856301,0 -10.041016,-4.18471 -10.041016,-10.04102 V 130.79102 c 0,-5.85631 4.184715,-10.04102 10.041016,-10.04102 z"
   id="rect374" /><rect
   style="fill:#aa8800;fill-opacity:1;stroke:none;stroke-width:34;stroke-linecap:round;stroke-linejoin:round;stroke-opacity:1;stop-color:#000000"
   id="rect982"
   width="100.11062"
   height="48.389328"
   x="99.285072"
   y="160.04889"
   rx="0"
   ry="0" /><rect
   style="fill:#aa8800;fill-opacity:1;stroke:none;stroke-width:34;stroke-linecap:round;stroke-linejoin:round;stroke-opacity:1;stop-color:#000000"
   id="rect1137"
   width="159.43544"
   height="34.226597"
   x="99.28508"
   y="254.63765"
   rx="0"
   ry="0" /><rect
   style="fill:#aa8800;fill-opacity:1;stroke:none;stroke-width:34;stroke-linecap:round;stroke-linejoin:round;stroke-opacity:1;stop-color:#000000"
   id="rect1139"
   width="53.145145"
   height="18.883638"
   x="99.28508"
   y="335.06372"
   rx="0"
   ry="0" /><rect
   style="fill:#aa8800;fill-opacity:1;stroke:none;stroke-width:34;stroke-linecap:round;stroke-linejoin:round;stroke-opacity:1;stop-color:#000000"
   id="rect1141"
   width="53.145145"
   height="18.883638"
   x="187.59157"
   y="335.06372"
   rx="0"
   ry="0" /><rect
   style="fill:#aa8800;fill-opacity:1;stroke:none;stroke-width:34;stroke-linecap:round;stroke-linejoin:round;stroke-opacity:1;stop-color:#000000"
   id="rect1143"
   width="53.145145"
   height="18.883638"
   x="275.89807"
   y="335.06372"
   rx="0"
   ry="0" /><rect
   style="fill:#aa8800;fill-opacity:1;stroke:none;stroke-width:34;stroke-linecap:round;stroke-linejoin:round;stroke-opacity:1;stop-color:#000000"
   id="rect1145"
   width="53.145145"
   height="18.883638"
   x="364.20459"
   y="335.06372"
   rx="0"
   ry="0" /></g>















</svg>
