<?xml version="1.0" encoding="UTF-8" standalone="no"?>
<!-- Generator: Adobe Illustrator 16.0.0, SVG Export Plug-In . SVG Version: 6.00 Build 0)  -->

<svg
   version="1.1"
   id="Capa_1"
   x="0px"
   y="0px"
   width="512px"
   height="512px"
   viewBox="0 0 512 512"
   style="enable-background:new 0 0 512 512;"
   xml:space="preserve"
   sodipodi:docname="icon_mik_abon_ip_no.svg"
   inkscape:version="1.2.2 (b0a8486541, 2022-12-01)"
   xmlns:inkscape="http://www.inkscape.org/namespaces/inkscape"
   xmlns:sodipodi="http://sodipodi.sourceforge.net/DTD/sodipodi-0.dtd"
   xmlns="http://www.w3.org/2000/svg"
   xmlns:svg="http://www.w3.org/2000/svg"><defs
   id="defs304" /><sodipodi:namedview
   id="namedview302"
   pagecolor="#ffffff"
   bordercolor="#000000"
   borderopacity="0.25"
   inkscape:showpageshadow="2"
   inkscape:pageopacity="0.0"
   inkscape:pagecheckerboard="0"
   inkscape:deskcolor="#d1d1d1"
   showgrid="false"
   inkscape:zoom="0.85058594"
   inkscape:cx="170.47072"
   inkscape:cy="369.74512"
   inkscape:window-width="1852"
   inkscape:window-height="1052"
   inkscape:window-x="68"
   inkscape:window-y="0"
   inkscape:window-maximized="1"
   inkscape:current-layer="layer1" />
















<g
   inkscape:groupmode="layer"
   id="layer1"
   inkscape:label="Layer 1"><rect
     style="fill:#cccccc;stroke:#808080;stroke-width:15;stroke-linecap:round;stroke-linejoin:round;stroke-dasharray:none;paint-order:markers fill stroke;stop-color:#000000"
     id="rect626"
     width="491.42661"
     height="486.46808"
     x="10.286708"
     y="12.765971"
     rx="25.371109"
     ry="25.371113" /><g
     aria-label="NO"
     transform="scale(0.98302473,1.0172684)"
     id="text356"
     style="font-weight:bold;font-size:174.173px;-inkscape-font-specification:'sans-serif Bold';fill:#ff0000;stroke-width:0.533706;stop-color:#000000"><path
       d="m 243.43888,340.61868 h -33.44121 l -54.16781,-94.05342 h -0.69669 q 0.34835,8.88282 0.69669,17.76565 0.52252,8.88282 0.87087,17.76564 v 58.52213 H 133.18737 V 216.25916 h 33.26705 l 53.99363,93.18256 h 0.52252 q -0.17418,-8.70866 -0.52252,-17.24313 -0.34835,-8.53448 -0.69669,-17.06896 v -58.87047 h 23.68752 z"
       id="path441" /><path
       d="m 387.65408,278.26475 q 0,19.3332 -6.4444,33.78956 -6.27023,14.28219 -19.3332,22.29414 -13.06298,8.01196 -33.44122,8.01196 -20.20407,0 -33.44122,-8.01196 -13.06297,-8.01195 -19.50737,-22.46831 -6.27023,-14.45636 -6.27023,-33.78957 0,-19.3332 6.27023,-33.61539 6.4444,-14.28218 19.50737,-22.11997 13.23715,-8.01196 33.61539,-8.01196 20.20407,0 33.26705,8.01196 13.06297,7.83779 19.3332,22.29415 6.4444,14.28218 6.4444,33.61539 z m -90.74414,0 q 0,19.50737 7.48944,30.82862 7.48944,11.14707 24.03588,11.14707 16.89478,0 24.21005,-11.14707 7.31526,-11.32125 7.31526,-30.82862 0,-19.68155 -7.31526,-30.82862 -7.31527,-11.14708 -24.03588,-11.14708 -16.72061,0 -24.21005,11.14708 -7.48944,11.14707 -7.48944,30.82862 z"
       id="path443" /></g><g
     aria-label="ABON"
     id="text917"
     style="font-weight:bold;font-size:149.486px;-inkscape-font-specification:'sans-serif Bold';fill:#808080;stroke-width:7.10792;stroke-linecap:round;stroke-linejoin:round;paint-order:markers fill stroke;stop-color:#000000"
     transform="matrix(1.0681873,0,0,1.185898,-17.281234,-16.365855)"><path
       d="m 115.44448,156.0282 -7.77327,-25.41262 H 68.804848 L 61.031576,156.0282 H 36.665359 L 74.33583,48.846742 h 27.65491 L 139.81069,156.0282 Z M 94.516439,86.816184 q -0.74743,-2.541262 -1.943318,-6.427898 -1.195888,-3.886636 -2.391776,-7.922758 -1.195888,-4.036121 -1.943318,-7.025841 -0.74743,2.98972 -2.092804,7.474299 -1.195888,4.335094 -2.391776,8.371216 -1.046402,3.886636 -1.644346,5.530982 l -7.623785,24.814676 h 27.804394 z"
       id="path2915"
       style="fill:#808080;stroke-width:7.10792" /><path
       d="m 186.45041,49.2952 q 21.37649,0 32.28897,5.979439 10.91248,5.97944 10.91248,21.077525 0,9.118646 -4.3351,15.397057 -4.1856,6.278412 -12.10836,7.623786 v 0.747433 q 5.38149,1.0464 9.71659,3.73715 4.33509,2.69074 6.87635,7.77327 2.54127,5.08252 2.54127,13.45374 0,14.50014 -10.46402,22.72187 -10.46402,8.22173 -28.70131,8.22173 H 153.26452 V 49.2952 Z m 2.54126,42.304536 q 9.86607,0 13.60322,-3.139206 3.88664,-3.139206 3.88664,-9.118646 0,-6.128926 -4.48458,-8.819673 -4.48458,-2.690748 -14.20117,-2.690748 H 175.8369 V 91.599736 Z M 175.8369,109.53805 v 27.8044 h 14.79911 q 10.16505,0 14.20117,-3.88664 4.03612,-4.03612 4.03612,-10.6135 0,-5.97944 -4.1856,-9.56711 -4.03613,-3.73715 -14.79912,-3.73715 z"
       id="path2917"
       style="fill:#808080;stroke-width:7.10792" /><path
       d="m 350.58615,102.51221 q 0,16.59295 -5.53098,29.00029 -5.3815,12.25785 -16.59295,19.1342 -11.21145,6.87636 -28.70131,6.87636 -17.34037,0 -28.70131,-6.87636 -11.21145,-6.87635 -16.74243,-19.28369 -5.38149,-12.40734 -5.38149,-29.00028 0,-16.592948 5.38149,-28.8508 5.53098,-12.257851 16.74243,-18.984721 11.36094,-6.876355 28.8508,-6.876355 17.34037,0 28.55182,6.876355 11.21145,6.72687 16.59295,19.134207 5.53098,12.257852 5.53098,28.850794 z m -77.8822,0 q 0,16.74243 6.4279,26.45902 6.42789,9.56711 20.62906,9.56711 14.50014,0 20.77856,-9.56711 6.27841,-9.71659 6.27841,-26.45902 0,-16.891914 -6.27841,-26.459018 -6.27842,-9.567103 -20.62907,-9.567103 -14.35066,0 -20.77855,9.567103 -6.4279,9.567104 -6.4279,26.459018 z"
       id="path2919"
       style="fill:#808080;stroke-width:7.10792" /><path
       d="M 467.33464,156.0282 H 438.63333 L 392.14319,75.305762 h -0.59794 q 0.29897,7.623786 0.59794,15.247572 0.44846,7.623785 0.74743,15.247566 v 50.2273 H 372.71001 V 49.2952 h 28.55183 l 46.34065,79.97501 h 0.44846 q -0.14949,-7.4743 -0.44846,-14.79912 -0.29897,-7.32481 -0.59794,-14.649625 V 49.2952 h 20.33009 z"
       id="path2921"
       style="fill:#808080;stroke-width:7.10792" /></g><g
     id="g997"
     transform="matrix(1.0245098,0,0,1.0245174,1.7799164,-6.2764422)"
     style="fill:#f9f9f9;stroke-width:0.976073"><circle
       style="fill:#f9f9f9;stroke:none;stroke-width:19.5215;stroke-linecap:round;stroke-linejoin:round;stroke-dasharray:none;paint-order:stroke fill markers;stop-color:#000000"
       id="circle5125"
       cx="96.416557"
       cy="420.97333"
       r="40.459419" /><circle
       style="fill:#f9f9f9;stroke:none;stroke-width:19.5215;stroke-linecap:round;stroke-linejoin:round;stroke-dasharray:none;paint-order:stroke fill markers;stop-color:#000000"
       id="circle5127"
       cx="197.59531"
       cy="420.97333"
       r="40.459419" /><circle
       style="fill:#f9f9f9;stroke:none;stroke-width:19.5215;stroke-linecap:round;stroke-linejoin:round;stroke-dasharray:none;paint-order:stroke fill markers;stop-color:#000000"
       id="circle5129"
       cx="298.71216"
       cy="420.97333"
       r="40.459419" /><circle
       style="fill:#f9f9f9;stroke:none;stroke-width:19.5215;stroke-linecap:round;stroke-linejoin:round;stroke-dasharray:none;paint-order:stroke fill markers;stop-color:#000000"
       id="circle935"
       cx="399.85999"
       cy="420.97333"
       r="40.459419" /></g></g></svg>
