<?xml version="1.0" encoding="UTF-8" standalone="no"?>
<!-- Created with Inkscape (http://www.inkscape.org/) -->

<svg
   width="32"
   height="32"
   viewBox="0 0 8.4666665 8.4666666"
   version="1.1"
   id="svg5"
   xml:space="preserve"
   inkscape:version="1.2.2 (b0a8486541, 2022-12-01)"
   sodipodi:docname="icon_buh_report.svg"
   xmlns:inkscape="http://www.inkscape.org/namespaces/inkscape"
   xmlns:sodipodi="http://sodipodi.sourceforge.net/DTD/sodipodi-0.dtd"
   xmlns="http://www.w3.org/2000/svg"
   xmlns:svg="http://www.w3.org/2000/svg"><sodipodi:namedview
     id="namedview7"
     pagecolor="#ffffff"
     bordercolor="#000000"
     borderopacity="0.25"
     inkscape:showpageshadow="2"
     inkscape:pageopacity="0.0"
     inkscape:pagecheckerboard="true"
     inkscape:deskcolor="#d1d1d1"
     inkscape:document-units="mm"
     showgrid="false"
     inkscape:zoom="6.2074636"
     inkscape:cx="14.74032"
     inkscape:cy="20.53979"
     inkscape:window-width="1852"
     inkscape:window-height="1052"
     inkscape:window-x="68"
     inkscape:window-y="0"
     inkscape:window-maximized="1"
     inkscape:current-layer="layer2" /><defs
     id="defs2" /><g
     inkscape:groupmode="layer"
     id="layer2"
     inkscape:label="Слой 2"><rect
       style="fill:#ffffff;stroke:none;stroke-width:0.499999;stroke-dasharray:none"
       id="rect1145"
       width="5.490006"
       height="6.4484434"
       x="1.5101475"
       y="1.1856273"
       rx="0.28572294"
       ry="0.24884804" /><g
       id="g403"
       transform="translate(0.75872397,0.20511581)"><path
         style="color:#000000;font-variation-settings:normal;vector-effect:none;fill:#d4aa00;fill-opacity:1;stroke:#333333;stroke-width:0.2;stroke-linecap:butt;stroke-linejoin:miter;stroke-miterlimit:4;stroke-dasharray:none;stroke-dashoffset:0;stroke-opacity:1;-inkscape-stroke:none;stop-color:#000000"
         d="m 1.0283203,0.76067709 c -0.27514946,0 -0.53710938,0.2080803 -0.53710938,0.50000001 v 5.9589844 c 0,0.2919197 0.26195992,0.4980469 0.53710938,0.4980468 h 4.8945312 c 0.2751495,0 0.5351563,-0.2061271 0.5351563,-0.4980468 V 1.2606771 c 0,-0.29191971 -0.2600068,-0.50000001 -0.5351563,-0.50000001 z M 0.9912113,1.2606771 c 0,0.016196 -0.00432,0 0.037109,0 h 4.8945312 c 0.041431,0 0.035156,0.016196 0.035156,0 v 5.9589844 c 0,-0.016196 0.00627,-0.00195 -0.035156,-0.00195 H 1.0283203 c -0.041431,0 -0.037109,-0.014243 -0.037109,0.00195 z"
         id="path1278" /><path
         style="color:#000000;fill:#d4aa00;-inkscape-stroke:none"
         d="m 1.0283203,0.76067709 c -0.27514947,0 -0.53710937,0.2080803 -0.53710937,0.50000001 v 5.9589844 c 0,0.2919197 0.2619599,0.4980469 0.53710937,0.4980468 h 4.894531 c 0.27515,0 0.535156,-0.2061271 0.535156,-0.4980468 V 1.2606771 c 0,-0.29191971 -0.260006,-0.50000001 -0.535156,-0.50000001 z M 0.9912113,1.2606771 c 0,0.016196 -0.00432,0 0.037109,0 h 4.894531 c 0.04143,0 0.03516,0.016196 0.03516,0 v 5.9589844 c 0,-0.016196 0.0063,-0.00195 -0.03516,-0.00195 h -4.894531 c -0.041431,0 -0.037109,-0.014243 -0.037109,0.00195 z"
         id="rect355" /></g><g
       id="g969"
       transform="translate(1.0583333,2.6458334)"><path
         style="color:#000000;font-variation-settings:normal;vector-effect:none;fill:#d4aa00;fill-opacity:1;stroke:#333333;stroke-width:0.2;stroke-linecap:butt;stroke-linejoin:miter;stroke-miterlimit:4;stroke-dasharray:none;stroke-dashoffset:0;stroke-opacity:1;-inkscape-stroke:none;stop-color:#000000"
         d="m 4.9785933,-2.226143 h -0.5 v 1.72503326 h 0.5 z"
         id="path371" /><path
         style="color:#000000;fill:#d4aa00;stroke-width:0.999997;-inkscape-stroke:none"
         d="m 4.9785933,-2.226143 h -0.5 v 1.72503327 h 0.5 z"
         id="path383" /></g><g
       id="g973"
       transform="translate(0.52916665,2.6458334)"><path
         style="color:#000000;font-variation-settings:normal;vector-effect:none;fill:#d4aa00;fill-opacity:1;stroke:#333333;stroke-width:0.2;stroke-linecap:butt;stroke-linejoin:miter;stroke-miterlimit:4;stroke-dasharray:none;stroke-dashoffset:0;stroke-opacity:1;-inkscape-stroke:none;stop-color:#000000"
         d="m 3.9880733,-2.226143 h -0.5 v 1.72503326 h 0.5 z"
         id="path369" /><path
         style="color:#000000;fill:#d4aa00;stroke-width:0.999997;-inkscape-stroke:none"
         d="m 3.9880733,-2.226143 h -0.5 v 1.72503327 h 0.5 z"
         id="path381" /></g><g
       id="g977"
       transform="translate(0,2.6458334)"><path
         style="color:#000000;font-variation-settings:normal;vector-effect:none;fill:#d4aa00;fill-opacity:1;stroke:#333333;stroke-width:0.2;stroke-linecap:butt;stroke-linejoin:miter;stroke-miterlimit:4;stroke-dasharray:none;stroke-dashoffset:0;stroke-opacity:1;-inkscape-stroke:none;stop-color:#000000"
         d="m 2.9975533,-2.226143 h -0.5 v 1.72503326 h 0.5 z"
         id="path363" /><path
         style="color:#000000;fill:#d4aa00;stroke-width:0.999997;-inkscape-stroke:none"
         d="m 2.9975533,-2.226143 h -0.5 v 1.72503327 h 0.5 z"
         id="path365" /></g><g
       id="g1011"
       transform="matrix(1.3439431,0,0,1,-11.701455,3.9072951)"
       style="stroke-width:0.8626"><path
         style="color:#000000;font-variation-settings:normal;vector-effect:none;fill:#d4aa00;fill-opacity:1;stroke:#333333;stroke-width:0.17252;stroke-linecap:butt;stroke-linejoin:miter;stroke-miterlimit:4;stroke-dasharray:none;stroke-dashoffset:0;stroke-opacity:1;-inkscape-stroke:none;stop-color:#000000"
         d="m 10.59951,-0.80666343 v 0.5 h 2.478516 v -0.5 z"
         id="path989" /><path
         style="color:#000000;fill:#d4aa00;stroke-width:0.8626;-inkscape-stroke:none"
         d="m 10.59951,-0.80666343 v 0.5 h 2.478516 v -0.5 z"
         id="path1001" /></g><g
       id="g1015"
       transform="matrix(1.3439431,0,0,1,-11.701455,4.3405591)"
       style="stroke-width:0.8626"><path
         style="color:#000000;font-variation-settings:normal;vector-effect:none;fill:#d4aa00;fill-opacity:1;stroke:#333333;stroke-width:0.17252;stroke-linecap:butt;stroke-linejoin:miter;stroke-miterlimit:4;stroke-dasharray:none;stroke-dashoffset:0;stroke-opacity:1;-inkscape-stroke:none;stop-color:#000000"
         d="m 10.59951,0.18385679 v 0.5 h 2.478516 v -0.5 z"
         id="path987" /><path
         style="color:#000000;fill:#d4aa00;stroke-width:0.8626;-inkscape-stroke:none"
         d="m 10.59951,0.18385679 v 0.5 h 2.478516 v -0.5 z"
         id="path999" /></g><g
       id="g1019"
       transform="matrix(1.3439431,0,0,1,-11.701455,4.7738232)"
       style="stroke-width:0.8626"><path
         style="color:#000000;font-variation-settings:normal;vector-effect:none;fill:#d4aa00;fill-opacity:1;stroke:#333333;stroke-width:0.17252;stroke-linecap:butt;stroke-linejoin:miter;stroke-miterlimit:4;stroke-dasharray:none;stroke-dashoffset:0;stroke-opacity:1;-inkscape-stroke:none;stop-color:#000000"
         d="m 10.59951,1.174377 v 0.5 h 2.478516 v -0.5 z"
         id="path981" /><path
         style="color:#000000;fill:#d4aa00;stroke-width:0.8626;-inkscape-stroke:none"
         d="m 10.59951,1.174377 v 0.5 h 2.478516 v -0.5 z"
         id="path983" /></g></g></svg>
