<?xml version="1.0" encoding="UTF-8" standalone="no"?>
<!-- Generator: Adobe Illustrator 16.0.0, SVG Export Plug-In . SVG Version: 6.00 Build 0)  -->

<svg
   version="1.1"
   id="Capa_1"
   x="0px"
   y="0px"
   width="512px"
   height="512px"
   viewBox="0 0 512 512"
   style="enable-background:new 0 0 512 512;"
   xml:space="preserve"
   sodipodi:docname="icon_dhcp_gray.svg"
   inkscape:version="1.2.2 (b0a8486541, 2022-12-01)"
   xmlns:inkscape="http://www.inkscape.org/namespaces/inkscape"
   xmlns:sodipodi="http://sodipodi.sourceforge.net/DTD/sodipodi-0.dtd"
   xmlns="http://www.w3.org/2000/svg"
   xmlns:svg="http://www.w3.org/2000/svg"><defs
   id="defs304" /><sodipodi:namedview
   id="namedview302"
   pagecolor="#ffffff"
   bordercolor="#000000"
   borderopacity="0.25"
   inkscape:showpageshadow="2"
   inkscape:pageopacity="0.0"
   inkscape:pagecheckerboard="0"
   inkscape:deskcolor="#d1d1d1"
   showgrid="false"
   inkscape:zoom="0.85058594"
   inkscape:cx="275.10448"
   inkscape:cy="342.70494"
   inkscape:window-width="1852"
   inkscape:window-height="1052"
   inkscape:window-x="68"
   inkscape:window-y="0"
   inkscape:window-maximized="1"
   inkscape:current-layer="layer1" />
















<g
   inkscape:groupmode="layer"
   id="layer1"
   inkscape:label="Layer 1"><rect
     style="fill:#cccccc;fill-opacity:1;stroke:#000000;stroke-width:15;stroke-linecap:round;stroke-linejoin:round;stroke-dasharray:none;paint-order:stroke fill markers;stop-color:#000000"
     id="rect4379"
     width="479.66998"
     height="305.53149"
     x="16.963709"
     y="112.54099"
     rx="25.371109"
     ry="25.371113" /><rect
     style="fill:none;stroke:#666666;stroke-width:15;stroke-linecap:round;stroke-linejoin:round;stroke-dasharray:none;paint-order:stroke fill markers;stop-color:#000000"
     id="rect626"
     width="479.66998"
     height="305.53149"
     x="16.963709"
     y="112.54099"
     rx="25.371109"
     ry="25.371113" /><g
     aria-label="DHCP"
     id="text1283"
     style="font-size:158.056px;stroke-width:15.0001;stroke-linecap:round;stroke-linejoin:round;paint-order:stroke fill markers;stop-color:#000000;fill:#666666"
     transform="translate(0,8)"><path
       d="m 144.11542,195.98159 q 0,28.60814 -16.27977,43.14929 -16.12171,14.3831 -45.36207,14.3831 H 50.546268 V 140.66199 h 35.404544 q 17.702268,0 30.662868,6.32224 13.11864,6.32224 20.23116,18.65061 7.27058,12.17031 7.27058,30.34675 z m -24.81479,0.63223 q 0,-18.80867 -8.21891,-27.50175 -8.21892,-8.85113 -23.86646,-8.85113 H 74.412724 v 73.49604 h 10.27364 q 34.614266,0 34.614266,-37.14316 z"
       style="font-weight:bold;-inkscape-font-specification:'sans-serif Bold';fill:#666666"
       id="path6078" /><path
       d="m 259.97043,253.51398 h -23.86646 v -48.68125 h -44.72984 v 48.68125 H 167.50767 V 140.66199 h 23.86646 v 44.25568 h 44.72984 v -44.25568 h 23.86646 z"
       style="font-weight:bold;-inkscape-font-specification:'sans-serif Bold';fill:#666666"
       id="path6080" /><path
       d="m 336.31138,158.99649 q -13.75087,0 -21.02145,10.27364 -7.27057,10.27364 -7.27057,28.13397 0,18.01838 6.63835,27.97591 6.79641,9.79947 21.65367,9.79947 6.95447,0 13.75087,-1.58056 6.95447,-1.58056 15.01532,-4.42557 v 20.07312 q -7.42863,3.00306 -14.6992,4.42556 -7.27058,1.42251 -16.27977,1.42251 -17.38616,0 -28.76619,-7.11252 -11.22198,-7.27058 -16.59588,-20.23117 -5.37391,-13.11865 -5.37391,-30.50481 0,-17.07005 6.16419,-30.18869 6.16418,-13.11865 17.86032,-20.54728 11.8542,-7.42864 28.92425,-7.42864 8.37697,0 16.75394,2.21279 8.53502,2.05473 16.27977,5.69001 l -7.74475,19.44089 q -6.32224,-3.00306 -12.80253,-5.21585 -6.32224,-2.21278 -12.48643,-2.21278 z"
       style="font-weight:bold;-inkscape-font-specification:'sans-serif Bold';fill:#666666"
       id="path6082" /><path
       d="m 425.1387,140.66199 q 21.81173,0 31.76926,9.48336 10.11558,9.32531 10.11558,25.76313 0,9.79947 -4.10946,18.49255 -4.10945,8.53503 -13.75087,13.75088 -9.48336,5.21584 -25.92118,5.21584 h -10.27364 v 40.14623 H 389.10193 V 140.66199 Z m -1.26445,19.59895 h -10.90586 v 33.50787 h 7.9028 q 10.11558,0 15.96365,-3.9514 6.00613,-4.10946 6.00613,-13.11865 0,-16.43782 -18.96672,-16.43782 z"
       style="font-weight:bold;-inkscape-font-specification:'sans-serif Bold';fill:#666666"
       id="path6084" /></g><path
     style="fill:#000000;stroke:#666666;stroke-width:20;stroke-linecap:round;stroke-linejoin:round;stroke-dasharray:none;paint-order:stroke fill markers;stop-color:#000000"
     d="M 305.3001,375.17398 H 454.65127"
     id="path3576" /><path
     style="fill:#000000;stroke:#666666;stroke-width:20;stroke-linecap:round;stroke-linejoin:round;stroke-dasharray:none;paint-order:stroke fill markers;stop-color:#000000"
     d="M 305.3001,337.55286 H 454.65127"
     id="path4304" /><path
     style="fill:#000000;stroke:#666666;stroke-width:20;stroke-linecap:round;stroke-linejoin:round;stroke-dasharray:none;paint-order:stroke fill markers;stop-color:#000000"
     d="M 305.3001,301.1074 H 454.65127"
     id="path4306" /><path
     style="fill:#000000;stroke:#666666;stroke-width:20;stroke-linecap:round;stroke-linejoin:round;stroke-dasharray:none;paint-order:stroke fill markers;stop-color:#000000"
     d="M 65.3001,301.1074 H 214.65127"
     id="path4395" /><circle
     style="fill:#666666;stroke:none;stroke-width:20;stroke-linecap:round;stroke-linejoin:round;stroke-dasharray:none;paint-order:stroke fill markers;stop-color:#000000"
     id="circle5125"
     cx="79.957321"
     cy="356.31204"
     r="24.000179" /><circle
     style="fill:#666666;stroke:none;stroke-width:20;stroke-linecap:round;stroke-linejoin:round;stroke-dasharray:none;paint-order:stroke fill markers;stop-color:#000000"
     id="circle5127"
     cx="139.97568"
     cy="356.31204"
     r="24.000179" /><circle
     style="fill:#666666;stroke:none;stroke-width:20;stroke-linecap:round;stroke-linejoin:round;stroke-dasharray:none;paint-order:stroke fill markers;stop-color:#000000"
     id="circle5129"
     cx="199.95732"
     cy="356.31204"
     r="24.000179" /></g></svg>
