<?xml version="1.0" encoding="UTF-8" standalone="no"?>
<!-- Created with Inkscape (http://www.inkscape.org/) -->

<svg
   version="1.1"
   id="svg2"
   width="20.48"
   height="20.48"
   viewBox="0 0 20.48 20.48"
   sodipodi:docname="icon_edit_record.svg"
   inkscape:version="1.2.2 (b0a8486541, 2022-12-01)"
   xmlns:inkscape="http://www.inkscape.org/namespaces/inkscape"
   xmlns:sodipodi="http://sodipodi.sourceforge.net/DTD/sodipodi-0.dtd"
   xmlns="http://www.w3.org/2000/svg"
   xmlns:svg="http://www.w3.org/2000/svg">
  <defs
     id="defs6" />
  <sodipodi:namedview
     id="namedview4"
     pagecolor="#ffffff"
     bordercolor="#000000"
     borderopacity="0.25"
     inkscape:showpageshadow="2"
     inkscape:pageopacity="0.0"
     inkscape:pagecheckerboard="true"
     inkscape:deskcolor="#d1d1d1"
     showgrid="false"
     inkscape:zoom="60.14551"
     inkscape:cx="7.6065528"
     inkscape:cy="6.7253565"
     inkscape:window-width="1852"
     inkscape:window-height="1052"
     inkscape:window-x="68"
     inkscape:window-y="0"
     inkscape:window-maximized="1"
     inkscape:current-layer="g8" />
  <g
     inkscape:groupmode="layer"
     inkscape:label="Image"
     id="g8">
    <path
       id="path1758"
       style="color:#000000;fill:#d4aa00;fill-opacity:1;stroke:#333333;stroke-width:0.3;stroke-dasharray:none"
       d="m 3.1425781,13.474609 v 1.5 h 8.9238279 v -1.5 z m 0,-3.201171 v 1.5 h 8.9238279 v -1.5 z m 0,-3.1582036 v 1.5 h 8.9238279 v -1.5 z M 1.8964844,3.0292969 c -0.8122059,0 -1.52343752,0.6571293 -1.52343752,1.4882812 V 16.705078 c -1e-8,0.831152 0.71123162,1.488281 1.52343752,1.488281 H 13.425781 c 0.812206,0 1.525391,-0.657129 1.525391,-1.488281 V 4.5175781 c 0,-0.8311519 -0.713185,-1.4882812 -1.525391,-1.4882812 z m -0.023437,1.4882812 c 0,0.014317 -0.022199,0.011719 0.023437,0.011719 H 13.425781 c 0.04564,0 0.02539,0.0026 0.02539,-0.011719 V 16.705078 c 0,-0.01432 0.02025,-0.01172 -0.02539,-0.01172 H 1.8964844 c -0.045636,0 -0.023437,-0.0026 -0.023437,0.01172 z" />
    <path
       style="color:#000000;fill:#d4aa00;stroke-linecap:round;stroke-linejoin:round;fill-opacity:1;stroke:#333333;stroke-width:0.3;stroke-dasharray:none"
       d="m 6.1992187,2.2876393 c -0.831981,0 -1.5800781,0.610285 -1.5800781,1.4394531 v 0.072266 c 0,0.8291681 0.7480971,1.4394531 1.5800781,1.4394531 h 2.9941407 c 0.8319806,0 1.5800786,-0.610285 1.5800786,-1.4394531 v -0.072266 c 0,-0.8291681 -0.748098,-1.4394531 -1.5800786,-1.4394531 z m 0,1 h 2.9941407 c 0.3645446,0 0.5800781,0.2265171 0.5800781,0.4394531 v 0.072266 c 0,0.2129361 -0.2155335,0.4394531 -0.5800781,0.4394531 H 6.1992187 c -0.3645446,0 -0.5800781,-0.226517 -0.5800781,-0.4394531 v -0.072266 c 0,-0.212936 0.2155335,-0.4394531 0.5800781,-0.4394531 z"
       id="path1760" />
    <path
       id="path1069"
       style="color:#000000;fill:#d4aa00;-inkscape-stroke:none;fill-opacity:1"
       d="m 3.1425781,13.474609 v 1.5 h 8.9238279 v -1.5 z m 0,-3.201171 v 1.5 h 8.9238279 v -1.5 z m 0,-3.1582036 v 1.5 h 8.9238279 v -1.5 z M 1.8964844,3.0292969 c -0.8122059,0 -1.52343752,0.6571293 -1.52343752,1.4882812 V 16.705078 c -1e-8,0.831152 0.71123162,1.488281 1.52343752,1.488281 H 13.425781 c 0.812206,0 1.525391,-0.657129 1.525391,-1.488281 V 4.5175781 c 0,-0.8311519 -0.713185,-1.4882812 -1.525391,-1.4882812 z m -0.023437,1.4882812 c 0,0.014317 -0.022199,0.011719 0.023437,0.011719 H 13.425781 c 0.04564,0 0.02539,0.0026 0.02539,-0.011719 V 16.705078 c 0,-0.01432 0.02025,-0.01172 -0.02539,-0.01172 H 1.8964844 c -0.045636,0 -0.023437,-0.0026 -0.023437,0.01172 z" />
    <path
       style="color:#000000;fill:#ffffff;stroke-linecap:round;stroke-linejoin:round;-inkscape-stroke:none"
       d="m 6.1987138,2.7872936 h 2.9941177 c 0.5982634,0 1.0798975,0.4194755 1.0798975,0.9405281 v 0.070743 c 0,0.5210526 -0.4816341,0.9405282 -1.0798975,0.9405282 H 6.1987138 c -0.5982634,0 -1.0798979,-0.4194756 -1.0798979,-0.9405282 v -0.070743 c 0,-0.5210526 0.4816345,-0.9405281 1.0798979,-0.9405281 z"
       id="path2792" />
    <path
       style="color:#000000;fill:#d4aa00;stroke-linecap:round;stroke-linejoin:round;-inkscape-stroke:none;fill-opacity:1"
       d="m 6.1992187,2.2876393 c -0.831981,0 -1.5800781,0.610285 -1.5800781,1.4394531 v 0.072266 c 0,0.8291681 0.7480971,1.4394531 1.5800781,1.4394531 h 2.9941407 c 0.8319806,0 1.5800786,-0.610285 1.5800786,-1.4394531 v -0.072266 c 0,-0.8291681 -0.748098,-1.4394531 -1.5800786,-1.4394531 z m 0,1 h 2.9941407 c 0.3645446,0 0.5800781,0.2265171 0.5800781,0.4394531 v 0.072266 c 0,0.2129361 -0.2155335,0.4394531 -0.5800781,0.4394531 H 6.1992187 c -0.3645446,0 -0.5800781,-0.226517 -0.5800781,-0.4394531 v -0.072266 c 0,-0.212936 0.2155335,-0.4394531 0.5800781,-0.4394531 z"
       id="path2794" />
    <path
       id="path2800"
       style="fill:#008000;stroke:#ffffff;stroke-width:1.7;stroke-linecap:butt;stroke-linejoin:miter;stroke-dasharray:none"
       d="m 16.08735,4.4663483 3.367383,3.4834003 C 20.192338,7.3022952 19.986702,6.6980882 19.873493,6.0655102 19.760285,5.4329322 18.422953,4.127665 17.801308,4.0213492 17.179662,3.9150334 16.779935,3.847918 16.08735,4.4663483 Z m -1.326263,1.2615382 0.703838,-0.7262508 3.475397,3.4513042 -0.681134,0.6581648 z m 0.800165,1.8211338 0.703838,0.6808601 -4.904163,4.9475836 -0.840066,-0.771641 z m 2.117024,2.1161735 -5.403662,5.2880132 c -1.984992,0.05082 -3.6378124,1.219743 -4.0923124,0.675354 -0.4545,-0.54439 0.731294,-2.113482 0.721034,-4.204145 L 14.284294,6.1364026 14.948232,6.8227695 9.5445696,12.178869 11.63338,14.153364 16.991634,8.9788266 Z" />
    <path
       id="path1239"
       style="fill:#008000;stroke:none;stroke-width:1.5;stroke-linecap:butt;stroke-linejoin:miter;stroke-dasharray:none"
       d="m 16.08735,4.4663483 3.367383,3.4834003 C 20.192338,7.3022952 19.986702,6.6980882 19.873493,6.0655102 19.760285,5.4329322 18.422953,4.127665 17.801308,4.0213492 17.179662,3.9150334 16.779935,3.847918 16.08735,4.4663483 Z m -1.326263,1.2615382 0.703838,-0.7262508 3.475397,3.4513042 -0.681134,0.6581648 z m 0.800165,1.8211338 0.703838,0.6808601 -4.904163,4.9475836 -0.840066,-0.771641 z m 2.117024,2.1161735 -5.403662,5.2880132 c -1.984992,0.05082 -3.637813,1.219743 -4.092313,0.675354 -0.4544996,-0.54439 0.731295,-2.113482 0.721034,-4.204145 l 5.380959,-5.2880134 0.663938,0.6863669 -5.403663,5.3560995 2.088811,1.974495 5.358254,-5.1745374 z" />
  </g>
</svg>
