<?xml version="1.0" encoding="UTF-8" standalone="no"?>
<!-- Created with Inkscape (http://www.inkscape.org/) -->

<svg
   width="128"
   height="128"
   viewBox="0 0 33.866666 33.866667"
   version="1.1"
   id="svg5"
   xml:space="preserve"
   inkscape:version="1.2.2 (b0a8486541, 2022-12-01)"
   sodipodi:docname="icon_trash.svg"
   xmlns:inkscape="http://www.inkscape.org/namespaces/inkscape"
   xmlns:sodipodi="http://sodipodi.sourceforge.net/DTD/sodipodi-0.dtd"
   xmlns:xlink="http://www.w3.org/1999/xlink"
   xmlns="http://www.w3.org/2000/svg"
   xmlns:svg="http://www.w3.org/2000/svg"><sodipodi:namedview
     id="namedview7"
     pagecolor="#ffffff"
     bordercolor="#000000"
     borderopacity="0.25"
     inkscape:showpageshadow="2"
     inkscape:pageopacity="0.0"
     inkscape:pagecheckerboard="true"
     inkscape:deskcolor="#d1d1d1"
     inkscape:document-units="mm"
     showgrid="false"
     inkscape:zoom="0.77593294"
     inkscape:cx="-76.681884"
     inkscape:cy="-183.64989"
     inkscape:window-width="1852"
     inkscape:window-height="1052"
     inkscape:window-x="68"
     inkscape:window-y="0"
     inkscape:window-maximized="1"
     inkscape:current-layer="layer2" /><defs
     id="defs2" /><g
     inkscape:label="SRC"
     inkscape:groupmode="layer"
     id="layer1"
     sodipodi:insensitive="true"
     style="display:none"><image
       width="33.156067"
       height="33.156067"
       preserveAspectRatio="none"
       xlink:href="icon_trash_src.png"
       id="image140"
       x="0.48955595"
       y="0.46064702"
       style="stroke-width:25.5359" /></g><g
     inkscape:groupmode="layer"
     id="layer2"
     inkscape:label="Слой"><circle
       style="opacity:0.8;fill:#ffd42a;stroke:none;stroke-width:0.793751;stroke-linecap:round;stroke-linejoin:round;stroke-opacity:0.933333"
       id="path596"
       cx="16.933332"
       cy="16.933332"
       r="16.772316" /><path
       id="path357"
       style="opacity:0.8;fill:#aa0000;stroke:none;stroke-width:0.79375;stroke-linecap:round;stroke-linejoin:round;stroke-opacity:0.933333"
       d="M 8.9960841,9.5459665 9.6810878,27.239246 c 0.060692,1.566956 0.1851894,1.904555 1.6648032,1.904555 h 11.375954 c 1.577804,0 1.681083,-0.420668 1.740033,-1.954707 L 25.140154,9.5484128 Z m 4.6451819,1.6323885 0.29663,15.991779 -2.610965,-0.01284 -0.674607,-15.966092 z m 1.651959,0.0067 3.563243,0.0062 -0.302747,15.972819 -2.963865,0.01224 z m 5.190126,0 2.985882,0.0018 -0.659927,15.980158 h -2.612799 z" /><path
       id="circle571"
       style="opacity:0.8;fill:#aa0000;stroke-width:0.79375;stroke-linecap:round;stroke-linejoin:round;stroke-opacity:0.933333"
       d="M 14.997817,5.5062796 C 14.219599,5.5063155 13.570453,6.0570429 13.418028,6.79005 H 9.2278837 c -0.5516152,-2e-7 -0.9987596,0.4471444 -0.9987596,0.9987599 10e-8,0.5516154 0.4471445,0.9987605 0.9987596,0.9987605 H 24.902849 c 0.551616,0 0.998759,-0.4471451 0.998759,-0.9987605 0,-0.5516155 -0.447143,-0.9987602 -0.998759,-0.9987599 H 20.691911 C 20.539485,6.0570429 19.890338,5.5063155 19.11212,5.5062796 Z m -0.146175,0.6428026 h 4.434176 c 0.375758,1.22e-4 0.686152,0.2790063 0.736379,0.6409678 h -5.907546 c 0.05028,-0.362156 0.361015,-0.6411543 0.736991,-0.6409678 z" /></g></svg>
