<?xml version="1.0" encoding="UTF-8" standalone="no"?>
<!-- Generator: Adobe Illustrator 16.0.0, SVG Export Plug-In . SVG Version: 6.00 Build 0)  -->

<svg
   version="1.1"
   id="Capa_1"
   x="0px"
   y="0px"
   width="512px"
   height="512px"
   viewBox="0 0 512 512"
   style="enable-background:new 0 0 512 512;"
   xml:space="preserve"
   sodipodi:docname="icon_mik_abon_ip_off_red.svg"
   inkscape:version="1.2.2 (b0a8486541, 2022-12-01)"
   xmlns:inkscape="http://www.inkscape.org/namespaces/inkscape"
   xmlns:sodipodi="http://sodipodi.sourceforge.net/DTD/sodipodi-0.dtd"
   xmlns="http://www.w3.org/2000/svg"
   xmlns:svg="http://www.w3.org/2000/svg"><defs
   id="defs304" /><sodipodi:namedview
   id="namedview302"
   pagecolor="#ffffff"
   bordercolor="#000000"
   borderopacity="0.25"
   inkscape:showpageshadow="2"
   inkscape:pageopacity="0.0"
   inkscape:pagecheckerboard="0"
   inkscape:deskcolor="#d1d1d1"
   showgrid="false"
   inkscape:zoom="0.10632324"
   inkscape:cx="-771.23306"
   inkscape:cy="1312.0367"
   inkscape:window-width="1852"
   inkscape:window-height="1052"
   inkscape:window-x="68"
   inkscape:window-y="0"
   inkscape:window-maximized="1"
   inkscape:current-layer="layer1" />
















<g
   inkscape:groupmode="layer"
   id="layer1"
   inkscape:label="Layer 1"><rect
     style="fill:#ff0000;stroke:#808080;stroke-width:15;stroke-linecap:round;stroke-linejoin:round;stroke-dasharray:none;paint-order:markers fill stroke;stop-color:#000000"
     id="rect626"
     width="491.42661"
     height="486.46808"
     x="10.286708"
     y="12.765971"
     rx="25.371109"
     ry="25.371113" /><path
     id="path460"
     style="font-weight:bold;font-size:207.703px;-inkscape-font-specification:'sans-serif Bold';fill:#000000;stroke-width:8;stroke-linecap:round;stroke-linejoin:round;paint-order:markers fill stroke"
     d="M 386.6984,356.39407 H 354.99212 V 204.45819 h 87.03265 v 26.38662 H 386.6984 v 39.15435 h 51.49608 v 26.38662 H 386.6984 Z m -116.82375,0 H 238.16838 V 204.45819 h 87.03265 v 26.38662 h -55.32638 v 39.15435 h 51.49609 v 26.38662 H 269.87465 Z M 206.675,280.21334 q 0,23.62028 -7.87337,41.28229 -7.66058,17.44922 -23.62011,27.23781 -15.95953,9.78859 -40.8564,9.78859 -24.68408,0 -40.85641,-9.78859 -15.959524,-9.78859 -23.832893,-27.4506 -7.660575,-17.66202 -7.660575,-41.2823 0,-23.62029 7.660575,-41.0695 7.873369,-17.44922 23.832893,-27.025 16.17233,-9.78859 41.0692,-9.78859 24.68408,0 40.64361,9.78859 15.95953,9.57578 23.62011,27.2378 7.87337,17.44922 7.87337,41.0695 z m -110.86555,0 q 0,23.83308 9.15013,37.66477 9.15014,13.6189 29.36554,13.6189 20.64099,0 29.57833,-13.6189 8.93735,-13.83169 8.93735,-37.66477 0,-24.04588 -8.93735,-37.66478 -8.93734,-13.6189 -29.36554,-13.6189 -20.42819,0 -29.57833,13.6189 -9.15013,13.6189 -9.15013,37.66478 z" /><path
     id="path2928"
     style="font-weight:bold;font-size:207.703px;-inkscape-font-specification:'sans-serif Bold';fill:#ffffff;stroke-width:8;stroke-linecap:round;stroke-linejoin:round;paint-order:markers fill stroke"
     d="M 392.6984,350.39407 H 360.99212 V 198.45819 h 87.03265 v 26.38662 H 392.6984 v 39.15435 h 51.49608 v 26.38662 H 392.6984 Z m -116.82375,0 H 244.16838 V 198.45819 h 87.03265 v 26.38662 h -55.32638 v 39.15435 h 51.49609 v 26.38662 H 275.87465 Z M 212.675,274.21334 q 0,23.62028 -7.87337,41.28229 -7.66058,17.44922 -23.62011,27.23781 -15.95953,9.78859 -40.8564,9.78859 -24.68408,0 -40.85641,-9.78859 -15.959524,-9.78859 -23.832893,-27.4506 -7.660575,-17.66202 -7.660575,-41.2823 0,-23.62029 7.660575,-41.0695 7.873369,-17.44922 23.832893,-27.025 16.17233,-9.78859 41.0692,-9.78859 24.68408,0 40.64361,9.78859 15.95953,9.57578 23.62011,27.2378 7.87337,17.44922 7.87337,41.0695 z m -110.86555,0 q 0,23.83308 9.15013,37.66477 9.15014,13.6189 29.36554,13.6189 20.64099,0 29.57833,-13.6189 8.93735,-13.83169 8.93735,-37.66477 0,-24.04588 -8.93735,-37.66478 -8.93734,-13.6189 -29.36554,-13.6189 -20.42819,0 -29.57833,13.6189 -9.15013,13.6189 -9.15013,37.66478 z" /><path
     id="path462"
     style="font-weight:bold;font-size:149.486px;-inkscape-font-specification:'sans-serif Bold';fill:#000000;stroke-width:8;stroke-linecap:round;stroke-linejoin:round;paint-order:markers fill stroke"
     d="M 477.91969,174.66768 H 447.26132 L 397.60114,78.939098 h -0.63871 q 0.31936,9.041032 0.63871,18.082065 0.47904,9.041027 0.7984,18.082057 v 59.56446 H 376.84287 V 48.093224 h 30.4987 l 49.50049,94.842206 h 0.47904 q -0.15968,-8.86376 -0.47904,-17.55025 -0.31935,-8.68648 -0.63871,-17.37296 V 48.093224 h 21.71634 z M 353.21044,111.20317 q 0,19.67755 -5.90812,34.39139 -5.74845,14.53656 -17.72438,22.69121 -11.97593,8.15466 -30.65838,8.15466 -18.52276,0 -30.65837,-8.15466 -11.97593,-8.15465 -17.88405,-22.86849 -5.74844,-14.71384 -5.74844,-34.39138 0,-19.677542 5.74844,-34.214104 5.90812,-14.536561 17.88405,-22.513943 12.13561,-8.154656 30.81806,-8.154656 18.52276,0 30.49869,8.154656 11.97593,7.977382 17.72438,22.691218 5.90812,14.536562 5.90812,34.214099 z m -83.19278,0 q 0,19.85481 6.8662,31.3777 6.86619,11.34562 22.0357,11.34562 15.48887,0 22.1954,-11.34562 6.70651,-11.52289 6.70651,-31.3777 0,-20.032087 -6.70651,-31.377697 -6.70653,-11.345608 -22.03571,-11.345608 -15.3292,0 -22.19539,11.345608 -6.8662,11.34561 -6.8662,31.377697 z M 177.88273,48.093224 q 22.83409,0 34.49066,7.091005 11.65658,7.091006 11.65658,24.995795 0,10.813784 -4.6307,18.259336 -4.47101,7.44556 -12.934,9.04104 v 0.88637 q 5.74844,1.24093 10.37914,4.43188 4.63069,3.19095 7.34523,9.21831 2.71455,6.02735 2.71455,15.95476 0,17.19569 -11.17753,26.94582 -11.17754,9.75014 -30.65838,9.75014 h -42.6343 V 48.093224 Z m 2.71454,50.168866 q 10.53881,0 14.53078,-3.722779 4.15166,-3.722779 4.15166,-10.813784 0,-7.268282 -4.79037,-10.459233 -4.79037,-3.190953 -15.16951,-3.190953 H 166.54551 V 98.26209 Z m -14.05176,21.27301 v 32.97318 h 15.80822 q 10.85818,0 15.16951,-4.60916 4.31133,-4.78642 4.31133,-12.58653 0,-7.091 -4.471,-11.34561 -4.31135,-4.43188 -15.80823,-4.43188 z m -64.51042,55.13258 -8.3033,-30.13678 H 52.215231 L 43.91192,174.66768 H 17.884237 L 58.123356,47.561399 H 87.663979 L 128.06277,174.66768 Z M 79.680026,92.589284 q -0.798395,-3.013678 -2.075828,-7.622831 -1.277432,-4.609154 -2.554865,-9.395583 -1.277432,-4.786428 -2.075827,-8.331931 -0.798395,3.545503 -2.235507,8.863756 -1.277432,5.140979 -2.554865,9.927408 -1.117753,4.609154 -1.756469,6.559181 l -8.14363,29.427676 h 29.7003 z" /><path
     id="path2921"
     style="font-weight:bold;font-size:149.486px;-inkscape-font-specification:'sans-serif Bold';fill:#ffffff;stroke-width:8;stroke-linecap:round;stroke-linejoin:round;paint-order:markers fill stroke"
     d="M 483.91969,168.66768 H 453.26132 L 403.60114,72.939098 h -0.63871 q 0.31936,9.041032 0.63871,18.082065 0.47904,9.041027 0.7984,18.082057 v 59.56446 H 382.84287 V 42.093224 h 30.4987 l 49.50049,94.842206 h 0.47904 q -0.15968,-8.86376 -0.47904,-17.55025 -0.31935,-8.68648 -0.63871,-17.37296 V 42.093224 h 21.71634 z M 359.21044,105.20317 q 0,19.67755 -5.90812,34.39139 -5.74845,14.53656 -17.72438,22.69121 -11.97593,8.15466 -30.65838,8.15466 -18.52276,0 -30.65837,-8.15466 -11.97593,-8.15465 -17.88405,-22.86849 -5.74844,-14.71384 -5.74844,-34.39138 0,-19.677542 5.74844,-34.214104 5.90812,-14.536561 17.88405,-22.513943 12.13561,-8.154656 30.81806,-8.154656 18.52276,0 30.49869,8.154656 11.97593,7.977382 17.72438,22.691218 5.90812,14.536562 5.90812,34.214099 z m -83.19278,0 q 0,19.85481 6.8662,31.3777 6.86619,11.34562 22.0357,11.34562 15.48887,0 22.1954,-11.34562 6.70651,-11.52289 6.70651,-31.3777 0,-20.032087 -6.70651,-31.377697 -6.70653,-11.345608 -22.03571,-11.345608 -15.3292,0 -22.19539,11.345608 -6.8662,11.34561 -6.8662,31.377697 z M 183.88273,42.093224 q 22.83409,0 34.49066,7.091005 11.65658,7.091006 11.65658,24.995795 0,10.813784 -4.6307,18.259339 -4.47101,7.445556 -12.934,9.041037 v 0.88637 q 5.74844,1.24093 10.37914,4.43188 4.63069,3.19095 7.34523,9.21831 2.71455,6.02735 2.71455,15.95476 0,17.19569 -11.17753,26.94582 -11.17754,9.75014 -30.65838,9.75014 h -42.6343 V 42.093224 Z m 2.71454,50.168865 q 10.53881,0 14.53078,-3.722778 4.15166,-3.722779 4.15166,-10.813784 0,-7.268282 -4.79037,-10.459233 -4.79037,-3.190953 -15.16951,-3.190953 H 172.54551 V 92.262089 Z M 172.54551,113.5351 v 32.97318 h 15.80822 q 10.85818,0 15.16951,-4.60916 4.31133,-4.78642 4.31133,-12.58653 0,-7.091 -4.471,-11.34561 -4.31135,-4.43188 -15.80823,-4.43188 z m -64.51042,55.13258 -8.3033,-30.13678 H 58.215231 L 49.91192,168.66768 H 23.884237 L 64.123356,41.561399 H 93.663979 L 134.06277,168.66768 Z M 85.680026,86.589284 q -0.798395,-3.013678 -2.075828,-7.622831 -1.277432,-4.609154 -2.554865,-9.395583 -1.277432,-4.786428 -2.075827,-8.331931 -0.798395,3.545503 -2.235507,8.863756 -1.277432,5.140979 -2.554865,9.927408 -1.117753,4.609154 -1.756469,6.559181 l -8.14363,29.427676 h 29.7003 z" /><path
     id="circle935"
     style="fill:#ffffff;stroke-width:20;stroke-linecap:round;stroke-linejoin:round;paint-order:stroke fill markers;stop-color:#000000"
     d="m 452.89147,425.01807 a 41.451073,41.451378 0 0 1 -41.45107,41.45137 41.451073,41.451378 0 0 1 -41.45107,-41.45137 41.451073,41.451378 0 0 1 41.45107,-41.45138 41.451073,41.451378 0 0 1 41.45107,41.45138 z m -103.62695,0 a 41.451073,41.451378 0 0 1 -41.45107,41.45137 41.451073,41.451378 0 0 1 -41.45108,-41.45137 41.451073,41.451378 0 0 1 41.45108,-41.45138 41.451073,41.451378 0 0 1 41.45107,41.45138 z m -103.5952,0 a 41.451073,41.451378 0 0 1 -41.45107,41.45137 41.451073,41.451378 0 0 1 -41.45108,-41.45137 41.451073,41.451378 0 0 1 41.45108,-41.45138 41.451073,41.451378 0 0 1 41.45107,41.45138 z m -103.65862,0 a 41.451073,41.451378 0 0 1 -41.45108,41.45137 41.451073,41.451378 0 0 1 -41.451069,-41.45137 41.451073,41.451378 0 0 1 41.451069,-41.45138 41.451073,41.451378 0 0 1 41.45108,41.45138 z" /><circle
     style="fill:#000000;stroke-width:20;stroke-linecap:round;stroke-linejoin:round;-inkscape-stroke:none;paint-order:stroke fill markers;stop-color:#000000"
     id="path454"
     cx="153.06323"
     cy="452.75272"
     r="13.716735" /><circle
     style="fill:#000000;stroke-width:20;stroke-linecap:round;stroke-linejoin:round;-inkscape-stroke:none;paint-order:stroke fill markers;stop-color:#000000"
     id="circle456"
     cx="257.06323"
     cy="452.75272"
     r="13.716735" /><circle
     style="fill:#000000;stroke-width:20;stroke-linecap:round;stroke-linejoin:round;-inkscape-stroke:none;paint-order:stroke fill markers;stop-color:#000000"
     id="circle458"
     cx="360.23889"
     cy="452.75272"
     r="13.716735" /></g></svg>
