<?xml version="1.0" encoding="UTF-8" standalone="no"?>
<!-- Generator: Adobe Illustrator 16.0.0, SVG Export Plug-In . SVG Version: 6.00 Build 0)  -->

<svg
   version="1.1"
   id="Capa_1"
   x="0px"
   y="0px"
   width="512px"
   height="512px"
   viewBox="0 0 512 512"
   style="enable-background:new 0 0 512 512;"
   xml:space="preserve"
   sodipodi:docname="icon_sw_01.svg"
   inkscape:version="1.2.2 (b0a8486541, 2022-12-01)"
   xmlns:inkscape="http://www.inkscape.org/namespaces/inkscape"
   xmlns:sodipodi="http://sodipodi.sourceforge.net/DTD/sodipodi-0.dtd"
   xmlns="http://www.w3.org/2000/svg"
   xmlns:svg="http://www.w3.org/2000/svg"><defs
   id="defs304"><inkscape:perspective
     sodipodi:type="inkscape:persp3d"
     inkscape:vp_x="-227.96442 : 340.88923 : 1"
     inkscape:vp_y="0 : 1653.5146 : 0"
     inkscape:vp_z="618.63506 : 340.88923 : 1"
     inkscape:persp3d-origin="195.33532 : 199.78932 : 1"
     id="perspective3567" /></defs><sodipodi:namedview
   id="namedview302"
   pagecolor="#ffffff"
   bordercolor="#000000"
   borderopacity="0.25"
   inkscape:showpageshadow="2"
   inkscape:pageopacity="0.0"
   inkscape:pagecheckerboard="0"
   inkscape:deskcolor="#d1d1d1"
   showgrid="false"
   inkscape:zoom="0.60145509"
   inkscape:cx="237.75674"
   inkscape:cy="268.51548"
   inkscape:window-width="1852"
   inkscape:window-height="1052"
   inkscape:window-x="68"
   inkscape:window-y="0"
   inkscape:window-maximized="1"
   inkscape:current-layer="layer1" />
















<g
   inkscape:groupmode="layer"
   id="layer1"
   inkscape:label="Layer 1"><rect
     style="fill:#00ffff;stroke:#000000;stroke-width:5.55669;stroke-linecap:round;stroke-linejoin:round;stroke-dasharray:none;paint-order:markers fill stroke;stop-color:#000000"
     id="rect3330-5"
     width="335.17926"
     height="370.08029"
     x="170.37302"
     y="-339.73123"
     rx="0"
     ry="0"
     transform="matrix(0.28774838,0.95770605,-0.97261649,0.23241592,0,0)" /><g
     id="g3499"
     transform="matrix(1.5232098,-0.3639854,0.40814283,1.358412,-1037.702,158.22821)"
     style="stroke-width:0.671503"><rect
       style="fill:#00c7c7;stroke:#000000;stroke-width:3.72827;stroke-linecap:round;stroke-linejoin:round;stroke-dasharray:none;paint-order:markers fill stroke;stop-color:#000000;fill-opacity:1"
       id="rect3330"
       width="236.30769"
       height="236.30769"
       x="141.07922"
       y="-905.2583"
       rx="0"
       ry="0"
       transform="rotate(90)" /><path
       id="path3332"
       style="opacity:0.97;fill:#ffffff;stroke:#ffffff;stroke-width:3.35751;stroke-linecap:round;stroke-linejoin:round;stroke-dasharray:none;paint-order:markers fill stroke;stop-color:#000000"
       d="m 715.44502,163.82031 -24.13281,24.13281 24.13281,24.13282 v -12.97266 h 80.04297 v -22.32031 h -80.04297 z m 137.40625,44.91407 v 12.97265 H 772.8083 v 22.32031 h 80.04297 V 257 l 24.13282,-24.13281 z m -137.40625,45.79882 -24.13281,24.13282 24.13281,24.13281 v -12.97266 h 80.04297 v -22.32031 h -80.04297 z m 137.40625,44.91407 v 12.97265 H 772.8083 v 22.32031 h 80.04297 v 12.97266 l 24.13282,-24.13281 z" /><path
       id="path3334"
       style="fill:#000000;stroke:#ffffff;stroke-width:0.671503;stroke-linecap:round;stroke-linejoin:round;stroke-dasharray:none;paint-order:markers fill stroke;stop-color:#000000"
       d="m 717.44502,167.82031 -24.13281,24.13281 24.13281,24.13282 v -12.97266 h 80.04297 v -22.32031 h -80.04297 z m 137.40625,44.91407 v 12.97265 H 774.8083 v 22.32031 h 80.04297 V 261 l 24.13282,-24.13281 z m -137.40625,45.79882 -24.13281,24.13282 24.13281,24.13281 v -12.97266 h 80.04297 v -22.32031 h -80.04297 z m 137.40625,44.91407 v 12.97265 H 774.8083 v 22.32031 h 80.04297 v 12.97266 l 24.13282,-24.13281 z" /></g><path
     style="font-variation-settings:normal;opacity:1;vector-effect:none;fill:#00a6a6;fill-opacity:1;stroke:#000000;stroke-width:5.55213;stroke-linecap:round;stroke-linejoin:round;stroke-miterlimit:4;stroke-dasharray:none;stroke-dashoffset:0;stroke-opacity:1;-inkscape-stroke:none;paint-order:markers fill stroke;stop-color:#000000;stop-opacity:1"
     d="m 495.22406,341.3743 -19.32416,63.83718 -359.9462,86.01256 19.32419,-63.83719 z"
     id="path4518" /><path
     style="font-variation-settings:normal;opacity:1;vector-effect:none;fill:#009696;fill-opacity:1;stroke:#000000;stroke-width:5.55213;stroke-linecap:round;stroke-linejoin:round;stroke-miterlimit:4;stroke-dasharray:none;stroke-dashoffset:0;stroke-opacity:1;-inkscape-stroke:none;paint-order:markers fill stroke;stop-color:#000000;stop-opacity:1"
     d="M 38.830611,106.38366 135.27789,427.38685 115.9537,491.22404 19.506411,170.22082 Z"
     id="path4520" /></g></svg>
