<?xml version="1.0" encoding="UTF-8" standalone="no"?>
<!-- Generator: Adobe Illustrator 16.0.0, SVG Export Plug-In . SVG Version: 6.00 Build 0)  -->

<svg
   version="1.1"
   id="Capa_1"
   x="0px"
   y="0px"
   width="512px"
   height="512px"
   viewBox="0 0 512 512"
   style="enable-background:new 0 0 512 512;"
   xml:space="preserve"
   sodipodi:docname="icon_uah_query.svg"
   inkscape:version="1.2.2 (b0a8486541, 2022-12-01)"
   xmlns:inkscape="http://www.inkscape.org/namespaces/inkscape"
   xmlns:sodipodi="http://sodipodi.sourceforge.net/DTD/sodipodi-0.dtd"
   xmlns="http://www.w3.org/2000/svg"
   xmlns:svg="http://www.w3.org/2000/svg"><defs
   id="defs39">
	
<filter
   inkscape:collect="always"
   style="color-interpolation-filters:sRGB"
   id="filter2147"
   x="-0.26429118"
   y="-0.14673365"
   width="1.5285824"
   height="1.2934673"><feGaussianBlur
     inkscape:collect="always"
     stdDeviation="15.672411"
     id="feGaussianBlur2149" /></filter></defs><sodipodi:namedview
   id="namedview37"
   pagecolor="#ffffff"
   bordercolor="#666666"
   borderopacity="1.0"
   inkscape:pageshadow="2"
   inkscape:pageopacity="0.0"
   inkscape:pagecheckerboard="0"
   showgrid="false"
   inkscape:zoom="0.44470388"
   inkscape:cx="107.93699"
   inkscape:cy="363.16301"
   inkscape:window-width="1852"
   inkscape:window-height="1052"
   inkscape:window-x="68"
   inkscape:window-y="0"
   inkscape:window-maximized="1"
   inkscape:current-layer="layer2"
   inkscape:showpageshadow="2"
   inkscape:deskcolor="#d1d1d1" />

<g
   id="g6">
</g>
<g
   id="g8">
</g>
<g
   id="g10">
</g>
<g
   id="g12">
</g>
<g
   id="g14">
</g>
<g
   id="g16">
</g>
<g
   id="g18">
</g>
<g
   id="g20">
</g>
<g
   id="g22">
</g>
<g
   id="g24">
</g>
<g
   id="g26">
</g>
<g
   id="g28">
</g>
<g
   id="g30">
</g>
<g
   id="g32">
</g>
<g
   id="g34">
</g>
<g
   inkscape:groupmode="layer"
   id="layer1"
   inkscape:label="Layer 1"
   style="display:inline"><path
     d="M 256,32 C 379.5,32 480,132.5 480,256 480,379.5 379.5,480 256,480 132.5,480 32,379.5 32,256 32,132.5 132.5,32 256,32 M 256,0 C 114.625,0 0,114.625 0,256 0,397.375 114.625,512 256,512 397.375,512 512,397.375 512,256 512,114.625 397.375,0 256,0 Z"
     id="path2"
     sodipodi:nodetypes="cssscsssss"
     style="display:none" /><path
     id="path1307"
     style="display:inline;fill:#aa8800;stroke:none;stroke-width:0.999998;stroke-linecap:butt;stroke-linejoin:miter;paint-order:stroke fill markers;stop-color:#000000;font-variation-settings:normal;opacity:1;vector-effect:none;fill-opacity:1;stroke-miterlimit:4;stroke-dasharray:none;stroke-dashoffset:0;stroke-opacity:1;-inkscape-stroke:none;stop-opacity:1"
     d="M 256,-3.0000001e-6 A 255.99998,255.99998 0 0 0 -9.9999998e-7,256 255.99998,255.99998 0 0 0 256,512 255.99998,255.99998 0 0 0 512,256 255.99998,255.99998 0 0 0 256,-3.0000001e-6 Z M 255.76172,30.759763 a 225,225 0 0 1 225,224.999997 225,225 0 0 1 -225,225 225,225 0 0 1 -225.000002,-225 A 225,225 0 0 1 255.76172,30.759763 Z" /></g><g
   inkscape:groupmode="layer"
   id="layer2"
   inkscape:label="Layer 2"
   style="display:inline"><g
     id="g4"
     transform="translate(-1263.5216,-581.56085)"
     style="font-size:379.618px;line-height:1.25;stroke-width:0.999998">
	
</g><path
     d="m 197.62193,297.27007 q -3.60882,2.45776 -6.15623,4.91553 -11.8879,11.87924 -11.8879,33.99918 0,27.64992 19.95468,42.19173 19.74241,14.337 57.52894,14.337 40.54622,0 60.5009,-16.79477 19.74241,-16.58996 20.80382,-51.61319 0,0 24.41265,0 v 69.63684 q -28.02147,10.44554 -54.98153,15.56589 -27.17233,5.12036 -53.28325,5.12036 -58.37807,0 -87.88553,-22.52957 -29.50745,-22.52957 -29.50745,-66.97427 0,-15.36107 4.03338,-27.85473 0,0 -36.30054,0 v -21.71032 h 48.40072 q 1.06142,-1.22888 2.12285,-2.45777 18.04413,-19.25254 61.56232,-31.74621 0,0 39.27253,-11.26479 7.64221,-2.25295 14.64758,-4.50591 0,0 -168.12883,0 v -21.71031 h 210.79788 q 11.67562,-12.28886 11.67562,-32.9751 0,-25.19216 -17.40728,-38.30027 -17.61955,-13.31293 -51.16041,-13.31293 -38.42338,0 -57.10437,14.54181 -18.89326,14.74664 -22.50208,46.69766 0,0 -23.98808,0 V 115.395 q 29.71974,-8.80702 56.04294,-13.51774 26.3232,-4.505923 48.40073,-4.505923 51.79726,0 80.45558,21.505493 28.65833,21.5055 28.65833,60.42021 0,13.31293 -2.75969,24.57772 0,0 43.30591,0 v 21.71031 h -52.6464 q -2.75969,4.30109 -6.36852,8.19257 -18.89326,20.0718 -64.10973,33.17991 0,0 -29.71975,8.6022 h 154.96724 v 21.71032 z"
     style="font-size:427.04px;font-family:'DejaVu Serif';-inkscape-font-specification:'DejaVu Serif';vector-effect:none;fill:#aa8800;stroke-width:0.999998;stop-color:#000000"
     id="path713" /><path
     d="m 268.41428,571.9942 q 0,-11.6792 7.92517,-19.81293 8.13373,-8.13372 20.02148,-8.13372 11.47064,0 19.60437,8.13372 8.13373,8.13373 8.13373,19.81293 0,11.47064 -8.13373,19.60437 -8.13373,8.13373 -19.60437,8.13373 -11.88775,0 -20.02148,-7.92517 -7.92517,-8.13373 -7.92517,-19.81293 z M 222.32315,296.07312 q 22.10706,-9.80218 41.91998,-14.599 20.02149,-4.79681 37.54029,-4.79681 46.29968,0 72.99499,22.31561 26.90387,22.31561 26.90387,60.27301 0,38.79163 -23.14984,63.40137 -22.94128,24.60974 -69.44952,35.24615 v 52.97351 h -25.65253 v -68.40674 q 36.91461,-8.96795 55.4762,-30.03222 18.77014,-21.06427 18.77014,-53.59918 0,-28.57233 -15.22467,-45.04834 -15.22467,-16.47602 -41.50287,-16.47602 -23.77551,0 -39.00018,13.76477 -15.01612,13.55622 -19.39582,39.20874 h -20.23004 z"
     id="path2926"
     transform="matrix(1.2438111,0,0,0.83897391,-7.5002562,-7.0650002)"
     style="font-size:427.125px;font-family:'DejaVu Serif';-inkscape-font-specification:'DejaVu Serif';stroke:#000000;stroke-width:19.5785;stroke-linecap:round;stroke-linejoin:round;filter:url(#filter2147)" /><path
     d="m 326.35633,472.82325 q 0,-9.79854 9.85741,-16.62252 10.11682,-6.82398 24.90293,-6.82398 14.2673,0 24.38412,6.82398 10.11681,6.82398 10.11681,16.62252 0,9.62356 -10.11681,16.44755 -10.11682,6.82397 -24.38412,6.82397 -14.78611,0 -24.90293,-6.64901 -9.85741,-6.82397 -9.85741,-16.62251 z M 269.02772,241.33282 q 27.49698,-8.22377 52.1405,-12.24817 24.90293,-4.0244 46.69299,-4.0244 57.58802,0 90.79193,18.7222 33.46331,18.72221 33.46331,50.56745 0,32.54515 -28.79402,53.19206 -28.5346,20.64691 -86.38202,29.57058 v 44.44336 h -31.90688 v -57.39142 q 45.91476,-7.52388 69.00186,-25.19624 23.34649,-17.67236 23.34649,-44.96829 0,-23.97142 -18.93659,-37.79435 -18.93661,-13.82293 -51.6217,-13.82293 -29.57223,0 -48.50883,11.54827 -18.6772,11.3733 -24.1247,32.89509 h -25.16234 z"
     id="path2923"
     style="font-size:436.321px;font-family:'DejaVu Serif';-inkscape-font-specification:'DejaVu Serif';fill:#ffff00;stroke:#ffff00;stroke-width:15;stroke-linecap:round;stroke-linejoin:round" /></g></svg>
