<?xml version="1.0" encoding="UTF-8" standalone="no"?>
<!-- Created with Inkscape (http://www.inkscape.org/) -->

<svg
   version="1.1"
   id="svg2"
   width="20.48"
   height="20.48"
   viewBox="0 0 20.48 20.48"
   sodipodi:docname="icon_visible_on.svg"
   inkscape:version="1.2.2 (b0a8486541, 2022-12-01)"
   xml:space="preserve"
   xmlns:inkscape="http://www.inkscape.org/namespaces/inkscape"
   xmlns:sodipodi="http://sodipodi.sourceforge.net/DTD/sodipodi-0.dtd"
   xmlns="http://www.w3.org/2000/svg"
   xmlns:svg="http://www.w3.org/2000/svg"><defs
     id="defs6"><clipPath
       clipPathUnits="userSpaceOnUse"
       id="clipPath405"><rect
         style="fill:#ffffff;stroke:none;stroke-width:0.755906;stroke-linecap:square;stroke-linejoin:round;-inkscape-stroke:none;stop-color:#000000"
         id="rect407"
         width="11.970968"
         height="6.7170434"
         x="-13.068306"
         y="14.930458"
         rx="1.0798978"
         ry="0.94052804" /></clipPath><clipPath
       clipPathUnits="userSpaceOnUse"
       id="clipPath463"><rect
         style="fill:#ffffff;stroke:none;stroke-width:0.755906;stroke-linecap:square;stroke-linejoin:round;-inkscape-stroke:none;stop-color:#000000"
         id="rect465"
         width="12.838208"
         height="6.5366702"
         x="23.136992"
         y="12.367945"
         rx="1.0798978"
         ry="0.94052804" /></clipPath></defs><sodipodi:namedview
     id="namedview4"
     pagecolor="#ffffff"
     bordercolor="#000000"
     borderopacity="0.25"
     inkscape:showpageshadow="2"
     inkscape:pageopacity="0.0"
     inkscape:pagecheckerboard="true"
     inkscape:deskcolor="#d1d1d1"
     showgrid="false"
     inkscape:zoom="45.254836"
     inkscape:cx="12.495902"
     inkscape:cy="7.9439024"
     inkscape:window-width="1852"
     inkscape:window-height="1052"
     inkscape:window-x="68"
     inkscape:window-y="0"
     inkscape:window-maximized="1"
     inkscape:current-layer="g8" /><g
     inkscape:groupmode="layer"
     inkscape:label="Image"
     id="g8"><path
       style="color:#000000;fill:#d4aa00;stroke-linecap:butt;stroke-linejoin:miter;-inkscape-stroke:none;font-variation-settings:normal;opacity:1;vector-effect:none;fill-opacity:1;stroke:#333333;stroke-width:0.3;stroke-miterlimit:4;stroke-dasharray:none;stroke-dashoffset:0;stroke-opacity:1;stop-color:#000000;stop-opacity:1"
       d="m 10.205078,5.7636719 c -2.5350286,0 -4.6074218,2.07044 -4.6074218,4.6054691 0,2.535028 2.0723932,4.605468 4.6074218,4.605468 2.535029,0 4.605469,-2.07044 4.605469,-4.605468 0,-2.5350291 -2.07044,-4.6054691 -4.605469,-4.6054691 z m 0,1.5 c 1.72437,0 3.105469,1.3810993 3.105469,3.1054691 0,1.724369 -1.381099,3.105468 -3.105469,3.105468 -1.7243693,0 -3.1074218,-1.381099 -3.1074218,-3.105468 0,-1.7243698 1.3830525,-3.1054691 3.1074218,-3.1054691 z"
       id="path519" /><path
       id="path1127"
       style="fill:#d4aa00;stroke:#333333;stroke-width:0.3;stroke-linecap:butt;stroke-linejoin:miter;stroke-dasharray:none;stop-color:#000000;font-variation-settings:normal;opacity:1;vector-effect:none;fill-opacity:1;stroke-miterlimit:4;stroke-dashoffset:0;stroke-opacity:1;-inkscape-stroke:none;stop-opacity:1"
       d="M 10.228516 8.65625 A 1.6777116 1.6777116 0 0 0 8.5507812 10.333984 A 1.6777116 1.6777116 0 0 0 10.228516 12.011719 A 1.6777116 1.6777116 0 0 0 11.90625 10.333984 A 1.6777116 1.6777116 0 0 0 11.789062 9.71875 A 0.75591791 0.75591791 0 0 1 11.078125 10.226562 A 0.75591791 0.75591791 0 0 1 10.322266 9.4707031 A 0.75591791 0.75591791 0 0 1 10.818359 8.7636719 A 1.6777116 1.6777116 0 0 0 10.228516 8.65625 z " /><path
       style="color:#000000;font-variation-settings:normal;opacity:1;vector-effect:none;fill:#d4aa00;fill-opacity:1;stroke:#333333;stroke-width:0.3;stroke-linecap:butt;stroke-linejoin:miter;stroke-miterlimit:4;stroke-dasharray:none;stroke-dashoffset:0;stroke-opacity:1;-inkscape-stroke:none;stop-color:#000000;stop-opacity:1"
       d="M 10.203125,4.1075596 C 6.6260547,4.1217029 3.2094785,6.1316551 0.75390625,9.668098 c -0.27377827,0.393247 -0.27377827,1.008838 0,1.402085 2.45557245,3.536442 5.87214865,5.546395 9.44921875,5.560537 0.0013,5e-6 0.0026,5e-6 0.0039,0 3.585314,-0.01381 7.010121,-2.03401 9.466797,-5.584436 0.271987,-0.393607 0.27111,-1.007263 -0.002,-1.3994297 -2.462328,-3.5338072 -5.886389,-5.537192 -9.466744,-5.5392947 -6.67e-4,-1.2e-6 -0.0013,-1.2e-6 -0.002,0 z m 0.002,1.9068127 h 0.002 c 2.86299,0 5.52765,1.7501244 7.638672,4.3361797 -2.107168,2.599964 -4.771699,4.338894 -7.638672,4.351258 C 7.3463704,14.690499 4.6860888,12.958005 2.5800781,10.369141 4.6856095,7.7808638 7.3450964,6.0143723 10.205078,6.0143723 Z"
       id="circle1131"
       sodipodi:nodetypes="cccscccscccscccsc" /></g></svg>
