<?xml version="1.0" encoding="UTF-8" standalone="no"?>
<!-- Created with Inkscape (http://www.inkscape.org/) -->

<svg
   width="50mm"
   height="10mm"
   viewBox="0 0 50 10"
   version="1.1"
   id="svg3858"
   inkscape:version="1.2.2 (b0a8486541, 2022-12-01)"
   sodipodi:docname="Rilan_title.svg"
   xmlns:inkscape="http://www.inkscape.org/namespaces/inkscape"
   xmlns:sodipodi="http://sodipodi.sourceforge.net/DTD/sodipodi-0.dtd"
   xmlns="http://www.w3.org/2000/svg"
   xmlns:svg="http://www.w3.org/2000/svg">
  <sodipodi:namedview
     id="namedview3860"
     pagecolor="#ffffff"
     bordercolor="#000000"
     borderopacity="0.25"
     inkscape:showpageshadow="2"
     inkscape:pageopacity="0.0"
     inkscape:pagecheckerboard="0"
     inkscape:deskcolor="#d1d1d1"
     inkscape:document-units="mm"
     showgrid="false"
     inkscape:zoom="4.3893396"
     inkscape:cx="87.598599"
     inkscape:cy="26.997228"
     inkscape:window-width="1852"
     inkscape:window-height="1052"
     inkscape:window-x="68"
     inkscape:window-y="0"
     inkscape:window-maximized="1"
     inkscape:current-layer="layer1" />
  <defs
     id="defs3855">
    <filter
       inkscape:collect="always"
       style="color-interpolation-filters:sRGB"
       id="filter6142"
       x="-0.013449512"
       width="1.0269116"
       y="-0.03193924"
       height="1.0638785">
      <feGaussianBlur
         inkscape:collect="always"
         stdDeviation="0.16943362"
         id="feGaussianBlur6144" />
    </filter>
    <filter
       inkscape:collect="always"
       style="color-interpolation-filters:sRGB"
       id="filter10575"
       x="-0.015215313"
       y="-0.084026514"
       width="1.0304306"
       height="1.1680528">
      <feGaussianBlur
         inkscape:collect="always"
         stdDeviation="0.15405262"
         id="feGaussianBlur10577" />
    </filter>
  </defs>
  <g
     inkscape:label="Слой 1"
     inkscape:groupmode="layer"
     id="layer1">
    <path
       id="rect4220"
       style="display:inline;overflow:visible;fill:#b80000;stroke-width:0.10965;marker:none;enable-background:accumulate;fill-opacity:1"
       d="M 2.1700304,0 H 47.82997 C 49.032166,0 50,0.96783354 50,2.1700304 V 7.8299687 C 50,9.0321655 49.032166,9.999999 47.82997,9.999999 H 2.1700304 C 0.96783354,9.999999 0,9.0321655 0,7.8299687 V 2.1700304 C 0,0.96783354 0.96783354,0 2.1700304,0 Z" />
    <g
       id="g3187"
       transform="matrix(1.090954,0,0,1.090954,-0.54243693,-0.45621165)">
      <g
         id="g10569"
         style="mix-blend-mode:normal;fill:#000000;stroke:#000000;stroke-width:0.2;stroke-dasharray:none;filter:url(#filter10575)"
         transform="translate(-20.740568,-14.833817)">
        <path
           d="m 22.904375,22.595985 v -0.325966 h 0.100895 q 0.263878,0 0.450144,-0.09313 0.186267,-0.100894 0.186267,-0.465666 v -3.802944 q 0,-0.341489 -0.194028,-0.434622 -0.186267,-0.09313 -0.442383,-0.09313 H 22.904375 V 17.05456 h 2.180872 q 0.9779,0 1.443567,0.434622 0.465666,0.426861 0.465666,1.18745 0,0.457905 -0.201789,0.861483 -0.194027,0.403578 -0.651933,0.651933 -0.457905,0.248356 -1.226255,0.248356 h -0.48895 v 1.311627 q 0,0.341489 0.186267,0.434623 0.194027,0.08537 0.450144,0.08537 h 0.256117 v 0.325966 z m 1.932517,-2.52236 q 0.706261,0 1.008944,-0.310445 0.310444,-0.318205 0.310444,-1.055511 0,-0.651933 -0.271638,-0.962377 -0.271639,-0.318206 -0.931334,-0.318206 h -0.527755 v 2.646539 z"
           style="font-size:7.76111px;line-height:1.25;font-family:serif;-inkscape-font-specification:serif;letter-spacing:0.132644px;word-spacing:0px;fill:#000000;stroke:#000000;stroke-width:0.2;stroke-dasharray:none"
           id="path10549" />
        <path
           d="M 27.256256,22.599862 V 22.41123 h 0.05839 q 0.152702,0 0.260492,-0.0539 0.107789,-0.05838 0.107789,-0.269474 v -2.200703 q 0,-0.197614 -0.11228,-0.251509 -0.10779,-0.0539 -0.256001,-0.0539 h -0.05839 v -0.188637 h 1.306949 v 0.188632 h -0.05839 q -0.152701,0 -0.260491,0.05839 -0.10779,0.0539 -0.10779,0.264982 v 1.778527 l 1.504563,-1.688693 v -0.08983 q 0,-0.211088 -0.107789,-0.264983 -0.10779,-0.05839 -0.260492,-0.05839 h -0.05839 V 19.39311 h 1.306948 v 0.188632 h -0.05838 q -0.152702,0 -0.260492,0.05839 -0.107789,0.0539 -0.107789,0.264983 v 2.205193 q 0,0.197615 0.107789,0.251509 0.112282,0.0494 0.260492,0.0494 h 0.05838 v 0.188632 h -1.306948 v -0.188632 h 0.05839 q 0.152702,0 0.260492,-0.0539 0.107789,-0.05838 0.107789,-0.269474 v -1.778527 l -1.504563,1.688703 v 0.08983 q 0,0.211089 0.10779,0.269474 0.10779,0.0539 0.260491,0.0539 h 0.05839 v 0.188632 z"
           style="font-size:4.93889px;line-height:0%;letter-spacing:0.132644px;word-spacing:0px;fill:#000000;stroke:#000000;stroke-width:0.2;stroke-dasharray:none"
           id="path10551" />
        <path
           d="m 31.171965,22.6313 q -0.179649,0 -0.269474,-0.08084 -0.08983,-0.08533 -0.08983,-0.233544 0,-0.116772 0.0539,-0.193123 0.0539,-0.08084 0.14372,-0.08084 0,0.05839 0.0539,0.134737 0.0539,0.07635 0.166176,0.07635 0.08533,0 0.157192,-0.04043 0.07186,-0.04042 0.14372,-0.175158 0.07186,-0.134738 0.148211,-0.417685 0.05839,-0.215578 0.103295,-0.485052 0.04491,-0.269474 0.07635,-0.534457 0.03144,-0.269474 0.04492,-0.489544 0.01796,-0.224561 0.01796,-0.345825 0,-0.125754 -0.107789,-0.152701 -0.103295,-0.03144 -0.251509,-0.03144 h -0.06737 v -0.188626 h 2.299509 v 0.188632 h -0.05839 q -0.152702,0 -0.260492,0.05839 -0.107789,0.0539 -0.107789,0.264983 v 2.182738 q 0,0.211087 0.107789,0.269473 0.10779,0.0539 0.260492,0.0539 h 0.05839 v 0.188631 h -1.306949 v -0.188631 h 0.05839 q 0.152701,0 0.260491,-0.0539 0.10779,-0.05838 0.10779,-0.269473 v -2.470178 h -0.732077 q -0.01796,0.372772 -0.06287,0.790457 -0.04042,0.417684 -0.107789,0.808421 -0.06287,0.390737 -0.152702,0.687158 -0.121262,0.408702 -0.278456,0.570386 -0.157192,0.157195 -0.408701,0.157195 z"
           style="font-size:4.93889px;line-height:0%;letter-spacing:0.132644px;word-spacing:0px;fill:#000000;stroke:#000000;stroke-width:0.2;stroke-dasharray:none"
           id="path10553" />
        <path
           d="M 34.086129,22.599862 V 22.41123 h 0.08533 q 0.130246,0 0.193123,-0.06737 0.06737,-0.06737 0.148211,-0.282947 l 0.997053,-2.667791 h 0.350316 l 1.015018,2.780071 q 0.0494,0.139228 0.116772,0.188632 0.07186,0.0494 0.202105,0.0494 h 0.05839 v 0.188631 h -1.235086 v -0.188631 h 0.103295 q 0.269474,0 0.269474,-0.21558 0,-0.03593 -0.009,-0.07634 -0.009,-0.04043 -0.02694,-0.08983 l -0.179649,-0.503017 h -1.181194 l -0.170667,0.471579 q -0.04043,0.107791 -0.04043,0.193123 0,0.220071 0.296422,0.220071 h 0.103296 v 0.188631 z m 0.992563,-1.297966 h 1.015018 l -0.278456,-0.785965 q -0.07186,-0.197614 -0.130246,-0.372772 -0.05839,-0.175158 -0.09432,-0.336842 -0.03144,0.161684 -0.08084,0.309894 -0.0494,0.148211 -0.125754,0.359298 z"
           style="font-size:4.93889px;line-height:0%;letter-spacing:0.132644px;word-spacing:0px;fill:#000000;stroke:#000000;stroke-width:0.2;stroke-dasharray:none"
           id="path10555" />
        <path
           d="M 37.543736,22.599862 V 22.41123 h 0.05839 q 0.152702,0 0.260491,-0.0539 0.10779,-0.05838 0.10779,-0.269474 v -2.200703 q 0,-0.197614 -0.112281,-0.251509 -0.10779,-0.0539 -0.256,-0.0539 h -0.05839 v -0.188637 h 1.306948 v 0.188632 h -0.05839 q -0.152703,0 -0.260492,0.05839 -0.107789,0.0539 -0.107789,0.264982 v 0.907228 h 1.45965 v -0.907228 q 0,-0.211087 -0.107789,-0.264982 -0.10779,-0.05839 -0.260493,-0.05839 h -0.05839 v -0.188632 h 1.306947 v 0.188632 h -0.05839 q -0.152702,0 -0.260492,0.05839 -0.107789,0.0539 -0.107789,0.264982 v 2.205194 q 0,0.197615 0.107789,0.251509 0.11228,0.0494 0.260492,0.0494 h 0.05839 v 0.188632 h -1.306947 v -0.188632 h 0.05839 q 0.152703,0 0.260493,-0.0539 0.107789,-0.05838 0.107789,-0.269474 v -1.050948 h -1.45965 v 1.050948 q 0,0.211089 0.107789,0.269474 0.107789,0.0539 0.260492,0.0539 h 0.05839 v 0.188632 z"
           style="font-size:4.93889px;line-height:0%;letter-spacing:0.132644px;word-spacing:0px;fill:#000000;stroke:#000000;stroke-width:0.2;stroke-dasharray:none"
           id="path10557" />
        <path
           d="m 41.167513,21.544422 v -0.336841 h 1.167719 v 0.336841 z"
           style="font-size:4.93889px;line-height:0%;letter-spacing:0.132644px;word-spacing:0px;fill:#000000;stroke:#000000;stroke-width:0.2;stroke-dasharray:none"
           id="path10559" />
        <path
           d="m 44.189468,22.644774 q -0.444633,0 -0.750037,-0.206597 -0.305403,-0.206596 -0.462595,-0.574877 -0.152703,-0.372772 -0.152703,-0.871298 0,-0.485053 0.161684,-0.853334 0.166176,-0.372773 0.485054,-0.579369 0.323369,-0.211088 0.794947,-0.211088 0.458106,0 0.682667,0.14372 0.224562,0.143719 0.224562,0.359298 0,0.143719 -0.11228,0.229052 -0.112282,0.08533 -0.278457,0.08533 0,-0.139229 -0.0494,-0.269474 -0.0494,-0.134737 -0.166175,-0.220071 -0.112282,-0.08983 -0.309896,-0.08983 -0.507508,0 -0.723088,0.368281 -0.211088,0.36379 -0.211088,1.037475 0,0.399719 0.09432,0.709614 0.09881,0.305404 0.305404,0.476071 0.206596,0.170667 0.534456,0.170667 0.32786,0 0.512,-0.112282 0.188632,-0.116772 0.300913,-0.269474 0.03593,0.02245 0.05839,0.06737 0.02694,0.04043 0.02694,0.107791 0,0.11228 -0.103295,0.229052 -0.103296,0.116772 -0.318878,0.197614 -0.211087,0.07636 -0.543438,0.07636 z"
           style="font-size:4.93889px;line-height:0%;letter-spacing:0.132644px;word-spacing:0px;fill:#000000;stroke:#000000;stroke-width:0.2;stroke-dasharray:none"
           id="path10561" />
        <path
           d="M 45.617036,22.599862 V 22.41123 h 0.05839 q 0.148211,0 0.256001,-0.0494 0.11228,-0.0539 0.11228,-0.251509 v -2.205193 q 0,-0.211088 -0.107789,-0.264983 -0.10779,-0.05839 -0.260492,-0.05839 h -0.05839 v -0.188632 h 2.263581 l 0.02245,0.785965 h -0.233544 l -0.02245,-0.193123 q -0.01797,-0.148211 -0.10779,-0.256 -0.08533,-0.112281 -0.287439,-0.112281 h -0.754526 v 1.194668 h 1.082386 v 0.22007 H 46.497318 V 22.3753 h 0.866808 q 0.211087,0 0.305403,-0.107789 0.09881,-0.112282 0.121263,-0.260492 l 0.03144,-0.193123 h 0.233545 l -0.03144,0.785965 z"
           style="font-size:4.93889px;line-height:0%;letter-spacing:0.132644px;word-spacing:0px;fill:#000000;stroke:#000000;stroke-width:0.2;stroke-dasharray:none"
           id="path10563" />
        <path
           d="M 49.03871,22.599862 V 22.41123 h 0.103296 q 0.14821,0 0.255999,-0.0494 0.112282,-0.0539 0.112282,-0.251509 v -2.492632 h -0.431158 q -0.197614,0 -0.273966,0.112281 -0.07635,0.107789 -0.09432,0.256 l -0.02245,0.193123 h -0.233545 l 0.02246,-0.785965 h 2.528562 l 0.02245,0.785965 h -0.233539 l -0.02245,-0.193123 q -0.01796,-0.148211 -0.09432,-0.256 -0.07635,-0.112281 -0.278457,-0.112281 h -0.43565 v 2.470177 q 0,0.211087 0.10779,0.269473 0.107789,0.0539 0.260491,0.0539 h 0.103296 v 0.188631 z"
           style="font-size:4.93889px;line-height:0%;letter-spacing:0.132644px;word-spacing:0px;fill:#000000;stroke:#000000;stroke-width:0.2;stroke-dasharray:none"
           id="path10565" />
        <path
           d="M 51.409441,22.599862 V 22.41123 h 0.05839 q 0.14821,0 0.255999,-0.0539 0.112282,-0.0539 0.112282,-0.251509 v -2.200703 q 0,-0.211088 -0.10779,-0.264983 -0.107789,-0.05839 -0.260491,-0.05839 h -0.05839 v -0.188632 h 1.396773 v 0.188632 h -0.148211 q -0.148212,0 -0.260492,0.0539 -0.107789,0.0494 -0.107789,0.247018 v 0.943158 h 0.282948 q 0.435649,0 0.69614,0.112281 0.264983,0.11228 0.386246,0.314386 0.121262,0.197615 0.121262,0.458106 0,0.395228 -0.269472,0.642245 -0.269474,0.247018 -0.835369,0.247018 z m 1.185684,-0.215579 q 0.381756,0 0.538948,-0.161684 0.157194,-0.161684 0.157194,-0.489545 0,-0.377263 -0.179651,-0.534456 -0.175157,-0.161684 -0.583858,-0.161684 h -0.238036 v 1.347369 z"
           style="font-size:4.93889px;line-height:0%;letter-spacing:0.132644px;word-spacing:0px;fill:#000000;stroke:#000000;stroke-width:0.2;stroke-dasharray:none"
           id="path10567" />
      </g>
      <g
         id="g10547"
         transform="translate(-20.795675,-14.888925)">
        <path
           d="m 22.904375,22.595985 v -0.325966 h 0.100895 q 0.263878,0 0.450144,-0.09313 0.186267,-0.100894 0.186267,-0.465666 v -3.802944 q 0,-0.341489 -0.194028,-0.434622 -0.186267,-0.09313 -0.442383,-0.09313 H 22.904375 V 17.05456 h 2.180872 q 0.9779,0 1.443567,0.434622 0.465666,0.426861 0.465666,1.18745 0,0.457905 -0.201789,0.861483 -0.194027,0.403578 -0.651933,0.651933 -0.457905,0.248356 -1.226255,0.248356 h -0.48895 v 1.311627 q 0,0.341489 0.186267,0.434623 0.194027,0.08537 0.450144,0.08537 h 0.256117 v 0.325966 z m 1.932517,-2.52236 q 0.706261,0 1.008944,-0.310445 0.310444,-0.318205 0.310444,-1.055511 0,-0.651933 -0.271638,-0.962377 -0.271639,-0.318206 -0.931334,-0.318206 h -0.527755 v 2.646539 z"
           style="font-size:7.76111px;line-height:1.25;font-family:serif;-inkscape-font-specification:serif;letter-spacing:0.132644px;word-spacing:0px;fill:#ffffff;stroke-width:0.282222"
           id="path7917" />
        <path
           d="M 27.256256,22.599862 V 22.41123 h 0.05839 q 0.152702,0 0.260492,-0.0539 0.107789,-0.05838 0.107789,-0.269474 v -2.200703 q 0,-0.197614 -0.11228,-0.251509 -0.10779,-0.0539 -0.256001,-0.0539 h -0.05839 v -0.188637 h 1.306949 v 0.188632 h -0.05839 q -0.152701,0 -0.260491,0.05839 -0.10779,0.0539 -0.10779,0.264982 v 1.778527 l 1.504563,-1.688693 v -0.08983 q 0,-0.211088 -0.107789,-0.264983 -0.10779,-0.05839 -0.260492,-0.05839 h -0.05839 V 19.39311 h 1.306948 v 0.188632 h -0.05838 q -0.152702,0 -0.260492,0.05839 -0.107789,0.0539 -0.107789,0.264983 v 2.205193 q 0,0.197615 0.107789,0.251509 0.112282,0.0494 0.260492,0.0494 h 0.05838 v 0.188632 h -1.306948 v -0.188632 h 0.05839 q 0.152702,0 0.260492,-0.0539 0.107789,-0.05838 0.107789,-0.269474 v -1.778527 l -1.504563,1.688703 v 0.08983 q 0,0.211089 0.10779,0.269474 0.10779,0.0539 0.260491,0.0539 h 0.05839 v 0.188632 z"
           style="font-size:4.93889px;line-height:0%;letter-spacing:0.132644px;word-spacing:0px;fill:#ffffff;stroke-width:0.256642"
           id="path7919" />
        <path
           d="m 31.171965,22.6313 q -0.179649,0 -0.269474,-0.08084 -0.08983,-0.08533 -0.08983,-0.233544 0,-0.116772 0.0539,-0.193123 0.0539,-0.08084 0.14372,-0.08084 0,0.05839 0.0539,0.134737 0.0539,0.07635 0.166176,0.07635 0.08533,0 0.157192,-0.04043 0.07186,-0.04042 0.14372,-0.175158 0.07186,-0.134738 0.148211,-0.417685 0.05839,-0.215578 0.103295,-0.485052 0.04491,-0.269474 0.07635,-0.534457 0.03144,-0.269474 0.04492,-0.489544 0.01796,-0.224561 0.01796,-0.345825 0,-0.125754 -0.107789,-0.152701 -0.103295,-0.03144 -0.251509,-0.03144 h -0.06737 v -0.188626 h 2.299509 v 0.188632 h -0.05839 q -0.152702,0 -0.260492,0.05839 -0.107789,0.0539 -0.107789,0.264983 v 2.182738 q 0,0.211087 0.107789,0.269473 0.10779,0.0539 0.260492,0.0539 h 0.05839 v 0.188631 h -1.306949 v -0.188631 h 0.05839 q 0.152701,0 0.260491,-0.0539 0.10779,-0.05838 0.10779,-0.269473 v -2.470178 h -0.732077 q -0.01796,0.372772 -0.06287,0.790457 -0.04042,0.417684 -0.107789,0.808421 -0.06287,0.390737 -0.152702,0.687158 -0.121262,0.408702 -0.278456,0.570386 -0.157192,0.157195 -0.408701,0.157195 z"
           style="font-size:4.93889px;line-height:0%;letter-spacing:0.132644px;word-spacing:0px;fill:#ffffff;stroke-width:0.256642"
           id="path7921" />
        <path
           d="M 34.086129,22.599862 V 22.41123 h 0.08533 q 0.130246,0 0.193123,-0.06737 0.06737,-0.06737 0.148211,-0.282947 l 0.997053,-2.667791 h 0.350316 l 1.015018,2.780071 q 0.0494,0.139228 0.116772,0.188632 0.07186,0.0494 0.202105,0.0494 h 0.05839 v 0.188631 h -1.235086 v -0.188631 h 0.103295 q 0.269474,0 0.269474,-0.21558 0,-0.03593 -0.009,-0.07634 -0.009,-0.04043 -0.02694,-0.08983 l -0.179649,-0.503017 h -1.181194 l -0.170667,0.471579 q -0.04043,0.107791 -0.04043,0.193123 0,0.220071 0.296422,0.220071 h 0.103296 v 0.188631 z m 0.992563,-1.297966 h 1.015018 l -0.278456,-0.785965 q -0.07186,-0.197614 -0.130246,-0.372772 -0.05839,-0.175158 -0.09432,-0.336842 -0.03144,0.161684 -0.08084,0.309894 -0.0494,0.148211 -0.125754,0.359298 z"
           style="font-size:4.93889px;line-height:0%;letter-spacing:0.132644px;word-spacing:0px;fill:#ffffff;stroke-width:0.256642"
           id="path7923" />
        <path
           d="M 37.543736,22.599862 V 22.41123 h 0.05839 q 0.152702,0 0.260491,-0.0539 0.10779,-0.05838 0.10779,-0.269474 v -2.200703 q 0,-0.197614 -0.112281,-0.251509 -0.10779,-0.0539 -0.256,-0.0539 h -0.05839 v -0.188637 h 1.306948 v 0.188632 h -0.05839 q -0.152703,0 -0.260492,0.05839 -0.107789,0.0539 -0.107789,0.264982 v 0.907228 h 1.45965 v -0.907228 q 0,-0.211087 -0.107789,-0.264982 -0.10779,-0.05839 -0.260493,-0.05839 h -0.05839 v -0.188632 h 1.306947 v 0.188632 h -0.05839 q -0.152702,0 -0.260492,0.05839 -0.107789,0.0539 -0.107789,0.264982 v 2.205194 q 0,0.197615 0.107789,0.251509 0.11228,0.0494 0.260492,0.0494 h 0.05839 v 0.188632 h -1.306947 v -0.188632 h 0.05839 q 0.152703,0 0.260493,-0.0539 0.107789,-0.05838 0.107789,-0.269474 v -1.050948 h -1.45965 v 1.050948 q 0,0.211089 0.107789,0.269474 0.107789,0.0539 0.260492,0.0539 h 0.05839 v 0.188632 z"
           style="font-size:4.93889px;line-height:0%;letter-spacing:0.132644px;word-spacing:0px;fill:#ffffff;stroke-width:0.256642"
           id="path7925" />
        <path
           d="m 41.167513,21.544422 v -0.336841 h 1.167719 v 0.336841 z"
           style="font-size:4.93889px;line-height:0%;letter-spacing:0.132644px;word-spacing:0px;fill:#ffffff;stroke-width:0.256642"
           id="path7927" />
        <path
           d="m 44.189468,22.644774 q -0.444633,0 -0.750037,-0.206597 -0.305403,-0.206596 -0.462595,-0.574877 -0.152703,-0.372772 -0.152703,-0.871298 0,-0.485053 0.161684,-0.853334 0.166176,-0.372773 0.485054,-0.579369 0.323369,-0.211088 0.794947,-0.211088 0.458106,0 0.682667,0.14372 0.224562,0.143719 0.224562,0.359298 0,0.143719 -0.11228,0.229052 -0.112282,0.08533 -0.278457,0.08533 0,-0.139229 -0.0494,-0.269474 -0.0494,-0.134737 -0.166175,-0.220071 -0.112282,-0.08983 -0.309896,-0.08983 -0.507508,0 -0.723088,0.368281 -0.211088,0.36379 -0.211088,1.037475 0,0.399719 0.09432,0.709614 0.09881,0.305404 0.305404,0.476071 0.206596,0.170667 0.534456,0.170667 0.32786,0 0.512,-0.112282 0.188632,-0.116772 0.300913,-0.269474 0.03593,0.02245 0.05839,0.06737 0.02694,0.04043 0.02694,0.107791 0,0.11228 -0.103295,0.229052 -0.103296,0.116772 -0.318878,0.197614 -0.211087,0.07636 -0.543438,0.07636 z"
           style="font-size:4.93889px;line-height:0%;letter-spacing:0.132644px;word-spacing:0px;fill:#ffffff;stroke-width:0.256642"
           id="path7929" />
        <path
           d="M 45.617036,22.599862 V 22.41123 h 0.05839 q 0.148211,0 0.256001,-0.0494 0.11228,-0.0539 0.11228,-0.251509 v -2.205193 q 0,-0.211088 -0.107789,-0.264983 -0.10779,-0.05839 -0.260492,-0.05839 h -0.05839 v -0.188632 h 2.263581 l 0.02245,0.785965 h -0.233544 l -0.02245,-0.193123 q -0.01797,-0.148211 -0.10779,-0.256 -0.08533,-0.112281 -0.287439,-0.112281 h -0.754526 v 1.194668 h 1.082386 v 0.22007 H 46.497318 V 22.3753 h 0.866808 q 0.211087,0 0.305403,-0.107789 0.09881,-0.112282 0.121263,-0.260492 l 0.03144,-0.193123 h 0.233545 l -0.03144,0.785965 z"
           style="font-size:4.93889px;line-height:0%;letter-spacing:0.132644px;word-spacing:0px;fill:#ffffff;stroke-width:0.256642"
           id="path7931" />
        <path
           d="M 49.03871,22.599862 V 22.41123 h 0.103296 q 0.14821,0 0.255999,-0.0494 0.112282,-0.0539 0.112282,-0.251509 v -2.492632 h -0.431158 q -0.197614,0 -0.273966,0.112281 -0.07635,0.107789 -0.09432,0.256 l -0.02245,0.193123 h -0.233545 l 0.02246,-0.785965 h 2.528562 l 0.02245,0.785965 h -0.233539 l -0.02245,-0.193123 q -0.01796,-0.148211 -0.09432,-0.256 -0.07635,-0.112281 -0.278457,-0.112281 h -0.43565 v 2.470177 q 0,0.211087 0.10779,0.269473 0.107789,0.0539 0.260491,0.0539 h 0.103296 v 0.188631 z"
           style="font-size:4.93889px;line-height:0%;letter-spacing:0.132644px;word-spacing:0px;fill:#ffffff;stroke-width:0.256642"
           id="path7933" />
        <path
           d="M 51.409441,22.599862 V 22.41123 h 0.05839 q 0.14821,0 0.255999,-0.0539 0.112282,-0.0539 0.112282,-0.251509 v -2.200703 q 0,-0.211088 -0.10779,-0.264983 -0.107789,-0.05839 -0.260491,-0.05839 h -0.05839 v -0.188632 h 1.396773 v 0.188632 h -0.148211 q -0.148212,0 -0.260492,0.0539 -0.107789,0.0494 -0.107789,0.247018 v 0.943158 h 0.282948 q 0.435649,0 0.69614,0.112281 0.264983,0.11228 0.386246,0.314386 0.121262,0.197615 0.121262,0.458106 0,0.395228 -0.269472,0.642245 -0.269474,0.247018 -0.835369,0.247018 z m 1.185684,-0.215579 q 0.381756,0 0.538948,-0.161684 0.157194,-0.161684 0.157194,-0.489545 0,-0.377263 -0.179651,-0.534456 -0.175157,-0.161684 -0.583858,-0.161684 h -0.238036 v 1.347369 z"
           style="font-size:4.93889px;line-height:0%;letter-spacing:0.132644px;word-spacing:0px;fill:#ffffff;stroke-width:0.256642"
           id="path7935" />
      </g>
    </g>
    <g
       id="g3078"
       transform="matrix(0.29415658,0,0,-0.29415658,-52.474391,74.465524)"
       inkscape:export-filename="/home/ar/Documents/www/rilan.net.ua/viz2pg1.png"
       inkscape:export-xdpi="600"
       inkscape:export-ydpi="600"
       style="display:inline">
      <path
         id="path6197"
         d="m 294.92056,104.89125 a 53.124996,21.560419 0 0 1 6.95508,0.70704 h 40.72266 v -0.70704 z m 15.58399,2.1543 a 53.124996,21.560419 0 0 1 3.08984,0.70703 h 29.00391 v -0.70703 z m 8.2539,2.1543 a 53.124996,21.560419 0 0 1 1.25586,0.41211 53.124996,21.560419 0 0 1 0.78321,0.29492 h 21.80078 v -0.70703 z m 5.74805,2.1543 a 53.124996,21.560419 0 0 1 1.53711,0.70703 h 16.55469 v -0.70703 z m 4.35156,2.15429 a 53.124996,21.560419 0 0 1 1.25,0.70703 h 12.49024 v -0.70703 z m 3.38477,2.1543 a 53.124996,21.560419 0 0 1 0.98633,0.70703 h 9.36914 v -0.70703 z m 2.58984,2.1543 a 53.124996,21.560419 0 0 1 0.71485,0.70703 h 7.05078 v -0.70703 z m 1.9082,2.15429 a 53.124996,21.560419 0 0 1 0.48633,0.70703 h 5.3711 v -0.70703 z m 1.29493,2.1543 a 53.124996,21.560419 0 0 1 0.29101,0.70703 h 4.27149 v -0.70703 z m 0.73046,2.1543 a 53.124996,21.560419 0 0 1 0.10938,0.70703 h 3.72266 v -0.70703 z"
         style="color:#000000;font-style:normal;font-variant:normal;font-weight:normal;font-stretch:normal;font-size:medium;line-height:normal;font-family:sans-serif;text-indent:0;text-align:start;text-decoration:none;text-decoration-line:none;letter-spacing:normal;word-spacing:normal;text-transform:none;writing-mode:lr-tb;direction:ltr;baseline-shift:baseline;text-anchor:start;display:inline;overflow:visible;visibility:visible;fill:#f4fdfd;fill-opacity:1;fill-rule:evenodd;stroke:#012e5c;stroke-width:0.470402;stroke-linecap:round;stroke-linejoin:round;stroke-miterlimit:4;stroke-dasharray:none;stroke-dashoffset:0;stroke-opacity:1;filter:url(#filter6142);enable-background:accumulate"
         inkscape:connector-curvature="0"
         transform="matrix(2.2695442,0,0,-1,-435.30849,351.26103)" />
      <path
         style="color:#000000;font-style:normal;font-variant:normal;font-weight:normal;font-stretch:normal;font-size:medium;line-height:normal;font-family:sans-serif;text-indent:0;text-align:start;text-decoration:none;text-decoration-line:none;letter-spacing:normal;word-spacing:normal;text-transform:none;writing-mode:lr-tb;direction:ltr;baseline-shift:baseline;text-anchor:start;display:inline;overflow:visible;visibility:visible;fill:#f4fdfd;fill-opacity:1;fill-rule:evenodd;stroke:none;enable-background:accumulate"
         d="m 234.20818,246.43291 a 120.56953,21.560419 0 0 0 15.78487,-0.70704 h 92.42187 v 0.70704 z m 35.36856,-2.1543 a 120.56953,21.560419 0 0 0 7.01253,-0.70703 h 65.82565 v 0.70703 z m 18.73259,-2.1543 a 120.56953,21.560419 0 0 0 2.85023,-0.41211 120.56953,21.560419 0 0 0 1.77753,-0.29492 h 49.47783 v 0.70703 z m 13.04545,-2.1543 a 120.56953,21.560419 0 0 0 3.48854,-0.70703 h 37.5716 v 0.70703 z m 9.87606,-2.15429 a 120.56953,21.560419 0 0 0 2.83693,-0.70703 h 28.34715 v 0.70703 z m 7.68189,-2.1543 a 120.56953,21.560419 0 0 0 2.23852,-0.70703 h 21.26367 v 0.70703 z m 5.87775,-2.1543 a 120.56953,21.560419 0 0 0 1.62239,-0.70703 h 16.00205 v 0.70703 z m 4.33075,-2.15429 a 120.56953,21.560419 0 0 0 1.10374,-0.70703 h 12.18995 v 0.70703 z m 2.9389,-2.1543 a 120.56953,21.560419 0 0 0 0.66046,-0.70703 h 9.69433 v 0.70703 z m 1.65781,-2.1543 a 120.56953,21.560419 0 0 0 0.24824,-0.70703 h 8.44874 v 0.70703 z"
         id="path6199"
         inkscape:connector-curvature="0" />
    </g>
  </g>
</svg>
